<?xml version="1.0" encoding="utf-8"?>
<!-- Generator: Adobe Illustrator 27.6.1, SVG Export Plug-In . SVG Version: 6.00 Build 0)  -->
<svg version="1.1" id="Layer_1" xmlns="http://www.w3.org/2000/svg" xmlns:xlink="http://www.w3.org/1999/xlink" x="0px" y="0px"
	 viewBox="0 0 1920 1080" style="enable-background:new 0 0 1920 1080;" xml:space="preserve" width="100%" height="100%" preserveAspectRatio="none">
<style type="text/css">
	.st0{fill:#700A00;}
	.st1{fill:#FF9600;stroke:#700A00;stroke-width:19;stroke-miterlimit:10;}
</style>
<path class="st1" d="M1678.6,43.9c-161.1-41-455.8,88.5-705,121.6C557.2,220.7,287.5,3.6,129.4,122.7c-52.8,39.8-66.1,96.7-69,138.5
	c17.5,224.3,34.9,448.6,52.4,672.8c0,80.6,25.3,145.9,56.6,145.9h1556.1c31.2,0,56.6-65.3,56.6-145.9
	c15.2-236.8,30.4-473.7,45.5-710.5c1.5-24.6,0.7-85.4-52.4-132.3C1775.2,91.3,1739,59.3,1678.6,43.9z"/>
</svg>
