<?xml version="1.0" encoding="utf-8"?>
<!-- Generator: Adobe Illustrator 27.6.1, SVG Export Plug-In . SVG Version: 6.00 Build 0)  -->
<svg version="1.1" id="Layer_1" xmlns="http://www.w3.org/2000/svg" xmlns:xlink="http://www.w3.org/1999/xlink" x="0px" y="0px"
	 viewBox="0 0 527.9 1077.7" style="enable-background:new 0 0 527.9 1077.7;" xml:space="preserve" width="100%" height="100%" preserveAspectRatio="none" >
<style type="text/css">
	.st0{fill:#FFCB90;}
	.st1{fill:#700A00;}
	.st2{fill:#FF3800;}
	.st3{fill:#FF9600;}
</style>
<polygon class="st0" points="-1.9,-3 -0.1,1079.1 529.9,1079.9 529.9,-2.3 "/>
<path class="st1" d="M156.5,702.9c4.7,5.6,10.2,10.8,14.3,16.9c4,5.9,6.6,12.6,10.6,18.5c17.6,26.4,69.5,38.7,95.7,14
	c6.2-5.9,10.4-13.3,17.4-18.4c10.2-7.5,24.4-9.2,36.1-14.8c18.6-9,29-27.6,30.6-45.9c1.8-20.5-6.2-41.1-19.9-57.9
	c-13.7-16.7-32.7-29.7-53.6-39.4c-15.8-7.3-32.9-12.9-50.7-14.7s-36.5,0.5-52.4,7.9c-3,1.4-5.8,3-8.6,4.7c-11.1,7-20.1,16.5-26.7,27
	C129.2,632.5,132.1,673.9,156.5,702.9L156.5,702.9z M157.2,605.9c6.1-9.6,14.4-18.3,24.6-24.8c2.5-1.6,5.1-3,7.9-4.3
	c14.6-6.9,31.8-8.9,48.2-7.3s32.1,6.8,46.6,13.5c19.1,8.9,36.7,20.8,49.2,36.2c12.6,15.4,19.9,34.3,18.3,53.2
	c-1.5,16.9-11.1,34-28.2,42.2c-10.7,5.2-23.8,6.7-33.2,13.6c-6.4,4.8-10.3,11.6-16,17c-24,22.7-71.8,11.4-87.9-12.9
	c-3.7-5.5-6.1-11.6-9.8-17c-3.8-5.5-8.8-10.3-13.2-15.5C141.5,673.1,138.8,635,157.2,605.9L157.2,605.9z"/>
<path class="st2" d="M163.9,699.7c4.4,5.2,9.4,10,13.2,15.5c3.7,5.5,6.1,11.5,9.8,17c16.2,24.3,63.9,35.6,87.9,12.9
	c5.7-5.4,9.6-12.2,16-17c9.3-6.9,22.4-8.4,33.2-13.6c17.1-8.2,26.7-25.4,28.2-42.2c1.7-18.9-5.7-37.8-18.3-53.2
	c-12.6-15.4-30.1-27.3-49.2-36.2c-14.5-6.7-30.2-11.9-46.6-13.5c-16.4-1.6-33.6,0.4-48.2,7.3c-2.7,1.3-5.4,2.7-7.9,4.3
	c-10.2,6.4-18.5,15.2-24.6,24.8C138.8,635,141.5,673.1,163.9,699.7L163.9,699.7z M167.9,612.6c5.4-8.5,12.7-16.2,21.7-21.9
	c2.2-1.4,4.5-2.7,7-3.8c12.9-6.1,28.1-7.9,42.6-6.4c14.5,1.4,28.4,6,41.2,11.9c16.9,7.9,32.4,18.4,43.5,32
	c11.1,13.6,17.6,30.3,16.1,47c-1.3,14.9-9.8,30-24.9,37.3c-9.5,4.6-21,5.9-29.3,12c-5.7,4.2-9.1,10.2-14.1,15
	c-21.2,20-63.4,10-77.7-11.4c-3.2-4.8-5.3-10.2-8.6-15c-3.3-4.9-7.8-9.1-11.6-13.7C154,672,151.6,638.4,167.9,612.6L167.9,612.6z"/>
<path class="st3" d="M173.8,695.5c3.8,4.6,8.3,8.8,11.6,13.7c3.3,4.8,5.4,10.2,8.6,15c14.3,21.4,56.4,31.4,77.7,11.4
	c5-4.8,8.5-10.8,14.1-15c8.2-6.1,19.8-7.4,29.3-12c15.1-7.3,23.6-22.4,24.9-37.3c1.5-16.7-5-33.4-16.1-47
	c-11.1-13.6-26.6-24.1-43.5-32c-12.8-6-26.7-10.5-41.2-11.9c-14.5-1.4-29.7,0.4-42.6,6.4c-2.4,1.1-4.7,2.4-7,3.8
	c-9,5.7-16.3,13.4-21.7,21.9C151.6,638.3,154,672,173.8,695.5L173.8,695.5z M172.8,638.3c3-9,8.2-17.6,15.4-24.7
	c2.5-2.5,5.3-4.9,8.2-7c23.1-16.7,57.6-19.8,84.3-8.2c26.6,11.5,44.2,36.8,44.7,62.7c0.1,7.3-1,14.7-4.5,21.3s-9.5,12.5-17.3,15.3
	c-6.7,2.4-14.2,2.4-21.5,3.2c-7.2,0.7-14.9,2.5-19.6,7.4c-3.9,4.1-5.1,9.5-7.2,14.5c-2,5-5.8,10.2-11.8,11.3
	c-4.7,0.8-9.3-1.2-13.4-3.3c-12.5-6.4-23.8-14.4-33.5-23.7c-4.8-4.6-9.2-9.5-13.2-14.6c-2-2.6-3.9-5.2-5.7-7.9
	c-5.1-7.8-7.8-18.2-7.9-27.2C169.7,650.9,170.8,644.5,172.8,638.3L172.8,638.3z"/>
<path class="st0" d="M183.4,692.5c4,5.1,8.4,10,13.2,14.6c9.7,9.3,21,17.3,33.5,23.7c4.1,2.1,8.7,4.1,13.4,3.3
	c6-1,9.7-6.3,11.8-11.3s3.2-10.5,7.2-14.5c4.7-4.9,12.4-6.6,19.6-7.4c7.2-0.7,14.7-0.8,21.5-3.2c7.8-2.8,13.8-8.6,17.3-15.3
	s4.6-14.1,4.5-21.3c-0.5-25.9-18.1-51.1-44.7-62.7c-26.6-11.5-61.2-8.5-84.3,8.2c-3,2.1-5.7,4.5-8.2,7c-7.1,7.2-12.3,15.7-15.4,24.7
	c-2.1,6.2-3.1,12.6-3,19c0.1,9,2.7,19.4,7.9,27.2C179.5,687.2,181.4,689.9,183.4,692.5L183.4,692.5z M198.9,618.6
	c0.1-0.1,0.2-0.2,0.3-0.2c17.5-16,46.1-21.9,70-14.7c24,7.2,42.1,26.9,45.5,48.7c1.6,10.4-0.1,21.6-7.5,30
	c-5.3,6-13.2,9.9-21.4,11.9c-7.1,1.7-18,3.8-23.1-2.2c-1.8-2.2-2.8-4.8-3.8-7.4c-4.6-12.2-10.6-24.1-19.8-34.1
	c-9.2-10-22-17.9-36.5-20.3c-2.4-0.4-5.1-0.8-6.6-2.5C193.6,625.1,196.2,621.2,198.9,618.6L198.9,618.6z M183.6,639.2
	c1.4-1.1,3-1.9,4.7-2.5c3.7-1.2,7.9-1.3,11.8-0.7c8.4,1.3,16.1,5.1,22.6,9.9c11.9,8.7,20.3,20.7,25.5,33.5c2.6,6.5,4.6,13.3,4,20.2
	c-0.3,3.8-1.6,7.7-4.8,10.2c-6,4.7-16.4,3.4-23.5,1.6c-8.3-2.1-15.8-6.1-21.9-11.3c-7.9-6.6-13.6-15-17.7-23.8
	c-3.6-7.8-6.1-16.1-5.9-24.5C178.6,647.3,179.7,642.4,183.6,639.2L183.6,639.2z"/>
<path class="st2" d="M202,700.2c6.1,5.2,13.6,9.2,21.9,11.3c7,1.7,17.5,3,23.5-1.6c3.3-2.5,4.5-6.5,4.8-10.2
	c0.6-6.9-1.3-13.8-4-20.2c-5.2-12.8-13.6-24.7-25.5-33.5c-6.5-4.8-14.2-8.6-22.6-9.9c-3.9-0.6-8.2-0.5-11.8,0.7
	c-1.7,0.6-3.3,1.4-4.7,2.5c-3.9,3.2-5,8.2-5.1,12.8c-0.2,8.4,2.2,16.7,5.9,24.5C188.4,685.2,194.1,693.6,202,700.2L202,700.2z
	 M190.2,646.5c1.1-0.9,2.3-1.5,3.7-2c2.9-1,6.3-1,9.4-0.5c6.7,1,12.8,4.1,17.9,7.8c9.4,6.9,16.1,16.4,20.2,26.5
	c2.1,5.1,3.6,10.6,3.1,16.1c-0.3,3-1.3,6.1-3.8,8.1c-4.7,3.7-13,2.7-18.6,1.3c-6.5-1.6-12.5-4.8-17.4-8.9
	c-6.2-5.2-10.7-11.9-14-18.9c-2.9-6.2-4.8-12.7-4.7-19.4C186.2,652.9,187.1,649,190.2,646.5L190.2,646.5z"/>
<path class="st3" d="M204.7,694.8c4.9,4.1,10.8,7.3,17.4,8.9c5.6,1.4,13.8,2.4,18.6-1.3c2.6-2,3.6-5.1,3.8-8.1
	c0.5-5.5-1-10.9-3.1-16.1c-4.2-10.1-10.8-19.6-20.2-26.5c-5.2-3.8-11.2-6.8-17.9-7.8c-3.1-0.5-6.5-0.4-9.4,0.5
	c-1.4,0.5-2.6,1.1-3.7,2c-3.1,2.5-4,6.5-4.1,10.1c-0.2,6.7,1.8,13.2,4.7,19.4C194,683,198.5,689.6,204.7,694.8L204.7,694.8z
	 M204.2,661.7c0.7-0.6,1.5-1,2.4-1.3c1.9-0.6,4.1-0.6,6.1-0.3c4.3,0.7,8.3,2.6,11.6,5.1c6.1,4.5,10.4,10.6,13.1,17.2
	c1.4,3.3,2.3,6.8,2,10.4c-0.2,1.9-0.8,4-2.5,5.3c-3.1,2.4-8.4,1.7-12,0.8c-4.2-1.1-8.1-3.1-11.2-5.8c-4-3.4-7-7.7-9.1-12.2
	c-1.9-4-3.1-8.2-3-12.6C201.6,665.8,202.2,663.3,204.2,661.7L204.2,661.7z"/>
<path class="st1" d="M204.6,680.8c2.1,4.5,5,8.8,9.1,12.2c3.1,2.6,7,4.7,11.2,5.8c3.6,0.9,9,1.6,12-0.8c1.7-1.3,2.3-3.3,2.5-5.3
	c0.3-3.6-0.7-7.1-2-10.4c-2.7-6.6-7-12.7-13.1-17.2c-3.3-2.5-7.3-4.4-11.6-5.1c-2-0.3-4.2-0.3-6.1,0.3c-0.9,0.3-1.7,0.7-2.4,1.3
	c-2,1.6-2.6,4.2-2.6,6.6C201.5,672.5,202.7,676.8,204.6,680.8L204.6,680.8z M210.6,668.7c0.4-0.3,0.9-0.6,1.5-0.8
	c1.1-0.4,2.5-0.4,3.7-0.2c2.6,0.4,5,1.6,7,3.1c3.7,2.7,6.3,6.5,8,10.4c0.8,2,1.4,4.2,1.2,6.3c-0.1,1.2-0.5,2.4-1.5,3.2
	c-1.9,1.5-5.1,1-7.3,0.5c-2.6-0.6-4.9-1.9-6.8-3.5c-2.5-2.1-4.2-4.7-5.5-7.4c-1.1-2.4-1.9-5-1.8-7.6
	C209,671.3,209.4,669.8,210.6,668.7L210.6,668.7z"/>
<path class="st2" d="M210.8,680.4c1.3,2.7,3.1,5.4,5.5,7.4c1.9,1.6,4.3,2.9,6.8,3.5c2.2,0.5,5.4,1,7.3-0.5c1-0.8,1.4-2,1.5-3.2
	c0.2-2.2-0.4-4.3-1.2-6.3c-1.6-4-4.3-7.7-8-10.4c-2-1.5-4.4-2.7-7-3.1c-1.2-0.2-2.5-0.2-3.7,0.2c-0.5,0.2-1,0.4-1.5,0.8
	c-1.2,1-1.6,2.5-1.6,4C208.9,675.4,209.7,677.9,210.8,680.4L210.8,680.4z"/>
<path class="st2" d="M196,627.8c1.5,1.7,4.2,2.1,6.6,2.5c14.5,2.4,27.3,10.3,36.5,20.3c9.2,10,15.2,21.9,19.8,34.1
	c1,2.6,1.9,5.2,3.8,7.4c5.1,6,16,3.9,23.1,2.2c8.3-2,16.1-5.9,21.4-11.9c7.4-8.3,9.1-19.6,7.5-30c-3.4-21.9-21.5-41.5-45.5-48.7
	c-23.9-7.1-52.5-1.3-70,14.7c-0.1,0.1-0.2,0.2-0.3,0.2C196.1,621.2,193.6,625.1,196,627.8L196,627.8z M207.6,619.3
	c0.1-0.1,0.2-0.1,0.2-0.2c14.8-13.5,39.1-18.4,59.3-12.4c20.3,6.1,35.6,22.6,38.5,41.1c1.4,8.7-0.1,18.2-6.3,25.2
	c-4.5,5.1-11.1,8.3-18.2,10c-6,1.4-15.3,3.2-19.5-1.8c-1.6-1.8-2.4-4.1-3.2-6.2c-3.9-10.3-9-20.3-16.8-28.7
	c-7.8-8.4-18.6-15.1-30.9-17.1c-2-0.3-4.3-0.6-5.6-2.1C203.2,624.8,205.3,621.5,207.6,619.3L207.6,619.3z"/>
<path class="st3" d="M205.2,627.1c1.3,1.4,3.5,1.7,5.6,2.1c12.3,2,23.1,8.7,30.9,17.1s12.9,18.5,16.8,28.7c0.8,2.2,1.6,4.4,3.2,6.2
	c4.3,5.1,13.5,3.3,19.5,1.8c7-1.7,13.7-5,18.2-10c6.3-7,7.7-16.5,6.3-25.2c-2.9-18.4-18.2-35-38.5-41.1c-20.2-6-44.5-1.1-59.3,12.4
	c-0.1,0.1-0.2,0.1-0.2,0.2C205.3,621.5,203.2,624.8,205.2,627.1L205.2,627.1z M220.9,619.1c0.1-0.1,0.1-0.1,0.2-0.2
	c13.6-10.5,34.4-13.2,51-6.8c16.6,6.4,28.2,21.3,29.1,37c0.4,7.5-1.5,15.4-7.4,20.9c-4.2,4-10.1,6.4-16.1,7.4
	c-5.2,0.9-13.1,1.7-16.3-2.8c-1.2-1.7-1.7-3.6-2.2-5.5c-2.4-8.9-5.9-17.7-11.8-25.3c-5.9-7.6-14.5-13.9-24.7-16.3
	c-1.7-0.4-3.6-0.8-4.5-2.1C216.6,623.5,218.7,620.8,220.9,619.1L220.9,619.1z"/>
<path class="st1" d="M222.7,627.6c10.2,2.4,18.7,8.7,24.7,16.3c5.9,7.6,9.4,16.4,11.8,25.3c0.5,1.9,1,3.8,2.2,5.5
	c3.2,4.5,11.1,3.7,16.3,2.8c6.1-1,11.9-3.4,16.1-7.4c5.8-5.5,7.8-13.5,7.4-20.9c-0.9-15.7-12.5-30.7-29.1-37
	c-16.5-6.3-37.4-3.7-51,6.8c-0.1,0.1-0.1,0.1-0.2,0.2c-2.1,1.7-4.2,4.3-2.7,6.4C219.1,626.8,221,627.2,222.7,627.6L222.7,627.6z
	 M238.6,619.7c0.1-0.2,0.2-0.3,0.3-0.5c1.2-1.3,3.4-1.5,5.3-1.6c6.8-0.2,13.7,0.2,20.4,1.1c8.2,1.1,16.7,3.1,22.5,8.3
	c4.5,4,7,9.5,7.5,15.2c0.5,5.6-0.7,11.3-2.9,16.6c-1.3,3.3-3.1,6.6-5.9,9.1c-6.6,6-15.8,3.4-21.5-2c-6.6-6.3-7.2-15.5-10.5-23.3
	c-2.5-5.9-6.5-11.3-11.7-15.7c-1.2-1-2.5-2-3.3-3.4C238.2,622.3,238,620.9,238.6,619.7L238.6,619.7z"/>
<path class="st3" d="M242.2,626.8c5.2,4.4,9.2,9.8,11.7,15.7c3.2,7.8,3.8,17,10.5,23.3c5.7,5.4,14.9,8,21.5,2
	c2.8-2.5,4.5-5.8,5.9-9.1c2.2-5.3,3.4-11,2.9-16.6c-0.5-5.6-3-11.2-7.5-15.2c-5.8-5.1-14.3-7.2-22.5-8.3c-6.7-0.9-13.6-1.3-20.4-1.1
	c-1.9,0.1-4.1,0.2-5.3,1.6c-0.1,0.2-0.3,0.3-0.3,0.5c-0.6,1.1-0.4,2.6,0.3,3.7C239.7,624.8,241,625.8,242.2,626.8L242.2,626.8z
	 M266.5,636.1c0.6-1.7,1.6-3.4,3.4-4.2c0.1-0.1,0.2-0.1,0.3-0.1c1.3-0.5,2.7-0.4,4.1-0.1c3.9,0.9,7,3.7,8.4,6.9
	c1.5,3.3,1.5,6.9,0.7,10.3c-0.5,2.3-1.4,4.7-3.2,6.5c-2.8,2.9-8.2,4.1-11.1,0.8c-0.9-1-1.5-2.3-1.9-3.6
	C265.3,647.2,264.6,641.4,266.5,636.1L266.5,636.1z"/>
<path class="st2" d="M269.2,656.1c2.9,3.3,8.3,2.1,11.1-0.8c1.8-1.8,2.7-4.2,3.2-6.5c0.8-3.4,0.8-7.1-0.7-10.3
	c-1.5-3.3-4.5-6-8.4-6.9c-1.3-0.3-2.8-0.4-4.1,0.1c-0.1,0-0.2,0.1-0.3,0.1c-1.8,0.8-2.8,2.6-3.4,4.2c-2,5.3-1.2,11.2,0.8,16.5
	C267.7,653.8,268.3,655.1,269.2,656.1L269.2,656.1z"/>
<path class="st2" d="M467.7,604.6c-9.8-5.4-21.1-8.8-32.8-8.5c-16.4,0.3-32.2,7.7-43.2,18.3c-11,10.7-17.5,24.5-20.4,38.5
	c-2.5,12.3-2.4,24.9-5,37.2c-2.6,12.3-8.6,24.8-20.3,32.2c-10.8,6.8-24.7,8.2-36.7,13.2s-22.9,16.8-17.5,27.3
	c5.7,11.3,26.1,13,30.3,24.7c1.9,5.4-0.4,11.3-4.3,15.8s-9.3,7.9-14.5,11.3c-13.2,8.8-25.8,18.6-34.6,30.9
	c-8.8,12.3-13.5,27.2-10.1,41.2C268.9,928,322.9,919,347,893c13.6-14.6,22.1-32.2,35.3-47.1c13.1-14.9,33.5-27.4,54.7-24.6
	c17,2.2,32.4,13.9,49.2,10.7c15.3-2.8,24.3-16.7,29.4-29.6c18.7-46.9,13.2-99.1-6.2-145.4c-6.3-14.9-14.1-29.7-26.4-41.4
	C478.6,611.5,473.4,607.7,467.7,604.6L467.7,604.6z M513.4,708.7c6.1,30,6.8,61.8-6.3,90.3c-3.9,8.5-9.7,17.2-19.4,20.9
	c-14.6,5.6-30.7-2.3-46.2-5.4c-25.2-5.1-52.1,4.1-69.4,20.5c-16.4,15.6-24.5,36.6-42.6,51.1c-9.9,7.9-24.3,13.6-36.8,9.3
	c-13.1-4.5-18.9-18.9-15.8-31c3-12.1,12.7-22.1,23.1-30.6s21.8-16.2,30.1-26.3c4.5-5.4,8-11.6,8.6-18.2c0.6-6.6-2.1-13.7-8.1-17.6
	c-4.3-2.8-9.7-3.9-14.6-5.7c-5-1.8-9.9-4.8-11.1-9.3c-1.4-5.6,3.7-11,9.5-13.6c5.9-2.6,12.6-3.2,18.8-5
	c17.1-4.9,29.5-18.3,36.9-32.7c7.3-14.3,10.5-29.9,15.4-45c4.9-15.1,12-30.3,25.3-40.9c11.4-9.2,28.4-14.1,42.9-10.5
	c2.4,0.6,4.7,1.4,6.8,2.5c8.1,3.9,13.9,10.5,18.9,17.2C497.3,652.5,507.7,680.4,513.4,708.7L513.4,708.7z"/>
<path class="st3" d="M460.4,611.3c-2.2-1.1-4.5-1.9-6.8-2.5c-14.5-3.6-31.5,1.3-42.9,10.5c-13.3,10.7-20.4,25.9-25.3,40.9
	s-8,30.7-15.4,45s-19.7,27.7-36.9,32.7c-6.2,1.8-13,2.4-18.8,5c-5.9,2.6-10.9,8.1-9.5,13.6c1.1,4.6,6.1,7.6,11.1,9.3
	c5,1.8,10.4,2.8,14.6,5.7c6.1,4,8.7,11,8.1,17.6c-0.6,6.6-4.1,12.8-8.6,18.2c-8.3,10.1-19.7,17.8-30.1,26.3
	c-10.3,8.5-20,18.5-23.1,30.6s2.7,26.4,15.8,31c12.5,4.3,26.8-1.4,36.8-9.3c18.1-14.4,26.2-35.5,42.6-51.1
	c17.3-16.4,44.2-25.5,69.4-20.5c15.5,3.1,31.6,11,46.2,5.4c9.7-3.7,15.5-12.4,19.4-20.9c13.1-28.5,12.3-60.3,6.3-90.3
	c-5.7-28.3-16.1-56.2-34-80.2C474.3,621.8,468.5,615.2,460.4,611.3L460.4,611.3z M350.5,845.2c-7.3,12.4-15.9,24.4-27.6,33.8
	c-4.3,3.5-9.3,6.7-15.1,7.3c-6.8,0.7-13.8-2.6-16.7-7.9c-3.1-5.7-1.6-12.5,1.1-18.4c4.8-10.3,13.1-19.2,21.9-27.4
	c7.5-7,15.7-13.5,24.9-18.7c2.7-1.5,7.1-3.4,11.3-4c4.5-0.7,8.7,0.1,10.2,4.5c0.6,1.8,0.5,3.7,0.2,5.6
	C359.4,828.9,355.2,837.2,350.5,845.2L350.5,845.2z M503.1,707.9c5.4,25.5,8.6,52.4-0.8,77.2c-2.8,7.3-6.9,14.6-14,18.9
	c-6.7,4-15.2,4.9-23.2,4.1c-7.9-0.8-15.6-3.1-23.4-4.7c-14.4-3.1-29.6-4.1-44.1-1c-9.1,2-20.4,7.2-29.4,3
	c-7.3-3.4-11.2-10.9-13.6-17.6c-2.9-8.3-5-17.6-12.3-23.3c-2.4-1.9-5.3-3.3-7.5-5.4c-2.2-2.1-3.5-5.4-1.9-8
	c1.9-3.2,6.8-3.4,10.8-4.1c11.2-1.7,20.5-9.4,26.3-18.3c5.8-8.9,8.7-19,11.9-28.9c6.6-20.7,14.9-41.4,28.4-59.3
	c5-6.6,11.2-13.1,19.5-15.9c1.2-0.4,2.3-0.7,3.5-0.9c12.4-2.3,25.6,4,34.8,12.2C489.1,654.5,497.6,681.7,503.1,707.9z"/>
<path class="st2" d="M433.3,623.8c-1.2,0.2-2.4,0.5-3.5,0.9c-8.4,2.7-14.5,9.2-19.5,15.9c-13.5,17.9-21.7,38.5-28.4,59.3
	c-3.1,9.8-6,19.9-11.9,28.9c-5.8,8.9-15.1,16.6-26.3,18.3c-4,0.6-8.8,0.9-10.8,4.1c-1.6,2.6-0.3,5.8,1.9,8c2.2,2.1,5.1,3.5,7.5,5.4
	c7.3,5.7,9.4,15,12.3,23.3c2.4,6.8,6.3,14.2,13.6,17.6c9,4.2,20.3-1,29.4-3c14.5-3.1,29.7-2.1,44.1,1c7.8,1.7,15.4,3.9,23.4,4.7
	c7.9,0.8,16.5,0,23.2-4.1c7.1-4.3,11.3-11.6,14-18.9c9.3-24.7,6.1-51.7,0.8-77.2c-5.5-26.2-14-53.4-35-71.9
	C458.8,627.8,445.7,621.5,433.3,623.8z M482,683c8.3,24.9,8.6,51.4,6.7,77.3c-0.4,5.6-0.9,11.3-3,16.6s-6,10.4-11.6,13.1
	c-9,4.4-20.1,2.1-30.3,0.8c-18.4-2.3-37.4-0.9-55.1,4.2c-3.4,1-6.9,2.1-10.4,2.3c-2.5,0.4-5.1,0.3-7.5-0.4c-4.2-1.4-7.2-4.7-9-8.3
	c-1.8-3.6-2.6-7.5-3.9-11.3c-2.4-7.1-6.7-14.6-4-21.7c2.8-7.3,11.7-11.2,18.6-16.1c11.4-8,18.4-19.8,22.9-31.8
	c4.5-12,6.9-24.6,10.8-36.8c2.7-8.2,6.5-16.6,14.2-21.8c11.5-7.7,28.8-5.5,40.1,2.2C471.7,659,478,671,482,683L482,683z"/>
<path class="st2" d="M360.5,814.5c-1.5-4.4-5.7-5.1-10.2-4.5c-4.2,0.6-8.6,2.5-11.3,4c-9.3,5.1-17.4,11.7-24.9,18.7
	c-8.8,8.1-17.1,17-21.9,27.4c-2.7,5.9-4.3,12.7-1.1,18.4c2.9,5.3,10,8.6,16.7,7.9c5.8-0.6,10.8-3.9,15.1-7.3
	c11.7-9.5,20.4-21.5,27.6-33.8c4.7-8,8.9-16.3,10.2-25.1C361,818.2,361.1,816.3,360.5,814.5L360.5,814.5z M341.3,846.1
	c-4.7,7.9-10.2,15.6-17.7,21.7c-2.8,2.2-6,4.3-9.7,4.7c-4.3,0.5-8.9-1.7-10.7-5.1c-2-3.6-1-8,0.7-11.8c3.1-6.6,8.4-12.3,14.1-17.6
	c4.8-4.5,10.1-8.7,16-12c1.7-1,4.5-2.2,7.2-2.6c2.9-0.4,5.6,0.1,6.6,2.9c0.4,1.1,0.3,2.4,0.1,3.6C347,835.6,344.3,841,341.3,846.1
	L341.3,846.1z"/>
<path class="st1" d="M347.7,826.4c-1-2.8-3.7-3.3-6.6-2.9c-2.7,0.4-5.5,1.6-7.2,2.6c-5.9,3.3-11.2,7.5-16,12
	c-5.7,5.2-11,10.9-14.1,17.6c-1.8,3.8-2.7,8.2-0.7,11.8c1.9,3.4,6.4,5.5,10.7,5.1c3.7-0.4,6.9-2.5,9.7-4.7
	c7.5-6.1,13.1-13.8,17.7-21.7c3-5.1,5.7-10.5,6.5-16.1C348,828.8,348.1,827.6,347.7,826.4L347.7,826.4z"/>
<path class="st0" d="M420.3,649.1c-7.8,5.2-11.6,13.7-14.2,21.8c-4,12.2-6.3,24.7-10.8,36.8c-4.5,12-11.5,23.8-22.9,31.8
	c-6.9,4.9-15.8,8.8-18.6,16.1c-2.7,7.1,1.5,14.6,4,21.7c1.3,3.8,2.1,7.7,3.9,11.3c1.8,3.6,4.8,7,9,8.3c2.4,0.8,5,0.8,7.5,0.4
	c3.5-0.2,7-1.3,10.4-2.3c17.7-5,36.7-6.5,55.1-4.2c10.2,1.3,21.2,3.5,30.3-0.8c5.7-2.7,9.5-7.8,11.6-13.1c2.1-5.3,2.6-11,3-16.6
	c1.8-26,1.6-52.4-6.7-77.3c-4-12-10.3-24-21.5-31.7C449.1,643.6,431.8,641.5,420.3,649.1L420.3,649.1z M462.1,673.8
	c15.6,23,18.4,51.2,14.5,77.8c-1.5,10.4-4.8,21.9-14.8,27.9c-6.7,4-15.2,4.8-23.2,5.5c-18.3,1.5-36.6,3-54.9,4.5
	c-1.2,0.1-2.5,0.2-3.7,0.2l-0.1,0.3c-0.1-0.1-0.2-0.2-0.3-0.3c-2.2,0.1-4.5-0.1-6.6-0.7c-8-2.4-11-11.2-9.9-18.5
	c0.7-4.3,2.5-8.5,5.1-12.2c2.4-5.8,7.2-10.8,12.4-15.2c6.6-5.7,14.1-10.7,19.2-17.5c6.6-8.7,8.5-19.3,10.7-29.6
	c2.2-10.2,5-20.9,12.9-28.7c4.7-4.7,11.5-8.2,18.5-7.7C450.8,660.3,457.5,667,462.1,673.8L462.1,673.8z"/>
<path class="st1" d="M441.8,659.7c-7-0.5-13.8,3.1-18.5,7.7c-7.9,7.9-10.7,18.5-12.9,28.7c-2.2,10.2-4.1,20.8-10.7,29.6
	c-5.1,6.8-12.6,11.8-19.2,17.5c-5.1,4.4-9.9,9.4-12.4,15.2c-2.6,3.7-4.4,7.9-5.1,12.2c-1.2,7.3,1.9,16.1,9.9,18.5
	c2.1,0.6,4.3,0.8,6.6,0.7c0.1,0.1,0.2,0.2,0.3,0.3l0.1-0.3c1.3,0,2.5-0.1,3.7-0.2c18.3-1.5,36.6-3,54.9-4.5
	c8.1-0.7,16.5-1.4,23.2-5.5c10-6,13.3-17.4,14.8-27.9c3.9-26.6,1.1-54.8-14.5-77.8C457.5,667,450.8,660.3,441.8,659.7L441.8,659.7z
	 M440.4,694.1c4.8,1.2,8,5.1,10.2,9c5.5,9.8,7.3,20.9,7.1,31.8c-0.1,7.5-1.3,15.2-5.4,21.8c-4.2,6.7-11.2,11.7-19.2,15
	c-1.7,1-3.5,1.9-5.3,2.6c-6.5,2.7-13.6,3.9-20.7,5c-7.2,1.1-14.6,1.9-21.6,0.4c-3.8-0.9-7.6-2.6-9.7-5.4c-2.7-3.7-2.3-8.6-0.2-12.6
	c2.1-4,5.7-7.2,9.2-10.4c12.4-11.1,25.5-22.3,32.4-36.5c2.4-4.9,4-10.1,7.6-14.4C428.3,696,434.6,692.7,440.4,694.1L440.4,694.1z"/>
<path class="st3" d="M424.8,700.3c-3.6,4.3-5.2,9.5-7.6,14.4c-6.9,14.2-20,25.4-32.4,36.5c-3.5,3.1-7.1,6.4-9.2,10.4
	c-2.1,4-2.5,8.9,0.2,12.6c2.1,2.9,5.9,4.6,9.7,5.4c7,1.6,14.5,0.7,21.6-0.4c7.1-1.1,14.2-2.3,20.7-5c1.8-0.8,3.6-1.6,5.3-2.6
	c8-3.3,15-8.3,19.2-15c4.2-6.6,5.3-14.3,5.4-21.8c0.2-10.9-1.6-22-7.1-31.8c-2.2-3.9-5.4-7.8-10.2-9
	C434.6,692.7,428.3,696,424.8,700.3L424.8,700.3z M433.7,731.4c2.6,1.5,3.4,4.6,3.4,7.3c0.1,7.4-3.7,14.8-10,19.8
	c-5.3,4.1-12.2,6.5-19.2,6.8c-5.8,0.2-13.4-2.5-12.5-8.7c0.4-2.4,2.3-4.5,4.6-6c2.2-1.5,4.8-2.7,7.1-4.1c4.9-3.1,8.4-7.7,12.9-11.3
	c0.9-0.7,1.9-1.5,2.9-2.1C426,730.9,430.5,729.5,433.7,731.4L433.7,731.4z"/>
<path class="st1" d="M407.1,746.3c-2.3,1.5-4.9,2.6-7.1,4.1c-2.2,1.5-4.2,3.6-4.6,6c-1,6.2,6.6,8.9,12.5,8.7c7-0.2,14-2.7,19.2-6.8
	c6.4-5,10.1-12.4,10-19.8c0-2.8-0.8-5.8-3.4-7.3c-3.3-1.9-7.7-0.5-10.9,1.6c-1,0.7-2,1.4-2.9,2.1C415.5,738.7,412,743.2,407.1,746.3
	L407.1,746.3z"/>
<path class="st3" d="M321,1078.1c1.8-0.9,4.2-0.2,5.6,1.1c0.1,0.1,0.3,0.3,0.4,0.4l29.1,0c-12.8-8.9-20.7-22.7-26.9-36.2
	c-3.8-8.3-7.2-16.7-11.6-24.7c-4.4-8.1-10.8-16.1-17.6-22.8c-6.6-6.5-14.2-12.9-14.7-22.2c-0.6-11.6,10.5-21,20.6-28.6
	c29.5-22.2,59.1-44.6,84-70.8c5.7-6,11.2-12.2,18.1-17.1c5-3.5,10.9-6.2,17.1-7.3c2.5-0.4,5-0.6,7.5-0.4
	c11.2,0.8,20.6,8.1,25.8,16.7c5.2,8.6,7,18.4,8.7,28.1c4.1,23.1,8.1,46.1,12.2,69.2c2.9,16.3,5.8,32.7,4.8,49.2
	c-0.9,16.5-5.9,33.3-17.4,46.5c-7.6,8.8-17.8,15.6-29.2,20.6l57.1,0.1c2.5-17.7,2.5-35.7,2.6-53.6c0.3-53.5,0.7-108.8-22.8-158
	c-4.8-10.1-10.8-20-20.3-27.1c-9.2-6.8-22.3-10.5-33.8-7.3c-0.4,0.1-0.8,0.2-1.3,0.4c-9.1,2.9-15.7,9.7-21.5,16.5
	c-11.4,13.4-20.9,28.2-34.1,40.4c-22.6,21.1-54.8,33.7-75,56.6c-10.3,11.7-17.2,27.3-11.3,41c5,11.5,17.6,19,24.9,29.5
	c11.4,16.5,7.9,37.7,1.9,56.4c-0.5,1.7-1.1,3.3-1.6,5l17.3,0C319.8,1079,320.3,1078.5,321,1078.1L321,1078.1z"/>
<path class="st1" d="M466.6,1059.2c11.5-13.2,16.5-30,17.4-46.5c0.9-16.5-2-32.9-4.8-49.2c-4.1-23.1-8.1-46.1-12.2-69.2
	c-1.7-9.6-3.5-19.5-8.7-28.1c-5.2-8.6-14.6-15.9-25.8-16.7c-2.5-0.2-5,0-7.5,0.4c-6.2,1-12.1,3.8-17.1,7.3
	c-7,4.9-12.4,11.1-18.1,17.1c-24.8,26.2-54.5,48.6-84,70.8c-10.2,7.7-21.3,17-20.6,28.6c0.5,9.3,8.1,15.7,14.7,22.2
	c6.8,6.7,13.2,14.7,17.6,22.8c4.4,8,7.8,16.4,11.6,24.7c6.2,13.5,14.1,27.3,26.9,36.2l81.4,0.1C448.8,1074.8,459,1068,466.6,1059.2
	L466.6,1059.2z M338.6,1043.9c-9.6-15.7-15.3-33-25.9-48.2c-3.5-5.1-7.6-9.9-10.4-15.4c-2.8-5.4-4.2-11.7-2.1-17.4
	c3.5-9.6,15.2-14.6,25.5-19.3c29.1-13.3,55.2-32.2,73.7-55.8c4-5.1,7.8-10.5,12.9-14.8c0.1-0.1,0.1-0.1,0.2-0.2
	c5.3-4.3,12.4-7.4,19.5-6.6c9.8,1.1,16.5,9.1,20.6,16.9c11.1,21,11.8,44.9,15,68c2.2,15.8,5.7,31.5,6.3,47.5
	c0.7,15.9-1.7,32.4-10.5,46.5c-5.9,9.5-14.8,17.5-25.3,23.2c-16.3,9-36.3,12.5-55.1,9.2C362.6,1073.9,348,1059.3,338.6,1043.9
	L338.6,1043.9z"/>
<path class="st2" d="M383,1077.5c18.9,3.4,38.8-0.2,55.1-9.2c10.5-5.8,19.4-13.7,25.3-23.2c8.8-14.1,11.1-30.6,10.5-46.5
	c-0.7-15.9-4.1-31.7-6.3-47.5c-3.2-23-3.9-46.9-15-68c-4.1-7.8-10.8-15.7-20.6-16.9c-7.1-0.8-14.3,2.3-19.5,6.6
	c-0.1,0.1-0.1,0.1-0.2,0.2c-5.2,4.3-8.9,9.7-12.9,14.8c-18.6,23.6-44.6,42.5-73.7,55.8c-10.3,4.7-22,9.8-25.5,19.3
	c-2.1,5.7-0.7,12,2.1,17.4c2.8,5.4,6.9,10.3,10.4,15.4c10.6,15.2,16.3,32.5,25.9,48.2C348,1059.3,362.6,1073.9,383,1077.5
	L383,1077.5z M320.5,981.7c-9.6,0-10.6-10.1-9.7-16.5c1-6.5,6.4-12,12.7-15.7c6.3-3.7,13.6-5.9,20.6-8.5c18.9-7,36.4-17.6,49-31.8
	c4.5-5.1,8.3-10.5,13.2-15.2c5-4.7,11.4-8.6,18.6-9.3c11.3-1.1,22,6.1,26.9,14.9c5,8.9,5.4,19.1,5.5,29c0.1,5.3-0.6,11.7-6,14.3
	c-3.1,1.5-7,1.2-10.4,0.2c-3.4-1-6.5-2.6-9.8-3.7c-12.2-3.9-25.8,0.1-37.9,4.5c-21.8,7.8-43.5,17-60.3,31.3
	C329.4,978.3,325.4,981.7,320.5,981.7L320.5,981.7z M331.9,1018.2c-2.9-7-4.9-14.6-3.5-22c2.5-12.5,14.3-22,26.1-29.6
	c12.9-8.4,26.9-15.9,42.6-19c0.1,0,0.2,0,0.3-0.1c15.6-3,33-1,45,8c11.1,8.4,16,21.4,18.6,34c2.5,12.5,3.2,25.5-0.8,37.7
	c-2,6.3-5.4,12.3-9.9,17.5c-13.5,15.3-38.3,24.4-60.2,21.2c-12.6-1.9-24.3-7.5-33.6-15C345.2,1042.1,337.1,1030.6,331.9,1018.2
	L331.9,1018.2z"/>
<path class="st3" d="M390,1066c21.9,3.3,46.7-5.8,60.2-21.2c4.6-5.2,7.9-11.2,9.9-17.5c4-12.2,3.3-25.2,0.8-37.7
	c-2.5-12.6-7.4-25.7-18.6-34c-12-9-29.4-11-45-8c-0.1,0-0.2,0-0.3,0.1c-15.7,3.1-29.7,10.6-42.6,19c-11.8,7.6-23.6,17.1-26.1,29.6
	c-1.5,7.4,0.5,15,3.5,22c5.2,12.4,13.3,23.9,24.4,32.8C365.8,1058.5,377.4,1064.2,390,1066L390,1066z M345.6,1032.1
	c-6.8-11.2-8-25.1-3.3-37.3c5.6-14.6,19-26,34-33.2c3.6-1.8,7.4-3.3,11.3-4.6c11.4-3.7,23.6-5.1,35.1-2.2
	c19.2,4.7,33.5,21.4,35.6,39.4c2.1,18.1-7.6,36.7-23.4,48.1C408.1,1061.5,363.2,1061.2,345.6,1032.1L345.6,1032.1z"/>
<path class="st1" d="M393.3,943.9c12.1-4.3,25.7-8.3,37.9-4.5c3.3,1.1,6.4,2.7,9.8,3.7c3.4,1,7.3,1.3,10.4-0.2c5.4-2.6,6.1-9,6-14.3
	c-0.1-9.9-0.6-20.1-5.5-29c-5-8.9-15.6-16.1-26.9-14.9c-7.3,0.7-13.7,4.6-18.6,9.3c-5,4.7-8.8,10.2-13.2,15.2
	c-12.5,14.2-30,24.7-49,31.8c-7,2.6-14.3,4.8-20.6,8.5c-6.3,3.7-11.7,9.2-12.7,15.7c-1,6.4,0,16.5,9.7,16.5c5,0,8.9-3.5,12.4-6.5
	C349.8,960.9,371.5,951.7,393.3,943.9L393.3,943.9z M322.5,966.8c-2.2-1.3-2.8-3.9-2-6.1c0.8-2.2,2.6-4,4.6-5.5
	c10-7.7,23.5-10.7,36.2-14c12.8-3.4,26.1-7.8,33.9-17.2c6-7.2,8.3-16.9,16.6-22.2c8.4-5.4,21-4,28.6,2c7.6,6,10.6,15.8,9.1,24.7
	c-0.4,2.2-1.1,4.6-3.2,6c-2,1.3-4.7,1.4-7.1,0.9c-2.4-0.5-4.6-1.6-6.8-2.5c-0.4-0.2-0.8-0.3-1.2-0.5c-7.7-2.8-16.3-2.9-24.2-0.6
	c-5.7,1.6-13.8,4.2-20.9,7.9c-17.7,9.2-35.7,17.9-54.1,26.1C329.1,967.1,325.3,968.4,322.5,966.8L322.5,966.8z"/>
<path class="st0" d="M407.1,931.7c7.9-2.2,16.5-2.1,24.2,0.6c0.4,0.2,0.8,0.3,1.2,0.5c2.2,0.9,4.4,2,6.8,2.5
	c2.4,0.5,5.1,0.4,7.1-0.9c2.1-1.4,2.8-3.8,3.2-6c1.5-8.9-1.4-18.7-9.1-24.7s-20.2-7.4-28.6-2c-8.2,5.3-10.6,15-16.6,22.2
	c-7.8,9.4-21.2,13.9-33.9,17.2c-12.8,3.4-26.2,6.3-36.2,14c-2,1.5-3.8,3.3-4.6,5.5c-0.8,2.2-0.2,4.9,2,6.1c2.8,1.6,6.6,0.3,9.6-1
	c18.4-8.1,36.4-16.8,54.1-26.1C393.2,935.9,401.4,933.3,407.1,931.7L407.1,931.7z"/>
<path class="st0" d="M434.9,1042.3c15.8-11.3,25.4-30,23.4-48.1c-2.1-18.1-16.4-34.7-35.6-39.4c-11.5-2.8-23.7-1.5-35.1,2.2
	c-3.9,1.3-7.7,2.8-11.3,4.6c-15,7.3-28.4,18.6-34,33.2c-4.7,12.2-3.4,26.1,3.3,37.3C363.2,1061.3,408.1,1061.5,434.9,1042.3
	L434.9,1042.3z M354.6,1025.7c-5.9-9.7-7-21.8-2.9-32.4c4.9-12.7,16.5-22.6,29.6-28.9c3.1-1.5,6.4-2.9,9.8-4
	c9.9-3.2,20.5-4.4,30.5-1.9c16.7,4.1,29.1,18.6,30.9,34.3c1.8,15.7-6.6,31.9-20.3,41.8C408.8,1051.3,369.8,1051,354.6,1025.7
	L354.6,1025.7z"/>
<path class="st2" d="M432.1,1034.5c13.7-9.8,22.1-26.1,20.3-41.8c-1.8-15.7-14.3-30.2-30.9-34.3c-10-2.5-20.6-1.3-30.5,1.9
	c-3.4,1.1-6.7,2.5-9.8,4c-13,6.3-24.7,16.2-29.6,28.9c-4.1,10.6-3,22.7,2.9,32.4C369.8,1051,408.8,1051.2,432.1,1034.5L432.1,1034.5
	z M356.7,1023.3c-4.9-8.2-5.8-18.3-2.4-27.2c4.1-10.7,13.9-19,24.8-24.3c2.6-1.3,5.4-2.4,8.2-3.3c8.3-2.7,17.2-3.7,25.6-1.6
	c14,3.5,24.5,15.6,26,28.8c1.5,13.2-5.5,26.8-17,35.1C402.2,1044.7,369.5,1044.6,356.7,1023.3L356.7,1023.3z"/>
<path class="st3" d="M421.8,1030.7c11.5-8.3,18.5-21.9,17-35.1c-1.5-13.2-12-25.3-26-28.8c-8.4-2.1-17.3-1.1-25.6,1.6
	c-2.8,0.9-5.6,2.1-8.2,3.3c-10.9,5.3-20.7,13.6-24.8,24.3c-3.4,8.9-2.5,19.1,2.4,27.2C369.5,1044.6,402.2,1044.8,421.8,1030.7
	L421.8,1030.7z M363.7,1015.8c-3.9-6.4-4.6-14.3-1.9-21.3c3.2-8.3,10.8-14.8,19.4-19c2.1-1,4.2-1.9,6.5-2.6c6.5-2.1,13.5-2.9,20-1.3
	c10.9,2.7,19.1,12.2,20.3,22.5c1.2,10.3-4.3,21-13.3,27.4C399.4,1032.6,373.8,1032.4,363.7,1015.8L363.7,1015.8z"/>
<path class="st1" d="M428,994.1c-1.2-10.3-9.4-19.8-20.3-22.5c-6.5-1.6-13.5-0.9-20,1.3c-2.2,0.7-4.4,1.6-6.5,2.6
	c-8.6,4.2-16.2,10.6-19.4,19c-2.7,7-2,14.9,1.9,21.3c10,16.6,35.6,16.8,51,5.8C423.7,1015.1,429.2,1004.5,428,994.1L428,994.1z"/>
<path class="st1" d="M326.5,1079.2c-1.4-1.3-3.8-2-5.6-1.1c-0.7,0.4-1.2,0.9-1.5,1.5h7.5C326.8,1079.5,326.7,1079.3,326.5,1079.2z"
	/>
<path class="st2" d="M67.6,1070.5c6.1-34.7,24.3-67.3,48.5-95.3c12.9-14.9,27.8-28.7,45.4-38.9c2.5-1.5,5.1-2.8,7.8-4.1
	c21.1-10.4,46.5-15,69.6-9.5c12,2.9,24.3,9.6,26.8,20.5c2.3,9.9-4.2,19.6-7.6,29.3c-4.8,13.4-3.6,28.4,3.1,41
	c6.8,12.6,18.8,22.8,23.7,36.1c3.6,9.6,3,20,0.7,30.1l9.7,0c2.4-10.8,2.9-21.8-0.9-32.1c-5.4-14.5-18.4-25.6-25.8-39.3
	c-7.4-13.7-8.6-30-3.4-44.6c3.7-10.5,10.8-21.1,8.3-31.8c-2.7-11.8-16.1-19.2-29.2-22.3c-25.2-6-52.8-0.9-75.8,10.4
	c-2.9,1.4-5.7,2.9-8.5,4.5c-19.2,11.1-35.4,26.2-49.4,42.4c-26.3,30.5-46.1,66-52.8,103.8c-0.5,2.9-0.9,5.8-1.3,8.8l9.8,0
	C66.7,1076.3,67.1,1073.4,67.6,1070.5L67.6,1070.5z"/>
<path class="st1" d="M83.4,1070.8c5.3-29.7,20.8-57.7,41.5-81.7c11-12.7,23.8-24.6,38.9-33.3c2.2-1.3,4.4-2.4,6.7-3.5
	c18.1-8.9,39.8-12.9,59.6-8.2c10.3,2.4,20.8,8.3,23,17.5c2,8.5-3.6,16.8-6.5,25.1c-4.1,11.5-3.1,24.3,2.7,35.1
	c5.8,10.8,16.1,19.5,20.3,30.9c3.2,8.6,2.6,17.8,0.3,26.8l15.7,0c2.3-10.1,2.9-20.4-0.7-30.1c-4.9-13.3-16.9-23.5-23.7-36.1
	c-6.8-12.6-7.9-27.6-3.1-41c3.4-9.7,9.9-19.4,7.6-29.3c-2.5-10.8-14.8-17.6-26.8-20.5c-23.1-5.5-48.5-0.8-69.6,9.5
	c-2.6,1.3-5.2,2.7-7.8,4.1c-17.7,10.2-32.5,24-45.4,38.9c-24.2,28-42.3,60.6-48.5,95.3c-0.5,2.9-0.9,5.8-1.3,8.6l15.8,0
	C82.5,1076.4,82.9,1073.6,83.4,1070.8L83.4,1070.8z"/>
<path class="st3" d="M103.5,1043.2c8.4-15.7,25.4-27,44.1-32c18.7-4.9,38.9-3.9,57.6,0.5c18.3,4.3,36.5,12.7,45.7,27.3
	c7.7,12.1,8,27.3,2.3,40.4l16.6,0c2.2-9,2.8-18.2-0.3-26.8c-4.2-11.4-14.5-20.1-20.3-30.9c-5.8-10.8-6.8-23.6-2.7-35.1
	c2.9-8.3,8.5-16.6,6.5-25.1c-2.1-9.3-12.7-15.1-23-17.5c-19.8-4.7-41.5-0.7-59.6,8.2c-2.3,1.1-4.5,2.3-6.7,3.5
	c-15.1,8.7-27.9,20.6-38.9,33.3c-20.7,24-36.2,51.9-41.5,81.7c-0.5,2.8-0.9,5.6-1.2,8.4l14.6,0
	C96.2,1066.9,97.6,1054.4,103.5,1043.2L103.5,1043.2z M147.6,984.6c1.4-3.4,4-6.3,6.8-9c16.2-15.1,41-21.2,64.2-19.8
	c2.9,0.2,5.9,0.5,8.7,1.3c3.3,0.9,6.3,2.3,8.5,4.6c3.1,3.3,3.9,7.9,4.1,12.2c0.3,9.5-1.9,19.2-6.6,27.8c-2.8,5.2-6.8,6.8-12.8,4.2
	c-9.7-4.2-20.1-7.6-30.9-7.6c-10.9,0-35.3,8.4-41.8-3.3C146,991.9,146.2,988,147.6,984.6L147.6,984.6z"/>
<path class="st2" d="M116.7,1053.3c6.9-12.8,20.8-22.1,36.1-26.2c15.3-4.1,31.8-3.2,47.1,0.4c15,3.6,29.9,10.4,37.4,22.4
	c5.6,8.8,6.4,19.7,3.2,29.5l12.6,0c5.6-13.1,5.3-28.3-2.3-40.4c-9.3-14.6-27.5-23-45.7-27.3c-18.7-4.5-38.9-5.5-57.6-0.5
	c-18.7,4.9-35.7,16.3-44.1,32c-5.9,11.1-7.3,23.7-6.7,36l14.3,0C111.1,1070.3,112.4,1061.4,116.7,1053.3L116.7,1053.3z"/>
<path class="st3" d="M128.4,1078.7c-5.7-7.8-7.2-18.4-2.2-26.6c3.8-6.2,10.7-10.4,18.2-12.7c0.1,0,0.2-0.1,0.4-0.1
	c7.4-2.2,15.2-2.6,22.9-2.7c12.1-0.1,24.4,0.7,35.7,4.5c11.3,3.7,21.6,10.6,26.9,20.3c3,5.6,4.1,12.1,2.9,18.2h7.5
	c3.2-9.8,2.4-20.7-3.2-29.5c-7.6-12-22.5-18.8-37.4-22.4c-15.3-3.6-31.8-4.5-47.1-0.4c-15.3,4.1-29.3,13.3-36.1,26.2
	c-4.3,8.1-5.7,17-5.6,25.9l17.7,0C128.7,1079.1,128.6,1078.9,128.4,1078.7L128.4,1078.7z"/>
<path class="st1" d="M189.6,998.4c10.8,0,21.2,3.5,30.9,7.6c6,2.6,10,1,12.8-4.2c4.6-8.7,6.9-18.3,6.6-27.8c-0.2-4.3-1-8.9-4.1-12.2
	c-2.2-2.3-5.2-3.7-8.5-4.6c-2.8-0.7-5.8-1.1-8.7-1.3c-23.3-1.5-48.1,4.6-64.2,19.8c-2.8,2.6-5.4,5.6-6.8,9
	c-1.4,3.4-1.7,7.3,0.2,10.5C154.3,1006.8,178.7,998.4,189.6,998.4L189.6,998.4z M154.2,982.7c1.2-2.5,3.4-4.6,5.7-6.5
	c13.7-10.9,34.9-15.1,54.9-13.8c2.5,0.2,5.1,0.4,7.5,1c2.8,0.7,5.4,1.7,7.4,3.4c2.7,2.5,3.5,5.8,3.7,9c0.4,7-1.4,14-5.3,20.3
	c-2.3,3.8-5.8,4.9-11,3c-8.4-3.1-17.4-5.8-26.7-5.9c-9.4-0.1-30.2,5.8-36-2.8C152.9,988.1,153,985.2,154.2,982.7L154.2,982.7z"/>
<path class="st3" d="M190.4,993.2c9.3,0.1,18.3,2.7,26.7,5.9c5.2,1.9,8.6,0.9,11-3c3.9-6.3,5.7-13.3,5.3-20.3c-0.2-3.2-1-6.6-3.7-9
	c-1.9-1.7-4.5-2.8-7.4-3.4c-2.4-0.6-5-0.8-7.5-1c-20-1.3-41.3,2.9-54.9,13.8c-2.4,1.9-4.6,4-5.7,6.5s-1.3,5.3,0.3,7.7
	C160.2,999.1,181.1,993.2,190.4,993.2L190.4,993.2z M164.8,981.8c0.9-1.8,2.5-3.4,4.2-4.8c10-8,25.5-11.1,40.2-10.1
	c1.8,0.1,3.7,0.3,5.5,0.7c2.1,0.5,4,1.3,5.4,2.5c2,1.8,2.6,4.3,2.7,6.6c0.3,5.1-1,10.3-3.8,14.9c-1.7,2.8-4.2,3.6-8,2.2
	c-6.1-2.3-12.7-4.2-19.5-4.3c-6.9-0.1-22.1,4.3-26.3-2.1C163.8,985.7,163.9,983.6,164.8,981.8L164.8,981.8z"/>
<path class="st2" d="M191.3,989.5c6.8,0.1,13.4,2,19.5,4.3c3.8,1.4,6.3,0.6,8-2.2c2.8-4.6,4.2-9.8,3.8-14.9
	c-0.1-2.3-0.7-4.8-2.7-6.6c-1.4-1.3-3.3-2-5.4-2.5c-1.8-0.4-3.6-0.6-5.5-0.7c-14.6-1-30.2,2.1-40.2,10.1c-1.7,1.4-3.3,3-4.2,4.8
	c-0.9,1.8-1,3.9,0.2,5.7C169.2,993.8,184.5,989.4,191.3,989.5L191.3,989.5z"/>
<path class="st0" d="M139,1076.7c-4.5-6.2-5.7-14.5-1.7-21c3-4.9,8.5-8.2,14.3-10c0.1,0,0.2-0.1,0.3-0.1c5.8-1.7,12-2.1,18-2.1
	c9.5-0.1,19.2,0.6,28.1,3.5c8.9,2.9,17,8.4,21.1,16c2.7,5,3.4,11,1.8,16.4l12.2,0c1.1-6.1,0.1-12.6-2.9-18.2
	c-5.2-9.6-15.5-16.6-26.9-20.3s-23.6-4.6-35.7-4.5c-7.7,0.1-15.6,0.5-22.9,2.7c-0.1,0-0.2,0.1-0.4,0.1c-7.5,2.3-14.4,6.6-18.2,12.7
	c-5,8.3-3.5,18.8,2.2,26.6c0.2,0.2,0.3,0.4,0.5,0.6l12.3,0C140.4,1078.5,139.7,1077.6,139,1076.7L139,1076.7z"/>
<path class="st1" d="M151.9,1074.4c-3-4.1-3.8-9.7-1.2-14.1c2-3.3,5.7-5.5,9.6-6.7c0.1,0,0.1,0,0.2-0.1c3.9-1.1,8-1.4,12.1-1.4
	c6.4-0.1,12.9,0.4,18.9,2.4c6,2,11.4,5.6,14.2,10.7c2.4,4.4,2.5,10-0.3,14.2l15.5,0c1.6-5.4,0.9-11.4-1.8-16.4
	c-4.1-7.6-12.2-13-21.1-16c-8.9-2.9-18.6-3.6-28.1-3.5c-6.1,0.1-12.3,0.4-18,2.1c-0.1,0-0.2,0.1-0.3,0.1c-5.9,1.8-11.4,5.2-14.3,10
	c-4,6.5-2.7,14.8,1.7,21c0.7,0.9,1.4,1.8,2.1,2.6l16,0C155.1,1077.9,153.3,1076.3,151.9,1074.4L151.9,1074.4z"/>
<path class="st3" d="M205.8,1065.2c-2.8-5.1-8.2-8.7-14.2-10.7c-6-2-12.5-2.4-18.9-2.4c-4.1,0-8.2,0.3-12.1,1.4
	c-0.1,0-0.1,0-0.2,0.1c-3.9,1.2-7.6,3.5-9.6,6.7c-2.7,4.4-1.8,9.9,1.2,14.1c1.4,1.9,3.2,3.6,5.3,4.9l48.3,0.1
	C208.3,1075.1,208.2,1069.6,205.8,1065.2L205.8,1065.2z"/>
<path class="st1" d="M221.5,898.7c6.7,0.7,14.7,1.7,19.3-2.7c4.9-4.6,2.6-11.8,1-17.8c-6.1-23.4,4.7-49.5,26.5-64.4
	c8-5.5,17.5-9.6,23.7-16.7c6.2-7.1,7.4-18.6-0.9-23.6c-9.8-5.9-22.6,1.4-33.8,5.1c-21.1,7.1-45.6,0.6-63.2-11.6
	c-22.3-15.5-39.8-41.1-52.8-62.9c-8.8-14.7-15.4-30.5-18-46.9c-2-12.8,4-31.5-7.4-41.5c-7.4-6.5-19.1-9.1-29.3-7.3
	c-13.7,2.5-25,11.6-31.9,22.2c-7,10.6-10.3,22.6-13.3,34.5c-17.7,70.8-26.2,143.3-25.6,215.6c0.3,44.5,4.1,88.9,11.3,132.8
	c1.6,9.8,8.9,29,25.1,22.2c7.8-3.3,9.3-12.1,12-18.4c12-28.2,29.1-55.3,52.2-77.8C142.9,913.5,182.1,894.7,221.5,898.7L221.5,898.7z
	 M68.1,989.8c-2.4,5.3-3.7,12.8-10.6,15.6c-14.3,5.7-20.8-10.5-22.2-18.8c-6.4-37.2-9.8-74.8-10.2-112.4
	c-0.6-61.2,6.8-122.5,22.2-182.4c2.6-10.1,5.5-20.3,11.7-29.2c6.2-9,16.1-16.6,28.2-18.7c9.1-1.6,19.4,0.7,26,6.2
	c10.1,8.5,4.9,24.3,6.7,35.2c2.3,13.9,8.2,27.3,16,39.7c11.6,18.5,27,40.2,46.9,53.3c15.6,10.3,37.3,15.9,55.9,9.9
	c9.9-3.2,21.2-9.3,29.9-4.3c7.3,4.3,6.3,14,0.8,20c-5.5,6-13.8,9.5-20.9,14.1c-19.3,12.6-28.8,34.7-23.3,54.5
	c1.4,5.1,3.5,11.2-0.8,15.1c-4.1,3.7-11.1,2.9-17.1,2.3c-34.9-3.4-69.5,12.4-93,34.3C93.7,943,78.6,966,68.1,989.8L68.1,989.8z"/>
<path class="st3" d="M207.2,889.7c6,0.6,13,1.4,17.1-2.3c4.3-3.9,2.2-10,0.8-15.1c-5.5-19.8,4-41.9,23.3-54.5
	c7.1-4.6,15.5-8.1,20.9-14.1c5.5-6,6.5-15.7-0.8-20c-8.7-5-20,1.1-29.9,4.3c-18.7,6-40.4,0.4-55.9-9.9
	c-19.8-13.1-35.3-34.8-46.9-53.3c-7.8-12.4-13.7-25.8-16-39.7c-1.8-10.9,3.5-26.6-6.7-35.2c-6.5-5.5-16.9-7.7-26-6.2
	c-12.1,2.1-22.1,9.8-28.2,18.7c-6.2,9-9.1,19.1-11.7,29.2C31.9,751.7,24.5,813,25.1,874.2c0.4,37.6,3.8,75.2,10.2,112.4
	c1.4,8.3,7.9,24.5,22.2,18.8c6.9-2.8,8.2-10.2,10.6-15.6C78.7,966,93.8,943,114.2,924C137.7,902.1,172.3,886.3,207.2,889.7
	L207.2,889.7z M104.9,921.1c-13.5,13.6-25,28.7-34,44.9c-3.4,6.1-7.9,13.3-15.7,13.9c-5.3,0.4-10.2-2.6-13-6.6
	c-2.7-3.9-3.6-8.6-4.4-13.1C21.9,868.6,37,774.1,69.1,685.3c2.5-7,7-15.3,15.4-15.7c8.5-0.5,13.9,7.3,17.2,14.1
	c12.2,25.2,21.9,51.7,39.5,74.3c17.7,22.6,45.5,41.4,77.2,41.6c3.5,0,7.2-0.2,10.5,0.7c3.4,0.9,6.5,3.3,6.8,6.3c0.2,2.1-0.9,4-2,5.9
	c-9.8,16.8-19.5,33.7-29.3,50.5c-6.5,11.2-17.7,15.9-31.3,18.4c-8.5,1.5-17.6,2.7-25.3,6.4c-8,3.8-14.8,9.1-21.7,14.3
	C118.5,907.9,111.5,914.4,104.9,921.1L104.9,921.1z"/>
<path class="st2" d="M147.8,887.9c7.8-3.7,16.8-4.9,25.3-6.4c13.7-2.5,24.8-7.2,31.3-18.4c9.8-16.8,19.5-33.7,29.3-50.5
	c1.1-1.8,2.2-3.8,2-5.9c-0.3-3.1-3.4-5.4-6.8-6.3c-3.4-0.9-7-0.7-10.5-0.7c-31.6-0.2-59.5-19-77.2-41.6
	c-17.7-22.6-27.3-49.1-39.5-74.3c-3.3-6.8-8.7-14.6-17.2-14.1c-8.4,0.5-12.9,8.7-15.4,15.7C37,774.1,21.9,868.6,37.9,960.2
	c0.8,4.5,1.7,9.2,4.4,13.1s7.7,7,13,6.6c7.8-0.6,12.2-7.8,15.7-13.9c9-16.2,20.5-31.3,34-44.9c6.6-6.6,13.6-13.1,21.2-18.9
	C132.9,897,139.7,891.7,147.8,887.9L147.8,887.9z M45.9,830c3.3-34.6,9.9-69,19.8-102.7c2.9-9.9,6.1-19.7,11.3-28.9
	c2.2-4,6.4-8.4,11.3-7.2c3.1,0.8,4.8,3.5,6.2,6c10.4,19.3,19.1,39.4,32,57.6c12.9,18.1,30.8,34.5,54,41.6c2.9,0.9,6,1.7,9,2.5
	c0.5,0.1,1,0.2,1.5,0.2c6,0.9,12.2,1.5,17.8,3.7c5.6,2.2,10.5,6.3,11.5,11.6c1.5,8.2-7.5,15.6-16.9,17.1c-9.4,1.5-18.9-1.1-28-3.5
	c-17.5-4.6-35.6-8.2-54-8c-18.4,0.3-37.2,4.7-51.4,14.9c-3.2,2.3-6.2,4.9-10,6.3c-3.8,1.5-8.7,1.5-11.5-1.1
	C45.4,837.5,45.5,833.5,45.9,830L45.9,830z M109,903.5c-9,11.3-17,23.6-29.2,32.5c-4.2,3-8.9,5.6-14.1,6.9s-11,1.1-15.7-1.2
	c-3.4-1.7-6.1-4.4-8-7.4c-3.5-5.8-3.9-12.7-3.8-19.3c0.4-18.7,5-37.9,17.2-53.4c13-16.6,34-27.8,56.5-32.2
	c21.9-4.3,44.9-2.5,66.2,3.4c0.6,0.2,1.1,0.3,1.7,0.5c8.8,2.5,18.4,6.7,20.8,14.5c2.2,6.8-2.3,14.3-8.8,18.6
	c-6.6,4.3-14.9,5.9-23,6.9c-11.9,1.4-24.9,3.1-35.3,9C123.7,887.7,115.7,895.2,109,903.5L109,903.5z"/>
<path class="st1" d="M191.8,866.3c6.6-4.3,11-11.8,8.8-18.6c-2.5-7.8-12-12-20.8-14.5c-0.6-0.2-1.1-0.3-1.7-0.5
	c-21.3-5.9-44.3-7.7-66.2-3.4c-22.4,4.5-43.5,15.7-56.5,32.2c-12.2,15.5-16.8,34.7-17.2,53.4c-0.2,6.6,0.3,13.5,3.8,19.3
	c1.8,3,4.5,5.7,8,7.4c4.7,2.3,10.5,2.4,15.7,1.2c5.2-1.3,9.9-3.9,14.1-6.9c12.2-8.9,20.1-21.1,29.2-32.5
	c6.7-8.3,14.6-15.7,24.5-21.3c10.5-5.9,23.4-7.6,35.3-9C176.9,872.2,185.2,870.5,191.8,866.3L191.8,866.3z M127.3,878.7
	c-7.7,4.4-14,10.2-19.3,16.8c-7.1,8.9-13.4,18.6-23,25.6c-3.3,2.4-7,4.5-11.1,5.5c-4.1,1-8.7,0.9-12.4-0.9c-2.7-1.3-4.8-3.4-6.3-5.8
	c-2.8-4.6-3.1-10-3-15.2c0.3-14.8,3.9-29.9,13.6-42.2c10.3-13.1,26.9-21.9,44.6-25.4c17.3-3.4,35.4-2,52.2,2.7
	c0.4,0.1,0.9,0.2,1.3,0.4c7,2,14.5,5.3,16.4,11.4c1.7,5.4-1.8,11.3-7,14.7c-5.2,3.4-11.7,4.7-18.1,5.5
	C145.8,872.7,135.6,874,127.3,878.7z"/>
<path class="st3" d="M173.4,866.1c5.2-3.4,8.7-9.3,7-14.7c-1.9-6.1-9.5-9.4-16.4-11.4c-0.4-0.1-0.9-0.2-1.3-0.4
	c-16.8-4.7-35-6.1-52.2-2.7c-17.7,3.5-34.3,12.4-44.6,25.4c-9.6,12.3-13.2,27.4-13.6,42.2c-0.1,5.2,0.2,10.6,3,15.2
	c1.4,2.4,3.6,4.5,6.3,5.8c3.7,1.8,8.3,1.9,12.4,0.9c4.1-1,7.8-3.1,11.1-5.5c9.6-7,15.9-16.7,23-25.6c5.3-6.6,11.6-12.4,19.3-16.8
	c8.3-4.7,18.5-6,27.9-7.1C161.6,870.8,168.2,869.5,173.4,866.1L173.4,866.1z M153.4,865.7c-3.7,2.4-8.3,3.3-12.8,3.8
	c-6.6,0.8-13.8,1.7-19.6,5c-5.4,3.1-9.9,7.2-13.6,11.8c-5,6.3-9.4,13.1-16.2,18c-2.3,1.7-4.9,3.1-7.8,3.8c-2.9,0.7-6.1,0.6-8.7-0.6
	c-1.9-0.9-3.4-2.4-4.4-4.1c-1.9-3.2-2.2-7-2.1-10.7c0.2-10.4,2.8-21.1,9.5-29.7c7.2-9.2,18.9-15.4,31.4-17.9
	c12.1-2.4,25-1.4,36.8,1.9c0.3,0.1,0.6,0.2,0.9,0.3c4.9,1.4,10.2,3.7,11.6,8.1C159.5,859.1,157.1,863.3,153.4,865.7L153.4,865.7z"/>
<path class="st2" d="M146.7,847.3c-0.3-0.1-0.6-0.2-0.9-0.3c-11.8-3.3-24.6-4.3-36.8-1.9c-12.5,2.5-24.2,8.7-31.4,17.9
	c-6.8,8.6-9.3,19.3-9.5,29.7c-0.1,3.7,0.1,7.5,2.1,10.7c1,1.7,2.5,3.2,4.4,4.1c2.6,1.3,5.8,1.4,8.7,0.6c2.9-0.7,5.5-2.2,7.8-3.8
	c6.7-4.9,11.2-11.7,16.2-18c3.7-4.6,8.1-8.7,13.6-11.8c5.8-3.3,13-4.2,19.6-5c4.5-0.5,9.1-1.5,12.8-3.8c3.7-2.4,6.1-6.5,4.9-10.3
	C156.9,851,151.6,848.7,146.7,847.3L146.7,847.3z M133.4,866.5c-2.1,1.4-4.8,1.9-7.5,2.2c-3.9,0.5-8.1,1-11.5,2.9
	c-3.2,1.8-5.8,4.2-7.9,6.9c-2.9,3.7-5.5,7.7-9.5,10.5c-1.4,1-2.9,1.8-4.6,2.2c-1.7,0.4-3.6,0.4-5.1-0.4c-1.1-0.5-2-1.4-2.6-2.4
	c-1.1-1.9-1.3-4.1-1.2-6.3c0.1-6.1,1.6-12.3,5.6-17.4c4.2-5.4,11.1-9,18.3-10.5c7.1-1.4,14.6-0.8,21.5,1.1c0.2,0.1,0.4,0.1,0.5,0.2
	c2.9,0.8,6,2.2,6.8,4.7C137,862.7,135.5,865.1,133.4,866.5L133.4,866.5z"/>
<path class="st1" d="M129.5,855.8c-0.2-0.1-0.4-0.1-0.5-0.2c-6.9-1.9-14.4-2.5-21.5-1.1c-7.3,1.4-14.1,5.1-18.3,10.5
	c-4,5-5.4,11.3-5.6,17.4c-0.1,2.1,0.1,4.4,1.2,6.3c0.6,1,1.5,1.9,2.6,2.4c1.5,0.7,3.4,0.8,5.1,0.4c1.7-0.4,3.2-1.3,4.6-2.2
	c3.9-2.9,6.5-6.9,9.5-10.5c2.2-2.7,4.8-5.1,7.9-6.9c3.4-1.9,7.6-2.5,11.5-2.9c2.6-0.3,5.3-0.9,7.5-2.2c2.1-1.4,3.6-3.8,2.9-6
	C135.5,858,132.4,856.6,129.5,855.8L129.5,855.8z"/>
<path class="st0" d="M59.8,841.2c3.8-1.5,6.8-4.1,10-6.3c14.2-10.2,33-14.7,51.4-14.9c18.4-0.3,36.5,3.4,54,8c9.1,2.4,18.6,5,28,3.5
	c9.4-1.5,18.4-8.9,16.9-17.1c-0.9-5.3-5.9-9.4-11.5-11.6c-5.6-2.2-11.8-2.8-17.8-3.7c-0.5-0.1-1-0.2-1.5-0.2c-3-0.8-6-1.6-9-2.5
	c-23.1-7.2-41.1-23.5-54-41.6c-12.9-18.1-21.6-38.3-32-57.6c-1.4-2.5-3.1-5.3-6.2-6c-4.9-1.2-9.1,3.2-11.3,7.2
	c-5.2,9.1-8.4,19-11.3,28.9C55.8,761,49.1,795.4,45.8,830c-0.3,3.6-0.5,7.6,2.4,10.1C51.1,842.7,56,842.7,59.8,841.2L59.8,841.2z
	 M82.3,716.7c0.5-1.7,1.2-3.5,2.7-4.6c0.6-0.4,1.2-0.6,1.8-0.8c1.9-0.4,4.1,0.1,5.8,1.1c2.2,1.4,3.6,3.5,4.8,5.7
	c7.5,13,12.3,27.1,20.5,39.7c16.7,25.4,46.5,42.5,78.1,52.6c2.5,0.8,5.1,1.6,7,3.2c1.9,1.6,2.8,4.4,1.3,6.3
	c-1.7,2.2-5.4,2.4-8.4,1.9c-7.3-1.1-13.9-4.2-20.8-6.7c-30.2-10.8-66.4-8.5-94.7,6.1c-6.8,3.5-18.7,9.4-22.6-0.4
	c-1.2-3-0.9-6.4-0.4-9.6C61.9,779.1,72.1,747.8,82.3,716.7L82.3,716.7z"/>
<path class="st2" d="M80.6,821.3c28.3-14.6,64.5-16.9,94.7-6.1c6.8,2.5,13.5,5.6,20.8,6.7c3,0.5,6.7,0.3,8.4-1.9
	c1.5-1.9,0.6-4.7-1.3-6.3c-1.9-1.6-4.5-2.4-7-3.2c-31.6-10.1-61.4-27.2-78.1-52.6c-8.3-12.6-13-26.7-20.5-39.7
	c-1.2-2.1-2.6-4.3-4.8-5.7c-1.6-1-3.9-1.5-5.8-1.1c-0.7,0.2-1.3,0.4-1.8,0.8c-1.6,1.1-2.2,2.9-2.7,4.6
	c-10.2,31.1-20.4,62.4-24.7,94.5c-0.4,3.2-0.8,6.6,0.4,9.6C62,830.6,73.8,824.8,80.6,821.3L80.6,821.3z M73.2,769.8
	c2.8-10.7,6.4-21.4,11.7-31.5c1.1-2.2,2.6-4.6,5.3-5.4c0.2-0.1,0.3-0.1,0.5-0.1c2.6-0.5,5.5,0.8,7.1,2.7c1.7,2,2.5,4.5,3.3,7
	c6.2,18.4,19.8,34.8,38,45.7c2,1.2,4.2,2.4,5.6,4.2c1.4,1.7,2,4.2,0.7,6.1c-1.1,1.6-3.4,2.3-5.6,2.4c-2.2,0-4.3-0.5-6.3-1
	c-15.3-3.4-32-1-46.2,5.2c-2.6,1.1-5.1,2.4-7.9,3c-2.8,0.6-5.9,0.6-8.3-0.8c-2.4-1.4-3.7-4-3.9-6.5
	C66.1,791.1,70.7,779.2,73.2,769.8L73.2,769.8z"/>
<path class="st1" d="M70.9,807.3c2.4,1.4,5.5,1.4,8.3,0.8c2.8-0.6,5.3-1.9,7.9-3c14.2-6.3,30.9-8.6,46.2-5.2c2.1,0.5,4.2,1,6.3,1
	c2.2,0,4.5-0.8,5.6-2.4c1.3-1.8,0.7-4.3-0.7-6.1c-1.4-1.7-3.6-2.9-5.6-4.2c-18.1-10.9-31.8-27.3-38-45.7c-0.8-2.4-1.5-4.9-3.3-7
	c-1.6-1.9-4.5-3.2-7.1-2.7c-0.2,0-0.3,0.1-0.5,0.1c-2.6,0.8-4.1,3.2-5.3,5.4c-5.2,10.1-8.8,20.7-11.7,31.5c-2.5,9.4-7.1,21.3-6.2,31
	C67.2,803.3,68.5,805.9,70.9,807.3L70.9,807.3z M85.6,756.4c0.4-1.1,0.8-2.3,1.7-3.2c0.8-0.7,1.8-1.1,3-1.2c1.7-0.2,3.5,0.3,4.8,1.2
	c2.3,1.5,3.6,3.8,4.9,5.9c4.7,7.9,10.3,15.3,16.7,22.1c1.3,1.4,2.8,3.1,2.1,4.9c-0.5,1.3-2,2.1-3.5,2.7c-7.8,3.3-30.2,10.9-35.9,1.3
	c-1.3-2.1-0.9-4.6-0.5-6.9C80.5,774.2,82.7,765.2,85.6,756.4L85.6,756.4z"/>
<path class="st3" d="M79.4,790.1c5.8,9.6,28.1,1.9,35.9-1.3c1.4-0.6,3-1.4,3.5-2.7c0.7-1.7-0.8-3.5-2.1-4.9
	c-6.5-6.8-12.1-14.2-16.7-22.1c-1.3-2.2-2.6-4.5-4.9-5.9c-1.3-0.9-3.2-1.3-4.8-1.2c-1.1,0.1-2.2,0.5-3,1.2c-0.9,0.9-1.3,2-1.7,3.2
	c-2.9,8.8-5.1,17.7-6.7,26.8C78.4,785.5,78.1,788,79.4,790.1L79.4,790.1z M89.3,766c0.2-0.6,0.5-1.3,1-1.8c0.5-0.4,1-0.6,1.7-0.7
	c0.9-0.1,2,0.2,2.7,0.7c1.3,0.8,2,2.1,2.8,3.4c2.6,4.5,5.8,8.7,9.5,12.6c0.7,0.8,1.6,1.8,1.2,2.8c-0.3,0.7-1.2,1.2-2,1.5
	c-4.5,1.9-17.1,6.2-20.4,0.7c-0.7-1.2-0.5-2.6-0.3-3.9C86.4,776.1,87.7,771,89.3,766L89.3,766z"/>
<path class="st2" d="M85.8,785.2c3.3,5.4,16,1.1,20.4-0.7c0.8-0.3,1.7-0.8,2-1.5c0.4-1-0.5-2-1.2-2.8c-3.7-3.9-6.9-8.1-9.5-12.6
	c-0.7-1.2-1.5-2.5-2.8-3.4c-0.8-0.5-1.8-0.8-2.7-0.7c-0.6,0.1-1.2,0.3-1.7,0.7c-0.5,0.5-0.8,1.2-1,1.8c-1.6,5-2.9,10.1-3.8,15.2
	C85.3,782.6,85.1,784,85.8,785.2L85.8,785.2z"/>
<path class="st2" d="M111.7,516.5c-20.4-5.7-42.3-6.1-62.9-11.4C28.2,499.9,7.7,488,3.3,469.7c-3.4-13.9,3.1-29.9-4.4-42.2l0.1,55.9
	c7.7,15.5,23.2,27.9,41.4,34c22.5,7.6,47.9,6.5,69.8,15.8c12,5.1,23.1,14.7,22.8,26.4c-0.3,12.3-13.8,22.2-27.8,24.2
	s-28.2-2.2-40.9-7.5c-12.8-5.3-25-11.7-38.7-14.8c-7.4-1.6-15.3-2.2-22.6-0.3c-1.3,0.3-2.5,0.8-3.8,1.3l0,25.4
	c1.3-5,3.1-9.6,7.6-12.7c5.1-3.5,12.3-3.8,18.6-2.3c6.2,1.5,11.7,4.7,17.2,7.6c14,7.5,29,14.1,45.3,16.8c16.2,2.6,34,1,47.9-7
	C176.4,567.1,148,526.6,111.7,516.5L111.7,516.5z"/>
<path class="st3" d="M110.1,533.3c-21.8-9.4-47.3-8.2-69.8-15.8c-18.2-6.1-33.7-18.5-41.4-34l0.1,28.2c5.3,5.9,12.1,12.2,10.9,19.8
	c-0.9,5.9-5.6,11-10.9,15l0,16.1c1.2-0.5,2.5-0.9,3.8-1.3c7.3-1.9,15.2-1.3,22.6,0.3c13.7,3,26,9.5,38.7,14.8
	c12.8,5.3,26.9,9.5,40.9,7.5s27.5-11.9,27.8-24.2C133.2,548,122.1,538.4,110.1,533.3L110.1,533.3z M115.4,567.2
	c-5,4.6-12.9,5.9-20.2,5.8c-12.8-0.1-25.3-3.6-37.1-7.8c-10.1-3.6-20-7.7-28.7-13.4c-2.5-1.6-6.1-4.5-8.2-7.7
	c-2.3-3.4-2.9-7.1,1.3-9.9c1.7-1.2,3.8-1.7,5.9-2.2c10-2.2,20.4-1.8,30.6-1c15.8,1.4,31.8,4,46,10c5.2,2.2,10.5,5.1,13.1,9.6
	C121.3,556,120.1,562.9,115.4,567.2L115.4,567.2z"/>
<path class="st2" d="M-1,511.6l0,16.7c0.6,1.3,1,2.7,1,4.2c0,1.5-0.3,2.9-1,4.2l0,9.7c5.3-4.1,10-9.1,10.9-15
	C11.1,523.9,4.3,517.5-1,511.6L-1,511.6z"/>
<path class="st2" d="M115.4,567.2c4.7-4.3,5.8-11.2,2.7-16.5c-2.7-4.5-7.9-7.4-13.1-9.6c-14.3-6-30.2-8.7-46-10
	c-10.2-0.9-20.6-1.2-30.6,1c-2.1,0.5-4.2,1-5.9,2.2c-4.2,2.8-3.6,6.5-1.3,9.9c2.1,3.1,5.7,6,8.2,7.7c8.7,5.6,18.6,9.8,28.7,13.4
	c11.8,4.2,24.3,7.6,37.1,7.8C102.5,573.1,110.4,571.9,115.4,567.2L115.4,567.2z M99.4,561.5c-3.2,3-8.3,3.8-12.9,3.7
	c-8.2-0.1-16.2-2.3-23.8-5c-6.5-2.3-12.8-5-18.5-8.6c-1.6-1-3.9-2.9-5.3-4.9c-1.5-2.2-1.9-4.6,0.8-6.4c1.1-0.7,2.5-1.1,3.8-1.4
	c6.4-1.4,13.1-1.2,19.6-0.6c10.2,0.9,20.4,2.5,29.5,6.4c3.4,1.4,6.7,3.3,8.4,6.1C103.1,554.3,102.4,558.7,99.4,561.5z"/>
<path class="st1" d="M92.7,544.8c-9.2-3.9-19.4-5.6-29.5-6.4c-6.5-0.6-13.2-0.8-19.6,0.6c-1.3,0.3-2.7,0.7-3.8,1.4
	c-2.7,1.8-2.3,4.2-0.8,6.4c1.4,2,3.7,3.9,5.3,4.9c5.6,3.6,12,6.3,18.5,8.6c7.6,2.7,15.6,4.9,23.8,5c4.7,0.1,9.7-0.8,12.9-3.7
	c3-2.8,3.7-7.2,1.7-10.6C99.4,548,96,546.2,92.7,544.8z"/>
<path class="st0" d="M0,532.5c0-1.5-0.4-2.9-1-4.2l0,8.4C-0.3,535.4,0,534,0,532.5z"/>
<path class="st1" d="M337.7,391.8c-11.1-6.3-25.1-8.8-34.4-16.9c-6.4-5.6-9.9-13.2-15.4-19.4c-23.5-26.2-76.5-17-96.8,8.3
	c-4.6,5.7-7.9,12.2-12.5,17.8c-4.7,5.8-10.7,10.6-16,16c-27.2,27.4-34.4,68.5-17.7,101.3c5.5,10.8,13.5,20.8,23.9,28.5
	c2.6,1.9,5.2,3.6,8.1,5.2c15.1,8.4,33.5,11.7,51.5,11c18-0.7,35.6-5.3,52.1-11.6c21.7-8.4,42.1-20.2,57.4-36
	c15.3-15.8,25.4-35.9,25.8-56.5C363.8,421.1,355.3,401.8,337.7,391.8L337.7,391.8z M330.7,491.6c-14.1,14.6-32.8,25.4-52.8,33.1
	c-15.2,5.9-31.4,10.1-47.9,10.7s-33.5-2.4-47.3-10.1c-2.6-1.4-5.1-3.1-7.4-4.8c-9.5-7-16.9-16.2-21.9-26.2
	c-15.3-30.2-8.7-68,16.3-93.2c4.9-4.9,10.4-9.4,14.7-14.7c4.3-5.2,7.3-11.1,11.5-16.4c18.6-23.2,67.4-31.7,89-7.6
	c5.1,5.7,8.3,12.7,14.2,17.9c8.6,7.5,21.5,9.7,31.7,15.5c16.2,9.2,24,26.9,23.7,43.8C354.1,458.6,344.8,477.1,330.7,491.6
	L330.7,491.6z"/>
<path class="st2" d="M330.6,395.9c-10.2-5.8-23.1-8.1-31.7-15.5c-5.9-5.1-9.1-12.1-14.2-17.9c-21.6-24.1-70.4-15.6-89,7.6
	c-4.2,5.3-7.2,11.2-11.5,16.4c-4.3,5.3-9.8,9.8-14.7,14.7c-25,25.2-31.6,63-16.3,93.2c5.1,10,12.4,19.1,21.9,26.2
	c2.3,1.7,4.8,3.3,7.4,4.8c13.9,7.7,30.8,10.8,47.3,10.1c16.5-0.6,32.7-4.8,47.9-10.7c20-7.7,38.7-18.6,52.8-33.1
	c14.1-14.6,23.4-33,23.7-51.9C354.6,422.8,346.8,405.1,330.6,395.9L330.6,395.9z M321.3,485.8c-12.5,12.9-29,22.4-46.6,29.3
	c-13.4,5.2-27.7,8.9-42.3,9.4c-14.6,0.6-29.5-2.1-41.8-9c-2.3-1.3-4.5-2.7-6.6-4.2c-8.4-6.2-14.9-14.3-19.4-23.1
	c-13.5-26.6-7.7-60,14.4-82.3c4.3-4.3,9.2-8.3,13-13c3.8-4.6,6.4-9.8,10.1-14.5c16.4-20.5,59.5-28,78.6-6.7
	c4.5,5,7.3,11.2,12.5,15.8c7.6,6.6,19,8.6,27.9,13.7c14.3,8.1,21.2,23.8,21,38.7C341.9,456.7,333.7,473,321.3,485.8L321.3,485.8z"/>
<path class="st3" d="M321.2,401.3c-9-5.1-20.4-7.1-27.9-13.7c-5.2-4.5-8-10.7-12.5-15.8c-19.1-21.2-62.1-13.8-78.6,6.7
	c-3.7,4.6-6.4,9.9-10.1,14.5c-3.8,4.7-8.7,8.6-13,13c-22.1,22.2-27.9,55.6-14.4,82.3c4.5,8.8,11,16.9,19.4,23.1
	c2.1,1.5,4.3,2.9,6.6,4.2c12.2,6.8,27.2,9.5,41.8,9c14.6-0.6,28.9-4.3,42.3-9.4c17.7-6.8,34.2-16.4,46.6-29.3
	c12.5-12.9,20.6-29.1,20.9-45.9C342.4,425,335.5,409.4,321.2,401.3L321.2,401.3z M275.6,509.2c-27.7,9.9-61.9,4.8-83.2-13.2
	c-2.7-2.3-5.2-4.8-7.5-7.5c-6.3-7.6-10.7-16.4-12.8-25.6c-1.4-6.3-1.8-12.8-1.1-19.2c1.1-9,4.7-19.2,10.7-26.7
	c2-2.6,4.2-5.1,6.4-7.5c4.5-4.9,9.4-9.5,14.7-13.8c10.6-8.7,22.7-16,35.8-21.6c4.3-1.8,9.1-3.5,13.7-2.4c5.9,1.4,9.1,6.8,10.6,11.9
	c1.5,5.1,2.1,10.6,5.7,14.9c4.2,5.1,11.7,7.3,18.8,8.5c7.1,1.2,14.6,1.7,21.1,4.5c7.5,3.3,12.9,9.4,15.7,16.3
	c2.8,6.8,3.2,14.3,2.3,21.5C323.5,475.2,303.3,499.3,275.6,509.2L275.6,509.2z"/>
<path class="st0" d="M324.3,427.8c-2.8-6.8-8.2-13-15.7-16.3c-6.5-2.8-13.9-3.3-21.1-4.5c-7.1-1.2-14.6-3.4-18.8-8.5
	c-3.5-4.3-4.1-9.8-5.7-14.9s-4.7-10.5-10.6-11.9c-4.6-1.1-9.4,0.6-13.7,2.4c-13.1,5.6-25.2,12.9-35.8,21.6
	c-5.3,4.3-10.2,8.9-14.7,13.8c-2.3,2.4-4.4,5-6.4,7.5c-5.9,7.5-9.6,17.7-10.7,26.7c-0.7,6.4-0.4,12.9,1.1,19.2
	c2.1,9.2,6.4,18,12.8,25.6c2.2,2.7,4.7,5.2,7.5,7.5c21.3,18,55.4,23.1,83.2,13.2c27.7-9.9,47.8-34,51-59.8
	C327.5,442.1,327.2,434.7,324.3,427.8L324.3,427.8z M187.4,465.5c-1.7-0.7-3.2-1.6-4.4-2.8c-3.5-3.4-4.2-8.4-3.8-13
	c0.6-8.4,4-16.5,8.4-24.1c5-8.5,11.6-16.5,20.1-22.7c6.6-4.8,14.5-8.4,23-9.9c7.2-1.3,17.7-2,23.2,3c3,2.7,3.8,6.7,3.8,10.5
	c-0.1,6.9-2.7,13.7-6,19.9c-6.5,12.4-16.1,23.8-28.9,31.8c-7,4.4-15,7.7-23.5,8.5C195.2,467.2,191,466.9,187.4,465.5L187.4,465.5z
	 M315,457.4c-5.6,21.6-25.7,40.1-50.3,45.9c-24.5,5.7-52.5-1.8-68.3-18.9c-0.1-0.1-0.2-0.2-0.2-0.3c-2.5-2.7-4.6-6.7-1.9-9.4
	c1.6-1.6,4.4-1.8,6.8-2.1c14.7-1.5,28.2-8.6,38.5-18c10.2-9.4,17.4-20.9,23.3-32.8c1.2-2.5,2.4-5.1,4.5-7.2
	c5.7-5.7,16.3-2.9,23.2-0.8c8.1,2.5,15.5,6.8,20.2,13.1C317.1,435.8,317.7,447.1,315,457.4L315,457.4z"/>
<path class="st2" d="M222.7,458.3c12.7-8,22.3-19.4,28.9-31.8c3.3-6.3,5.9-13,6-19.9c0.1-3.8-0.8-7.8-3.8-10.5c-5.5-5-16-4.3-23.2-3
	c-8.4,1.5-16.3,5.1-23,9.9c-8.5,6.1-15.1,14.1-20.1,22.7c-4.4,7.5-7.7,15.7-8.4,24.1c-0.3,4.6,0.3,9.6,3.8,13
	c1.2,1.2,2.7,2.1,4.4,2.8c3.5,1.4,7.8,1.7,11.7,1.4C207.7,466.1,215.7,462.7,222.7,458.3z M193.8,458c-1.3-0.5-2.5-1.3-3.5-2.2
	c-2.8-2.7-3.3-6.7-3-10.3c0.5-6.7,3.1-13.1,6.6-19.1c4-6.8,9.2-13.1,15.9-18c5.3-3.8,11.5-6.6,18.2-7.9c5.7-1,14-1.6,18.4,2.4
	c2.4,2.2,3,5.3,3,8.3c-0.1,5.5-2.2,10.8-4.8,15.8c-5.2,9.8-12.8,18.9-22.9,25.2c-5.5,3.5-11.9,6.1-18.7,6.8
	C200,459.4,196.6,459.1,193.8,458L193.8,458z"/>
<path class="st3" d="M221.8,452.3c10.1-6.3,17.7-15.4,22.9-25.2c2.6-5,4.7-10.3,4.8-15.8c0-3-0.6-6.2-3-8.3
	c-4.4-4-12.7-3.4-18.4-2.4c-6.7,1.2-13,4.1-18.2,7.9c-6.7,4.9-11.9,11.2-15.9,18c-3.5,6-6.1,12.4-6.6,19.1c-0.3,3.7,0.2,7.6,3,10.3
	c1,1,2.2,1.7,3.5,2.2c2.8,1.1,6.2,1.4,9.3,1.1C209.9,458.5,216.3,455.8,221.8,452.3L221.8,452.3z M203.9,434.8
	c0.3-4.3,2-8.5,4.3-12.3c2.6-4.4,5.9-8.5,10.3-11.6c3.4-2.5,7.5-4.3,11.8-5.1c3.7-0.7,9.1-1,11.9,1.5c1.5,1.4,2,3.5,1.9,5.4
	c-0.1,3.6-1.4,7-3.1,10.2c-3.4,6.4-8.3,12.2-14.8,16.3c-3.6,2.2-7.7,4-12.1,4.4c-2,0.2-4.2,0-6-0.7c-0.9-0.3-1.6-0.8-2.3-1.4
	C204.1,439.7,203.8,437.2,203.9,434.8L203.9,434.8z"/>
<path class="st1" d="M214.2,443.6c4.4-0.4,8.5-2.1,12.1-4.4c6.5-4.1,11.5-10,14.8-16.3c1.7-3.2,3-6.7,3.1-10.2c0-1.9-0.4-4-1.9-5.4
	c-2.8-2.6-8.2-2.2-11.9-1.5c-4.3,0.8-8.4,2.6-11.8,5.1c-4.4,3.1-7.7,7.3-10.3,11.6c-2.3,3.9-4,8-4.3,12.3c-0.2,2.4,0.1,4.9,2,6.7
	c0.6,0.6,1.4,1.1,2.3,1.4C210,443.7,212.1,443.8,214.2,443.6L214.2,443.6z M214.4,423.2c1.6-2.7,3.6-5.2,6.3-7.1
	c2.1-1.5,4.5-2.6,7.2-3.1c2.2-0.4,5.5-0.6,7.2,0.9c0.9,0.9,1.2,2.1,1.2,3.3c0,2.2-0.9,4.3-1.9,6.2c-2,3.9-5,7.4-9,9.9
	c-2.2,1.4-4.7,2.4-7.3,2.7c-1.2,0.1-2.6,0-3.7-0.4c-0.5-0.2-1-0.5-1.4-0.9c-1.1-1.1-1.3-2.6-1.2-4.1
	C212,428.1,213,425.6,214.4,423.2L214.4,423.2z"/>
<path class="st2" d="M213,434.8c0.4,0.4,0.9,0.7,1.4,0.9c1.1,0.4,2.4,0.5,3.7,0.4c2.7-0.2,5.2-1.3,7.3-2.7c4-2.5,7-6.1,9-9.9
	c1-2,1.8-4.1,1.9-6.2c0-1.2-0.2-2.4-1.2-3.3c-1.7-1.6-5-1.4-7.2-0.9c-2.6,0.5-5.1,1.6-7.2,3.1c-2.7,1.9-4.7,4.4-6.3,7.1
	c-1.4,2.3-2.4,4.9-2.6,7.5C211.7,432.2,211.9,433.7,213,434.8L213,434.8z"/>
<path class="st2" d="M310.6,427c-4.7-6.3-12.1-10.7-20.2-13.1c-6.9-2.1-17.6-4.9-23.2,0.8c-2.1,2.1-3.3,4.7-4.5,7.2
	c-5.8,11.9-13,23.4-23.3,32.8c-10.2,9.4-23.7,16.5-38.5,18c-2.4,0.2-5.2,0.5-6.8,2.1c-2.7,2.6-0.5,6.7,1.9,9.4
	c0.1,0.1,0.2,0.2,0.2,0.3c15.8,17,43.7,24.6,68.3,18.9c24.7-5.7,44.7-24.3,50.3-45.9C317.7,447.1,317.1,435.8,310.6,427L310.6,427z
	 M305.6,461.4c-4.8,18.2-21.7,33.8-42.6,38.6c-20.8,4.8-44.4-1.6-57.8-15.9c-0.1-0.1-0.1-0.2-0.2-0.2c-2.1-2.3-3.9-5.7-1.6-7.9
	c1.4-1.4,3.7-1.5,5.8-1.7c12.5-1.3,23.9-7.3,32.6-15.2c8.7-7.9,14.8-17.7,19.7-27.7c1-2.1,2.1-4.3,3.8-6c4.8-4.8,13.8-2.4,19.7-0.6
	c6.8,2.1,13.1,5.8,17.1,11.1C307.4,443.2,307.9,452.8,305.6,461.4L305.6,461.4z"/>
<path class="st3" d="M301.9,435.9c-4-5.3-10.2-9-17.1-11.1c-5.8-1.8-14.9-4.1-19.7,0.6c-1.7,1.7-2.8,3.9-3.8,6
	c-4.9,10-11,19.7-19.7,27.7c-8.7,7.9-20.1,13.9-32.6,15.2c-2.1,0.2-4.4,0.4-5.8,1.7c-2.3,2.2-0.5,5.6,1.6,7.9
	c0.1,0.1,0.1,0.2,0.2,0.2c13.4,14.3,37,20.7,57.8,15.9c20.9-4.8,37.8-20.4,42.6-38.6C307.9,452.8,307.4,443.2,301.9,435.9
	L301.9,435.9z M268.4,494.9c-17.1,5.3-37.6,1.4-50.1-9.9c-0.1-0.1-0.1-0.1-0.2-0.2c-1.9-1.8-3.8-4.6-2-6.5c1.1-1.2,3-1.5,4.7-1.8
	c10.4-1.8,19.6-7.6,26.2-14.8c6.7-7.2,11-15.8,14.4-24.5c0.7-1.8,1.4-3.7,2.7-5.3c3.7-4.3,11.5-3,16.6-1.8
	c5.9,1.4,11.5,4.1,15.3,8.4c5.3,5.9,6.4,13.9,5.2,21.3C298.7,475.4,285.6,489.6,268.4,494.9L268.4,494.9z"/>
<path class="st1" d="M296,438.5c-3.8-4.2-9.4-7-15.3-8.4c-5.1-1.2-12.9-2.5-16.6,1.8c-1.3,1.6-2,3.5-2.7,5.3
	c-3.3,8.7-7.7,17.3-14.4,24.5c-6.7,7.2-15.8,13-26.2,14.8c-1.7,0.3-3.7,0.6-4.7,1.8c-1.7,2,0.1,4.8,2,6.5c0.1,0.1,0.1,0.1,0.2,0.2
	c12.5,11.3,33,15.2,50.1,9.9c17.2-5.3,30.3-19.5,32.8-35.2C302.4,452.3,301.3,444.3,296,438.5L296,438.5z M285,481
	c-6.3,4.7-15,6.3-23.3,6.9c-6.8,0.5-13.7,0.4-20.5-0.1c-1.9-0.2-4.1-0.5-5.1-1.9c-0.1-0.2-0.2-0.3-0.3-0.5c-0.5-1.2-0.1-2.6,0.7-3.7
	c0.9-1.3,2.3-2.2,3.7-3.1c5.6-4.1,10.2-9.2,13.3-15c4-7.5,5.6-16.7,12.8-22.6c6.2-5.1,15.7-7.1,21.7-0.7c2.5,2.7,3.9,6.1,4.9,9.4
	c1.6,5.4,2.3,11.2,1.2,16.7C293,471.9,290,477.3,285,481L285,481z"/>
<path class="st3" d="M288,440.2c-6-6.3-15.4-4.3-21.7,0.7c-7.3,5.9-8.8,15.1-12.8,22.6c-3.1,5.8-7.6,10.9-13.3,15
	c-1.3,1-2.7,1.9-3.7,3.1c-0.8,1.1-1.2,2.5-0.7,3.7c0.1,0.2,0.2,0.4,0.3,0.5c1,1.4,3.2,1.7,5.1,1.9c6.8,0.6,13.7,0.6,20.5,0.1
	c8.3-0.6,17-2.1,23.3-6.9c4.9-3.7,7.9-9.1,9.1-14.7c1.1-5.6,0.4-11.3-1.2-16.7C291.9,446.2,290.5,442.9,288,440.2L288,440.2z
	 M281.8,469.3c-1.8,3.1-5.1,5.8-9.1,6.4c-1.4,0.2-2.8,0.2-4.1-0.4c-0.1-0.1-0.2-0.1-0.3-0.2c-1.7-0.9-2.5-2.7-3-4.4
	c-1.4-5.4,0-11.2,2.4-16.4c0.6-1.2,1.3-2.5,2.3-3.4c3.3-3.1,8.5-1.6,11,1.4c1.6,1.9,2.2,4.3,2.5,6.7
	C284,462.5,283.6,466.2,281.8,469.3L281.8,469.3z"/>
<path class="st2" d="M281.1,452.3c-2.5-3-7.7-4.5-11-1.4c-1,1-1.7,2.2-2.3,3.4c-2.5,5.2-3.8,11-2.4,16.4c0.4,1.7,1.3,3.5,3,4.4
	c0.1,0.1,0.2,0.1,0.3,0.2c1.2,0.6,2.7,0.6,4.1,0.4c4-0.6,7.3-3.2,9.1-6.4c1.8-3.1,2.2-6.8,1.8-10.3
	C283.3,456.7,282.7,454.3,281.1,452.3L281.1,452.3z"/>
<path class="st2" d="M530.9,319.6c-3.8-13.1-11.3-27.5-26.3-31.3c-16.5-4.1-33,6.6-50.1,7.8c-21.4,1.5-40.4-12.2-52-27.8
	c-11.6-15.6-18.3-33.7-30.3-49c-21.4-27.3-74.4-39.5-88.8,1c-4.9,13.8-1.7,29,5.8,41.7c7.5,12.7,19.1,23.3,31.4,32.9
	c4.8,3.7,9.8,7.4,13.3,12.1c3.4,4.7,5.1,10.8,2.7,16.1c-5.4,11.5-25.9,11.9-32.8,22.8c-6.4,10.1,3.2,22.6,14.7,28.2
	c11.5,5.7,25.2,7.9,35.3,15.3c10.9,8,15.5,20.9,16.9,33.3c1.3,12.4-0.1,25,1.1,37.4c1.4,14.2,6.5,28.3,16.4,39.6
	c9.9,11.3,24.8,19.6,41.2,20.9c11.6,0.9,23.2-1.7,33.6-6.6c6-2.8,11.5-6.3,16.4-10.3c13.5-10.9,22.8-25.2,30.6-39.7
	c10.5-19.5,18.4-40.3,22.9-61.5l-0.2-76.7C532,323.9,531.5,321.8,530.9,319.6L530.9,319.6z M519,413.1c-8.6,27.9-21.8,55-42.2,77.9
	c-5.7,6.4-12.2,12.6-20.6,16c-2.3,0.9-4.7,1.6-7.1,2c-14.8,2.7-31.3-3.2-41.7-13c-12.2-11.4-17.7-27-21-42.3s-4.9-31.1-10.7-45.8
	c-5.8-14.7-16.8-28.8-33.4-34.8c-6-2.2-12.7-3.2-18.3-6.1c-5.6-2.9-10.1-8.7-8.1-14.2c1.6-4.5,6.9-7.2,12-8.7
	c5.1-1.5,10.6-2.2,15.2-4.8c6.4-3.6,9.8-10.5,9.9-17.1c0.1-6.6-2.8-13-6.7-18.7c-7.2-10.5-17.8-18.9-27.3-28
	c-9.4-9.1-18.1-19.7-19.8-31.9c-1.8-12.2,5.4-26.2,19-29.9c12.9-3.5,26.6,3,35.7,11.5c16.5,15.5,22.5,36.9,37.2,53.5
	c15.5,17.4,41.5,28.1,67.1,24.6c15.7-2.2,32.6-9.1,46.6-2.7c9.3,4.2,14.2,13.3,17.2,22C532.1,351.9,528.1,383.5,519,413.1L519,413.1
	z"/>
<path class="st3" d="M391.1,278.8c-14.8-16.5-20.7-38-37.2-53.5c-9.1-8.5-22.9-15-35.7-11.5c-13.6,3.7-20.7,17.7-19,29.9
	c1.8,12.2,10.4,22.7,19.8,31.9c9.4,9.1,20.1,17.5,27.3,28c3.9,5.7,6.8,12.1,6.7,18.7c-0.1,6.6-3.5,13.5-9.9,17.1
	c-4.5,2.5-10.1,3.3-15.2,4.8c-5.1,1.5-10.4,4.2-12,8.7c-1.9,5.5,2.5,11.2,8.1,14.2s12.2,4,18.3,6.1c16.6,5.9,27.6,20,33.4,34.8
	c5.8,14.7,7.4,30.5,10.7,45.8c3.3,15.3,8.9,30.9,21,42.3c10.5,9.8,26.9,15.7,41.7,13c2.4-0.4,4.8-1.1,7.1-2
	c8.5-3.4,14.9-9.6,20.6-16c20.4-22.9,33.6-50.1,42.2-77.9c9.1-29.6,13.2-61.2,3-90.4c-3-8.7-7.9-17.7-17.2-22
	c-14-6.4-30.9,0.5-46.6,2.7C432.6,306.9,406.6,296.2,391.1,278.8L391.1,278.8z M356,297.7c-8.7-5.7-16.1-12.7-22.9-20.1
	c-8-8.6-15.3-18-19.1-28.6c-2.1-6-3-12.9,0.7-18.4c3.5-5.1,10.8-8,17.5-6.9c5.7,1,10.4,4.5,14.3,8.2c10.7,10.1,18.1,22.6,24.1,35.4
	c3.8,8.2,7.2,16.8,7.6,25.7c0.1,1.9,0,3.8-0.8,5.5c-1.9,4.3-6.2,4.8-10.6,3.8C362.7,301.5,358.5,299.3,356,297.7L356,297.7z
	 M457.2,314.4c7.9-1.2,15.8-3,23.8-3.3s16.4,1,22.7,5.4c6.7,4.7,10.1,12.3,12.1,19.7c6.8,25.2,0.8,51.9-7.1,77
	c-8.2,25.8-19.4,52.4-42.3,69.6c-10,7.6-23.8,13.1-35.9,10c-1.2-0.3-2.3-0.7-3.4-1.1c-8.1-3.2-13.5-10.1-17.8-17
	c-11.6-18.6-17.7-39.7-22.2-60.8c-2.1-10-4-20.2-8.9-29.5c-4.9-9.2-13.3-17.4-24.4-19.8c-3.9-0.8-8.7-1.4-10.3-4.7
	c-1.3-2.7,0.3-5.8,2.7-7.8c2.4-2,5.4-3.2,8-5c7.9-5.3,10.9-14.4,14.7-22.5c3-6.6,7.7-13.8,15.4-16.8c9.4-3.6,20.2,2.3,29,4.8
	C427.3,316.8,442.5,316.7,457.2,314.4L457.2,314.4z"/>
<path class="st2" d="M413.2,312.8c-8.9-2.5-19.6-8.4-29-4.8c-7.6,2.9-12.3,10.2-15.4,16.8c-3.8,8.2-6.8,17.3-14.7,22.5
	c-2.6,1.7-5.7,3-8,5c-2.4,2-4,5.2-2.7,7.8c1.6,3.3,6.4,3.8,10.3,4.7c11,2.4,19.5,10.6,24.4,19.8c4.9,9.2,6.7,19.5,8.9,29.5
	c4.5,21.1,10.6,42.1,22.2,60.8c4.3,6.9,9.8,13.8,17.8,17c1.1,0.5,2.3,0.8,3.4,1.1c12.2,3,25.9-2.5,35.9-10
	c22.9-17.3,34.1-43.8,42.3-69.6c7.9-25.1,13.9-51.8,7.1-77c-2-7.5-5.4-15-12.1-19.7c-6.3-4.4-14.7-5.8-22.7-5.4
	c-8,0.3-15.9,2.1-23.8,3.3C442.6,316.7,427.3,316.8,413.2,312.8L413.2,312.8z M458,326.9c10.3-0.7,21.5-2.3,30.1,2.6
	c5.4,3.1,8.7,8.3,10.3,13.8c1.5,5.4,1.5,11.1,1.3,16.8c-0.8,26-3.8,52.4-14.6,76.7c-5.2,11.7-12.7,23.3-24.7,30.3
	c-12,7-29.5,8.1-40.2-0.2c-7.2-5.6-10.1-14.3-11.9-22.6c-2.7-12.4-3.8-25-7-37.3c-3.3-12.3-9-24.5-19.5-33.1
	c-6.4-5.3-14.9-9.7-16.9-17.1c-1.9-7.3,3-14.4,6.2-21.4c1.7-3.7,2.9-7.5,5-11s5.5-6.6,9.8-7.7c2.5-0.6,5.1-0.5,7.6,0
	c3.5,0.4,6.9,1.7,10.2,2.9C420.6,325.6,439.4,328.1,458,326.9L458,326.9z"/>
<path class="st2" d="M377.4,298.5c0.8-1.7,0.9-3.7,0.8-5.5c-0.4-8.9-3.7-17.5-7.6-25.7c-6-12.8-13.4-25.3-24.1-35.4
	c-3.9-3.7-8.6-7.2-14.3-8.2c-6.7-1.1-14,1.8-17.5,6.9c-3.7,5.5-2.9,12.4-0.7,18.4c3.8,10.6,11.1,20,19.1,28.6
	c6.8,7.4,14.2,14.4,22.9,20.1c2.5,1.6,6.7,3.8,10.8,4.7C371.2,303.3,375.5,302.8,377.4,298.5L377.4,298.5z M365.9,285.8
	c-1.2,2.7-4,3.1-6.8,2.5c-2.6-0.6-5.3-2-6.9-3c-5.6-3.6-10.3-8.2-14.7-12.9c-5.1-5.5-9.8-11.5-12.2-18.4c-1.4-3.9-1.9-8.3,0.5-11.8
	c2.2-3.3,6.9-5.1,11.2-4.4c3.7,0.6,6.7,2.9,9.2,5.3c6.9,6.5,11.6,14.5,15.4,22.7c2.5,5.3,4.6,10.8,4.9,16.5
	C366.4,283.5,366.4,284.7,365.9,285.8L365.9,285.8z"/>
<path class="st1" d="M361.5,265.8c-3.8-8.2-8.6-16.2-15.4-22.7c-2.5-2.4-5.5-4.6-9.2-5.3c-4.3-0.7-9,1.1-11.2,4.4
	c-2.4,3.5-1.8,7.9-0.5,11.8c2.4,6.8,7.1,12.8,12.2,18.4c4.4,4.7,9.1,9.3,14.7,12.9c1.6,1.1,4.3,2.4,6.9,3c2.8,0.6,5.6,0.3,6.8-2.5
	c0.5-1.1,0.5-2.4,0.5-3.6C366.1,276.6,363.9,271.1,361.5,265.8L361.5,265.8z"/>
<path class="st0" d="M393.3,316.6c-2.5-0.5-5-0.7-7.6,0c-4.4,1.1-7.7,4.3-9.8,7.7s-3.4,7.3-5,11c-3.2,7-8.1,14.1-6.2,21.4
	c2,7.5,10.5,11.9,16.9,17.1c10.5,8.6,16.3,20.8,19.5,33.1c3.3,12.3,4.3,24.9,7,37.3c1.8,8.3,4.7,17,11.9,22.6
	c10.7,8.3,28.1,7.2,40.2,0.2c12-7,19.5-18.6,24.7-30.3c10.8-24.3,13.8-50.7,14.6-76.7c0.2-5.6,0.3-11.3-1.3-16.8
	c-1.5-5.4-4.9-10.7-10.3-13.8c-8.6-4.9-19.8-3.3-30.1-2.6c-18.5,1.2-37.3-1.4-54.5-7.4C400.2,318.3,396.8,317,393.3,316.6
	L393.3,316.6z M452.1,332.6c8,1.1,16.3,2.4,22.6,6.8c9.4,6.6,11.5,18.2,11.9,28.7c1.1,26.8-4.5,54.7-22.4,76.7
	c-5.3,6.5-12.6,12.8-21.7,12.9c-7.1,0.1-13.5-3.9-17.7-8.8c-7-8.3-8.8-19.1-9.9-29.4c-1.1-10.3-2-21-7.6-30.1
	c-4.4-7-11.3-12.5-17.4-18.6c-4.7-4.7-8.9-10-10.8-15.9c-2.2-3.9-3.6-8.1-3.8-12.5c-0.4-7.4,3.5-15.9,11.7-17.8
	c2.2-0.5,4.4-0.5,6.6-0.3c0.1-0.1,0.2-0.2,0.3-0.3l0.1,0.3c1.2,0.1,2.5,0.3,3.7,0.5C415.9,327.4,434,330,452.1,332.6L452.1,332.6z"
	/>
<path class="st1" d="M394.2,324.4l-0.1-0.3c-0.1,0.1-0.2,0.2-0.3,0.3c-2.2-0.2-4.5-0.2-6.6,0.3c-8.2,1.9-12.1,10.5-11.7,17.8
	c0.2,4.3,1.6,8.6,3.8,12.5c1.8,5.9,6.1,11.2,10.8,15.9c6,6,13,11.5,17.4,18.6c5.7,9.1,6.5,19.8,7.6,30.1c1.1,10.3,2.9,21.1,9.9,29.4
	c4.2,4.9,10.6,8.8,17.7,8.8c9.1-0.1,16.4-6.4,21.7-12.9c17.9-22,23.6-49.9,22.4-76.7c-0.5-10.5-2.5-22.1-11.9-28.7
	c-6.3-4.4-14.6-5.7-22.6-6.8c-18.1-2.6-36.2-5.2-54.3-7.8C396.6,324.6,395.4,324.5,394.2,324.4L394.2,324.4z M420.2,336.4
	c6.9,1.5,13.9,3.2,20.1,6.2c1.8,0.9,3.5,1.9,5.1,3c7.6,3.8,14.1,9.1,17.6,16.1c3.5,6.8,3.8,14.6,3.2,22
	c-0.9,10.9-3.9,21.8-10.3,31.2c-2.6,3.8-6.2,7.5-11.1,8.4c-6,1.1-11.9-2.6-15-7.1c-3.1-4.5-4.2-9.8-6.1-14.8
	c-5.5-14.6-17.3-26.5-28.6-38.3c-3.2-3.4-6.4-6.8-8.1-10.9s-1.6-9,1.5-12.5c2.4-2.7,6.4-4.2,10.3-4.9
	C405.9,333.6,413.2,334.9,420.2,336.4L420.2,336.4z"/>
<path class="st3" d="M388.4,339.6c-3.1,3.5-3.2,8.4-1.5,12.5c1.7,4.1,4.9,7.6,8.1,10.9c11.2,11.8,23.1,23.7,28.6,38.3
	c1.9,5,3,10.3,6.1,14.8c3.1,4.5,9,8.1,15,7.1c4.9-0.9,8.5-4.6,11.1-8.4c6.5-9.4,9.4-20.3,10.3-31.2c0.6-7.5,0.3-15.2-3.2-22
	c-3.5-6.9-10-12.3-17.6-16.1c-1.6-1.1-3.3-2.1-5.1-3c-6.2-3-13.2-4.7-20.1-6.2c-7-1.5-14.4-2.8-21.5-1.7
	C394.8,335.4,390.9,336.8,388.4,339.6L388.4,339.6z M419.6,350.4c7,0.7,13.7,3.5,18.5,7.9c5.8,5.3,8.8,12.9,8,20.3
	c-0.3,2.7-1.4,5.8-4.2,7.1c-3.4,1.7-7.8,0-10.7-2.2c-0.9-0.7-1.8-1.5-2.6-2.3c-4-3.9-7.1-8.6-11.7-12c-2.1-1.6-4.6-2.9-6.6-4.5
	c-2.1-1.7-3.8-3.8-3.9-6.3C405.9,352.1,413.8,349.8,419.6,350.4L419.6,350.4z"/>
<path class="st1" d="M410.2,364.7c2.1,1.7,4.5,2.9,6.6,4.5c4.6,3.4,7.6,8.1,11.7,12c0.8,0.8,1.7,1.6,2.6,2.3
	c2.9,2.2,7.3,3.9,10.7,2.2c2.8-1.4,3.9-4.4,4.2-7.1c0.8-7.4-2.1-15-8-20.3c-4.8-4.4-11.5-7.2-18.5-7.9c-5.8-0.5-13.7,1.7-13.3,8
	C406.4,360.8,408.1,363,410.2,364.7L410.2,364.7z"/>
<path class="st3" d="M530.1-2.3l-21.8,0c3.5,5.5,6.6,11.3,9.1,17.2c1.2,2.9,2.2,6.4,0,9c-1.9,2.3-5.8,2.8-9,2
	c-3.1-0.8-5.7-2.7-8.3-4.4c-12.6-8.6-26.8-15.6-42.3-19.5s-32.4-4.3-47.8,0c-15.4,4.3-29.1,13.7-36,26.2c-0.9,1.6-1.7,3.3-3.2,4.5
	c-1.5,1.2-4,1.8-5.7,0.8c-1.6-1-1.8-3-1.9-4.7c-0.2-10.4-0.5-20.8,1.1-31.1l-23.6,0c0.5,12.8,4.2,25.7,6.9,38.3
	c4,19,5.4,40.3-7.7,56.1c-8.3,10-21.7,16.7-27.8,27.9c-7.3,13.3-2.1,29.3,7.1,41.5c17.8,24,48.6,38.5,69,60.9
	c11.9,13,19.9,28.3,29.8,42.4c5,7.1,11,14.2,19.7,17.7c0.4,0.2,0.8,0.3,1.2,0.5c11.2,3.9,24.6,1,34.5-5.3
	c10.2-6.5,17.2-16.1,23.1-25.8c23-38.4,30.8-81.7,35.8-125L531.9,3.1C531.3,1.3,530.7-0.5,530.1-2.3L530.1-2.3z M520.9,108.2
	c-0.8,16.5-5.3,32.7-9.9,48.7c-6.4,22.7-12.9,45.5-19.3,68.2c-2.7,9.5-5.5,19.2-11.6,27.5c-6.1,8.3-16.2,15-27.5,15.1
	c-2.5,0-5-0.3-7.4-0.8c-6.1-1.4-11.7-4.5-16.3-8.3c-6.4-5.3-11.3-11.8-16.3-18.1c-22.1-27.6-49.3-51.7-76.4-75.6
	c-9.4-8.2-19.4-18.2-17.6-29.8c1.4-9.2,9.7-15.1,16.9-21.2c7.5-6.3,14.7-13.9,19.9-21.7c5.2-7.8,9.5-15.9,14.1-23.9
	c9-15.6,20.6-31.6,39-38.6c14.7-5.6,31.7-4.5,47-0.7c21.1,5.2,41,15.7,52.7,31.8C518.4,74.7,521.7,91.7,520.9,108.2L520.9,108.2z"/>
<path class="st1" d="M508.3,60.8c-11.7-16-31.6-26.6-52.7-31.8c-15.3-3.8-32.3-4.9-47,0.7c-18.4,7-30,23-39,38.6
	c-4.6,8-8.9,16.2-14.1,23.9c-5.2,7.8-12.4,15.4-19.9,21.7c-7.3,6.1-15.5,12-16.9,21.2c-1.8,11.5,8.3,21.5,17.6,29.8
	c27.1,23.9,54.4,48,76.4,75.6c5,6.3,9.9,12.8,16.3,18.1c4.6,3.8,10.2,6.9,16.3,8.3c2.4,0.6,4.9,0.9,7.4,0.8
	c11.2-0.1,21.4-6.8,27.5-15.1c6.1-8.3,8.9-18,11.6-27.5c6.4-22.7,12.9-45.5,19.3-68.2c4.5-16.1,9.1-32.2,9.9-48.7
	C521.7,91.7,518.4,74.7,508.3,60.8z M498.2,168.7c-5.6,22.8-8.7,46.6-21.9,66.9c-4.9,7.5-12.4,15-22.3,15.6
	c-7.2,0.4-14-3.1-18.8-7.8c-0.1-0.1-0.1-0.1-0.2-0.2c-4.7-4.6-7.9-10.2-11.4-15.5c-16.1-24.6-40.1-45-67.8-60
	c-9.7-5.3-20.9-11-23.4-20.8c-1.5-5.8,0.6-12,3.9-17.2c3.3-5.3,7.9-9.8,11.9-14.7c12.1-14.5,19.6-31.5,30.8-46.5
	c10.9-14.7,27-28.4,47.8-30.8c19.1-2.2,38.6,2.5,54,12.4c9.9,6.4,18,14.8,22.9,24.7c7.3,14.6,7.9,31.2,5.6,47S502,153,498.2,168.7
	L498.2,168.7z"/>
<path class="st2" d="M480.9,50c-15.4-9.9-34.9-14.7-54-12.4C406.1,40,390,53.7,379.1,68.4c-11.2,15-18.7,32-30.8,46.5
	c-4.1,4.9-8.6,9.4-11.9,14.7c-3.3,5.3-5.4,11.4-3.9,17.2c2.5,9.8,13.7,15.5,23.4,20.8c27.7,15,51.7,35.4,67.8,60
	c3.5,5.4,6.6,11,11.4,15.5c0.1,0.1,0.1,0.1,0.2,0.2c4.8,4.6,11.6,8.1,18.8,7.8c9.9-0.5,17.4-8.1,22.3-15.6
	c13.2-20.3,16.4-44.1,21.9-66.9c3.8-15.7,8.9-31.1,11.2-47c2.3-15.9,1.6-32.4-5.6-47C498.8,64.8,490.7,56.4,480.9,50L480.9,50z
	 M477.2,219c-5.8,8.5-17.2,15.1-28.4,13.3c-7.2-1.1-13.1-5.5-17.6-10.4s-7.7-10.7-11.6-16c-11-14.9-27.4-26.5-45.5-34.6
	c-6.7-3-13.7-5.6-19.6-9.7s-10.8-9.9-11.1-16.4c-0.3-6.4,1.7-16.4,11.3-15.9c4.9,0.3,8.5,4,11.7,7.2c15.3,15.3,36,25.8,56.9,34.9
	c11.6,5,24.8,9.9,37.3,6.7c3.4-0.9,6.7-2.3,10.1-3.1c3.5-0.8,7.4-0.9,10.4,0.8c5.1,2.9,5.1,9.3,4.5,14.6
	C484.6,200.3,483.1,210.4,477.2,219L477.2,219z M495.6,129.8c-3.8,12.5-10.1,25.1-22,32.8c-12.9,8.3-30.5,9.3-45.7,5.3
	c-0.1,0-0.2,0-0.3-0.1c-15.3-4-28.5-12.4-40.5-21.5c-10.9-8.3-21.8-18.4-23-31.1c-0.7-7.5,2.1-14.9,5.7-21.7
	c6.4-12,15.7-23,27.7-31.2c10.1-6.9,22.3-11.8,35.1-13c22.2-1.9,46,8.6,57.9,24.7c4,5.5,6.7,11.7,8.1,18
	C501.3,104.6,499.4,117.5,495.6,129.8L495.6,129.8z"/>
<path class="st3" d="M490.5,74.2c-11.9-16.1-35.7-26.7-57.9-24.7c-12.8,1.1-25,6-35.1,13c-12,8.2-21.3,19.2-27.7,31.2
	c-3.6,6.8-6.4,14.2-5.7,21.7c1.2,12.6,12,22.7,23,31.1c12,9.1,25.2,17.5,40.5,21.5c0.1,0,0.2,0,0.3,0.1c15.2,3.9,32.9,2.9,45.7-5.3
	c12-7.7,18.2-20.4,22-32.8c3.8-12.3,5.8-25.2,3.1-37.6C497.3,85.8,494.6,79.6,490.5,74.2L490.5,74.2z M453.8,162.3
	c-11.7,2.1-23.8,0.1-34.7-4.3c-3.7-1.5-7.4-3.3-10.8-5.2c-14.2-8.1-26.4-20.3-30.5-35.2c-3.4-12.4-0.7-26.2,7.2-37
	c20.5-28,65.3-25.5,90-4.8c14.6,12.2,22.2,31.4,18.3,49.3C489.4,143.1,473.4,158.8,453.8,162.3z"/>
<path class="st1" d="M481.2,175.8c-3-1.7-6.9-1.6-10.4-0.8s-6.7,2.2-10.1,3.1c-12.6,3.2-25.7-1.7-37.3-6.7
	c-20.9-9.1-41.6-19.5-56.9-34.9c-3.2-3.2-6.8-6.9-11.7-7.2c-9.6-0.6-11.7,9.5-11.3,15.9c0.3,6.6,5.2,12.4,11.1,16.4
	c5.9,4,12.9,6.6,19.6,9.7c18.1,8.2,34.5,19.7,45.5,34.6c3.9,5.3,7.2,11,11.6,16c4.5,5,10.4,9.3,17.6,10.4
	c11.2,1.8,22.5-4.7,28.4-13.3c5.8-8.5,7.4-18.7,8.5-28.6C486.3,185.1,486.3,178.7,481.2,175.8L481.2,175.8z M466.3,214.3
	c-8.2,5.6-20.9,6.2-28.8,0.3c-7.7-5.8-9-15.6-14.2-23.1c-6.8-9.8-19.7-15.1-32.1-19.2c-12.4-4.1-25.5-7.9-34.7-16.1
	c-1.8-1.6-3.5-3.5-4-5.7c-0.5-2.2,0.3-4.9,2.6-6c3-1.4,6.6,0.1,9.5,1.6c17.5,9.2,34.6,19,51.2,29.2c6.6,4.1,14.5,7.2,20,9.1
	c7.7,2.7,16.3,3.1,24.2,0.8c0.4-0.1,0.9-0.3,1.3-0.4c2.3-0.8,4.6-1.7,7-2.1c2.4-0.4,5.2-0.1,7,1.3c1.9,1.5,2.4,3.9,2.5,6.2
	C478.4,199.2,474.5,208.7,466.3,214.3L466.3,214.3z"/>
<path class="st0" d="M475.3,184c-1.8-1.4-4.5-1.7-7-1.3c-2.4,0.4-4.7,1.4-7,2.1c-0.4,0.1-0.9,0.3-1.3,0.4
	c-7.9,2.3-16.5,1.9-24.2-0.8c-5.5-1.9-13.4-5-20-9.1c-16.7-10.3-33.8-20-51.2-29.2c-2.9-1.5-6.5-3-9.5-1.6c-2.3,1.1-3.2,3.8-2.6,6
	c0.5,2.2,2.2,4.1,4,5.7c9.2,8.3,22.3,12,34.7,16.1c12.4,4.1,25.2,9.4,32.1,19.2c5.2,7.5,6.6,17.3,14.2,23.1
	c7.8,5.9,20.5,5.2,28.8-0.3c8.2-5.6,12.1-15.1,11.6-24.1C477.8,187.9,477.3,185.5,475.3,184L475.3,184z"/>
<path class="st0" d="M474.9,75.8c-24.7-20.8-69.5-23.2-90,4.8c-7.9,10.8-10.6,24.6-7.2,37c4.1,14.9,16.3,27,30.5,35.2
	c3.4,2,7,3.7,10.8,5.2c11,4.4,23,6.5,34.7,4.3c19.6-3.6,35.6-19.3,39.5-37.2C497.2,107.2,489.5,88.1,474.9,75.8z M453,158.6
	c-10.2,1.9-20.7,0.1-30.2-3.8c-3.3-1.3-6.4-2.8-9.4-4.6c-12.3-7.1-23-17.6-26.5-30.6c-3-10.8-0.6-22.8,6.2-32.2
	c17.8-24.3,56.7-22.2,78.3-4.2c12.7,10.6,19.3,27.3,15.9,42.9C484,141.8,470.1,155.5,453,158.6L453,158.6z"/>
<path class="st2" d="M471.4,83.4c-21.5-18.1-60.4-20.2-78.3,4.2c-6.9,9.4-9.2,21.4-6.2,32.2c3.5,13,14.1,23.5,26.5,30.6
	c3,1.7,6.1,3.3,9.4,4.6c9.5,3.8,20,5.6,30.2,3.8c17-3.1,31-16.8,34.3-32.3C490.8,110.7,484.1,94,471.4,83.4L471.4,83.4z
	 M445.3,149.7c-8.6,1.6-17.4,0.1-25.3-3.2c-2.7-1.1-5.4-2.4-7.9-3.8c-10.4-5.9-19.3-14.8-22.2-25.7c-2.5-9.1-0.5-19.1,5.2-27
	c15-20.4,47.6-18.6,65.7-3.5c10.6,8.9,16.2,22.9,13.4,36C471.2,135.6,459.6,147.1,445.3,149.7L445.3,149.7z"/>
<path class="st3" d="M460.7,86.6C442.6,71.4,410,69.6,395,90.1c-5.8,7.9-7.7,17.9-5.2,27c3,10.9,11.9,19.7,22.2,25.7
	c2.5,1.4,5.1,2.7,7.9,3.8c8,3.2,16.8,4.7,25.3,3.2c14.3-2.6,26-14.1,28.8-27.1C476.9,109.5,471.3,95.5,460.7,86.6L460.7,86.6z
	 M440.6,144.7c-6.7,1.2-13.6,0-19.8-2.5c-2.1-0.9-4.2-1.9-6.2-3c-8.1-4.6-15.1-11.6-17.4-20.1c-1.9-7.1-0.4-15,4.1-21.1
	c11.7-16,37.3-14.6,51.4-2.7c8.3,7,12.7,17.9,10.5,28.2C460.9,133.6,451.8,142.6,440.6,144.7L440.6,144.7z"/>
<path class="st1" d="M452.7,95.3C438.5,83.4,413,82,401.3,98c-4.5,6.1-6,14-4.1,21.1c2.3,8.5,9.3,15.4,17.4,20.1c2,1.1,4,2.1,6.2,3
	c6.3,2.5,13.1,3.7,19.8,2.5c11.2-2,20.3-11,22.6-21.2C465.4,113.2,461,102.3,452.7,95.3L452.7,95.3z"/>
<path class="st1" d="M508.3-2.3l-11.6,0c-0.2,1.5-0.9,3-2.4,4c-1.9,1.2-4.7,1.5-7.2,1.1c-2.5-0.4-4.8-1.3-7-2.1c-2.7-1-5.4-2-8.2-3
	l-71.1-0.1c-4.5,1.9-8.9,4-13.3,6.1c-0.8,0.4-1.6,0.7-2.5,1.1c-1.2,0.5-2.5,0.8-3.9,0.9c-6.6,0.5-7.9-3.9-7.7-8.1l-9.1,0
	c-1.6,10.3-1.4,20.7-1.1,31.1c0,1.7,0.2,3.7,1.9,4.7c1.7,1,4.2,0.5,5.7-0.8c1.5-1.2,2.3-2.9,3.2-4.5c6.9-12.5,20.6-21.8,36-26.2
	c15.4-4.3,32.3-3.8,47.8,0s29.7,11,42.3,19.5c2.6,1.7,5.2,3.6,8.3,4.4c3.1,0.8,7,0.3,9-2c2.2-2.5,1.2-6,0-9
	C514.9,9,511.8,3.2,508.3-2.3L508.3-2.3z"/>
<path class="st3" d="M381.1,5.6c1.4-0.1,2.7-0.5,3.9-0.9c0.8-0.3,1.7-0.7,2.5-1.1c4.4-2,8.8-4.1,13.3-6.1l-27.3,0
	C373.1,1.7,374.5,6.1,381.1,5.6L381.1,5.6z"/>
<path class="st3" d="M471.8-2.3c2.8,0.9,5.5,1.9,8.2,3c2.3,0.9,4.5,1.8,7,2.1c2.5,0.4,5.3,0.1,7.2-1.1c1.6-1,2.3-2.4,2.4-4
	L471.8-2.3L471.8-2.3z"/>
<path class="st2" d="M332.2-2.6l-9.5,0c1.3,7,3.4,13.8,5.1,20.7c3.3,13.7,4.7,28.5-1.6,41.5c-6.3,13-19.3,22.4-27.3,34.6
	c-8,12.2-10.7,27-7.3,40.7c2.4,9.9,7.9,19.9,4.6,29.6c-3.6,10.7-16.6,16.7-28.8,18.8c-23.6,4.1-48.4-2.1-68.4-13.7
	c-2.5-1.5-4.9-3-7.3-4.6c-16.6-11.2-30-25.9-41.3-41.5c-21.3-29.3-36-63-38.5-97.9c-0.7-9.5-0.4-19.1,0.8-28.6l-10,0
	c-1,9.4-1.2,18.8-0.5,28.2c2.8,38.1,18.8,74.7,41.9,106.6c12.3,17,26.9,33,44.9,45.2c2.6,1.7,5.2,3.4,8,5
	c21.8,12.6,48.8,19.3,74.5,14.9c13.4-2.3,27.5-8.9,31.4-20.5c3.6-10.6-2.3-21.5-5-32.2c-3.7-14.9-0.8-31,8-44.3
	c8.7-13.3,22.9-23.5,29.8-37.7c6.8-14.1,5.3-30.3,1.7-45.2C335.6,10.5,333.6,4,332.2-2.6L332.2-2.6z"/>
<path class="st1" d="M322.6-2.6l-15.2,0c0.9,7.6,3.3,15,5.1,22.5c2.9,11.8,4,24.5-1.4,35.6c-5.4,11.1-16.5,19.2-23.4,29.6
	c-6.9,10.4-9.2,23.1-6.3,34.9c2.1,8.5,6.7,17,3.9,25.4c-3.1,9.1-14.2,14.3-24.7,16.1c-20.3,3.5-41.5-1.8-58.6-11.7
	c-2.1-1.2-4.2-2.6-6.3-3.9c-14.2-9.6-25.7-22.2-35.4-35.6c-18.2-25.1-30.8-53.9-33-83.9c-0.7-9.7-0.3-19.6,1.4-29.2l-16.4,0
	c-1.2,9.5-1.5,19.1-0.8,28.6c2.6,35,17.3,68.6,38.5,97.9c11.3,15.6,24.7,30.3,41.3,41.5c2.4,1.6,4.8,3.1,7.3,4.6
	c20,11.6,44.8,17.8,68.4,13.7c12.3-2.1,25.2-8.2,28.8-18.8c3.3-9.7-2.2-19.8-4.6-29.6c-3.4-13.7-0.7-28.5,7.3-40.7
	c8-12.2,21.1-21.6,27.3-34.6c6.3-13,4.9-27.8,1.6-41.5C326.1,11.3,323.9,4.4,322.6-2.6L322.6-2.6z"/>
<path class="st3" d="M307.5-2.6l-24.3,0c0.4,5.1,2.5,10.1,5.9,14.4c2.6,3.2,4.7,6.7,6.5,10.4c6.9,14.7,6,32.6-4.2,45.9
	c-10.7,14-29.7,21.3-48.4,24.5c-19.1,3.3-39.3,3.1-57.5-2.9c-18.1-6.1-34-18.4-40.7-34.5c-5.1-12.3-4.8-26-2.5-39
	c1.1-6.4,2.7-12.7,4.8-18.9l-18.1,0c-1.6,9.7-2.1,19.5-1.4,29.2c2.2,30,14.8,58.8,33,83.9c9.7,13.4,21.2,26,35.4,35.6
	c2,1.4,4.1,2.7,6.3,3.9c17.1,9.9,38.4,15.2,58.6,11.7c10.5-1.8,21.6-7,24.7-16.1c2.8-8.3-1.8-16.9-3.9-25.4
	c-2.9-11.7-0.6-24.4,6.3-34.9c6.9-10.4,18.1-18.5,23.4-29.6c5.4-11.1,4.2-23.8,1.4-35.6C310.8,12.5,308.3,5,307.5-2.6L307.5-2.6z
	 M273.6,132.3c-0.6,4.3-1.9,8.8-5.3,12c-2.4,2.2-5.6,3.4-8.9,4.1c-2.9,0.6-5.9,0.7-8.8,0.7c-23.3,0.1-47.4-7.5-62-23.5
	c-2.5-2.8-4.8-5.9-5.9-9.4c-1.1-3.5-0.9-7.4,1.2-10.5c7.7-11.2,31.1-1.4,42-0.7c10.8,0.7,21.5-2.2,31.6-5.7c6.3-2.2,10.1-0.4,12.4,5
	C273.6,113.1,274.9,122.8,273.6,132.3L273.6,132.3z"/>
<path class="st2" d="M289,11.8c-3.4-4.3-5.4-9.3-5.9-14.4l-11,0c0.1,4.6,1.8,9.2,4.9,13c2.1,2.7,3.9,5.5,5.3,8.5
	c5.7,12,4.9,26.7-3.4,37.5c-8.8,11.5-24.3,17.4-39.6,20.1c-15.7,2.7-32.2,2.6-47-2.4c-14.8-5-27.8-15-33.3-28.2
	c-4.2-10.1-3.9-21.3-2.1-32c1-5.6,2.4-11.2,4.3-16.7l-14.2,0c-2.1,6.2-3.7,12.5-4.8,18.9c-2.3,13.1-2.6,26.7,2.5,39
	c6.7,16.1,22.6,28.4,40.7,34.5c18.1,6.1,38.3,6.3,57.5,2.9c18.7-3.2,37.7-10.5,48.4-24.5c10.2-13.3,11.1-31.2,4.2-45.9
	C293.7,18.5,291.5,15,289,11.8L289,11.8z"/>
<path class="st3" d="M277,10.4c-3-3.8-4.8-8.4-4.9-13l-70-0.1c-1.9,0.5-3.7,1.2-5.6,1.9c-8,3.2-14.9,8.3-21.2,13.7
	c-1.3,1.1-2.5,2.2-4.1,2.9c-1.6,0.7-3.5,0.9-5,0.1c-2.6-1.4-2.5-4.6-1.9-7.2c0.9-3.9,2.2-7.7,3.8-11.5h-7c-1.9,5.5-3.3,11-4.3,16.7
	c-1.9,10.7-2.1,21.9,2.1,32c5.5,13.2,18.5,23.3,33.3,28.2c14.8,5,31.4,5.1,47,2.4c15.3-2.7,30.8-8.6,39.6-20.1
	c8.3-10.9,9.1-25.5,3.4-37.5C280.9,15.9,279.1,13,277,10.4L277,10.4z M272.9,44.7c-6.2,9.3-17.2,15.6-28.9,18.6
	c-11.7,3-24,3.1-36.1,2.3c-7.7-0.5-15.5-1.4-22.6-4.1c-0.1,0-0.2-0.1-0.4-0.1c-7.2-2.7-13.7-7.4-16.8-13.8c-4.2-8.5-1.5-19,4.9-26.4
	c6.5-7.5,16.2-12.2,26.2-15.1c16.9-4.8,37-7.5,54.3-3.1c7.5,1.9,14.6,5.5,19.1,11.1C279.7,22.9,279.1,35.4,272.9,44.7L272.9,44.7z"
	/>
<path class="st1" d="M269.9,104.2c-2.3-5.4-6.1-7.2-12.4-5c-10.1,3.6-20.8,6.4-31.6,5.7c-10.9-0.7-34.3-10.5-42,0.7
	c-2.1,3.1-2.3,7-1.2,10.5c1.1,3.5,3.3,6.6,5.9,9.4c14.6,16,38.7,23.6,62,23.5c2.9,0,5.9-0.2,8.8-0.7c3.4-0.7,6.5-1.9,8.9-4.1
	c3.5-3.1,4.7-7.6,5.3-12C274.9,122.8,273.6,113.1,269.9,104.2L269.9,104.2z M262.6,138.8c-2.1,1.6-4.8,2.5-7.7,3
	c-2.5,0.4-5.1,0.5-7.5,0.6c-20.1,0.1-40.8-5.4-53.3-17.1c-2.2-2-4.1-4.3-5.1-6.8c-0.9-2.5-0.8-5.4,1.1-7.7
	c6.6-8.2,26.8-1.1,36.2-0.6c9.3,0.5,18.5-1.7,27.2-4.3c5.4-1.6,8.7-0.3,10.6,3.6c3.2,6.5,4.3,13.6,3.1,20.6
	C266.7,133.2,265.6,136.5,262.6,138.8L262.6,138.8z"/>
<path class="st3" d="M264.1,109.4c-1.9-3.9-5.3-5.2-10.6-3.6c-8.7,2.6-17.9,4.7-27.2,4.3c-9.4-0.5-29.5-7.6-36.2,0.6
	c-1.8,2.3-2,5.1-1.1,7.7c0.9,2.5,2.9,4.8,5.1,6.8c12.5,11.7,33.2,17.2,53.3,17.1c2.5,0,5.1-0.1,7.5-0.6c2.9-0.5,5.6-1.4,7.7-3
	c3-2.3,4.1-5.6,4.6-8.8C268.4,123.1,267.3,115.9,264.1,109.4L264.1,109.4z M253.3,134.9c-1.5,1.2-3.5,1.8-5.6,2.2
	c-1.8,0.3-3.7,0.4-5.5,0.4c-14.7,0.1-29.9-3.9-39-12.5c-1.6-1.5-3-3.1-3.7-5c-0.7-1.9-0.6-4,0.8-5.6c4.8-6,19.6-0.8,26.5-0.5
	c6.8,0.3,13.5-1.2,19.9-3.1c3.9-1.2,6.4-0.2,7.8,2.6c2.3,4.8,3.1,10,2.3,15.1C256.3,130.8,255.5,133.2,253.3,134.9L253.3,134.9z"/>
<path class="st2" d="M254.4,113.4c-1.4-2.9-3.8-3.8-7.8-2.6c-6.4,1.9-13.1,3.5-19.9,3.1c-6.8-0.3-21.6-5.6-26.5,0.5
	c-1.3,1.7-1.5,3.8-0.8,5.6c0.7,1.9,2.1,3.5,3.7,5c9.1,8.6,24.3,12.6,39,12.5c1.8,0,3.7-0.1,5.5-0.4c2.1-0.4,4.1-1,5.6-2.2
	c2.2-1.7,3-4.1,3.4-6.4C257.5,123.4,256.7,118.2,254.4,113.4L254.4,113.4z"/>
<path class="st0" d="M199.4,6.2c-10.1,2.8-19.8,7.6-26.2,15.1s-9.1,17.9-4.9,26.4c3.1,6.4,9.6,11.1,16.8,13.8c0.1,0,0.2,0.1,0.4,0.1
	c7.1,2.6,14.9,3.5,22.6,4.1c12.1,0.8,24.4,0.7,36.1-2.3c11.7-3,22.6-9.3,28.9-18.6s6.9-21.8-0.1-30.5c-4.5-5.6-11.6-9.3-19.1-11.1
	C236.4-1.3,216.3,1.4,199.4,6.2L199.4,6.2z M262.1,42.2c-4.9,7.3-13.5,12.3-22.7,14.6c-9.2,2.4-18.9,2.5-28.4,1.8
	c-6.1-0.4-12.2-1.1-17.8-3.2c-0.1,0-0.2-0.1-0.3-0.1c-5.7-2.1-10.8-5.8-13.3-10.8c-3.3-6.7-1.2-14.9,3.9-20.8
	c5.1-5.9,12.7-9.6,20.7-11.9c13.3-3.8,29.1-5.9,42.7-2.5c5.9,1.5,11.5,4.3,15,8.8C267.4,25.1,266.9,34.9,262.1,42.2L262.1,42.2z"/>
<path class="st1" d="M204.2,11.9c-7.9,2.2-15.6,6-20.7,11.9c-5.1,5.9-7.2,14.1-3.9,20.8c2.5,5,7.6,8.7,13.3,10.8
	c0.1,0,0.2,0.1,0.3,0.1c5.6,2.1,11.7,2.8,17.8,3.2c9.5,0.6,19.2,0.6,28.4-1.8c9.2-2.4,17.8-7.3,22.7-14.6c4.9-7.3,5.4-17.1-0.1-24
	c-3.5-4.4-9.1-7.3-15-8.8C233.4,6.1,217.5,8.2,204.2,11.9L204.2,11.9z M248.9,39.3c-3.3,4.9-9.1,8.2-15.3,9.8s-12.7,1.7-19.1,1.2
	c-4.1-0.3-8.2-0.8-11.9-2.1c-0.1,0-0.1,0-0.2-0.1c-3.8-1.4-7.3-3.9-8.9-7.3c-2.2-4.5-0.8-10,2.6-14s8.6-6.5,13.9-8
	c9-2.5,19.6-3.9,28.7-1.7c4,1,7.7,2.9,10.1,5.9C252.5,27.8,252.2,34.4,248.9,39.3L248.9,39.3z"/>
<path class="st3" d="M210.1,18.9c-5.3,1.5-10.5,4-13.9,8c-3.4,3.9-4.8,9.5-2.6,14c1.7,3.4,5.1,5.8,8.9,7.3c0.1,0,0.1,0.1,0.2,0.1
	c3.8,1.4,7.9,1.9,11.9,2.1c6.4,0.4,12.9,0.4,19.1-1.2c6.2-1.6,12-4.9,15.3-9.8s3.6-11.5-0.1-16.1c-2.4-3-6.1-4.9-10.1-5.9
	C229.6,15,219,16.4,210.1,18.9L210.1,18.9z"/>
<path class="st2" d="M191.1-2.8c-2.5,1.6-4.9,3.3-7.2,5.1c-1,0.8-2.1,1.7-3.3,2.2c-1.3,0.5-2.8,0.6-4-0.1c-2-1.1-1.8-3.7-1.2-5.8
	c0.1-0.5,0.3-1,0.4-1.5h-7.7c-1.6,3.7-2.9,7.5-3.8,11.5c-0.6,2.6-0.7,5.9,1.9,7.2c1.5,0.8,3.4,0.6,5-0.1c1.6-0.7,2.8-1.8,4.1-2.9
	c6.3-5.5,13.2-10.5,21.2-13.7c1.8-0.7,3.7-1.4,5.6-1.9L191.1-2.8L191.1-2.8z"/>
<path class="st0" d="M175.8-2.8c-0.2,0.5-0.3,1-0.4,1.5c-0.6,2.1-0.7,4.7,1.2,5.8c1.1,0.7,2.7,0.6,4,0.1c1.3-0.5,2.3-1.4,3.3-2.2
	c2.3-1.8,4.7-3.6,7.2-5.1L175.8-2.8L175.8-2.8z"/>
<path class="st1" d="M44,428.4c1.7,12,3.8,24.2,9.7,35.2c5.9,11,16.2,20.7,29.6,24c10,2.5,22,0.5,30-5.5c12.4-9.4,8.4-28.3,11.7-41
	c4.2-16.3,12.5-31.6,22.7-45.7c15.2-21,35.2-45.5,59.1-59.6c18.7-11.1,43.8-16.2,64.2-7.8c10.8,4.4,22.8,12.5,33.1,7.1
	c8.8-4.5,8.8-16.1,3.3-23.5c-5.4-7.4-14.5-12.1-21.9-18c-20.3-16.1-28.3-42.9-19.8-65.8c2.2-5.9,5.2-12.9,0.9-17.8
	c-4.1-4.6-12.2-4.1-19-3.9c-39.8,1.6-76.9-19.4-100.7-46.9c-20.7-23.8-35-51.9-44.1-80.7c-2-6.5-2.6-15.4-10-19.1
	C77.2,51.9,68,70.6,65.4,80.2c-11.7,43.4-20,87.4-24.9,131.7C32.6,284,33.6,356.8,44,428.4L44,428.4z M70.9,107.5
	c2.3-8.2,10.4-24,24.1-17.4c6.6,3.2,7.1,10.7,8.9,16.2c8.1,24.4,20.8,48.1,39.2,68.3c21.2,23.2,54,41.1,89.2,39.8
	c6-0.2,13.1-0.6,16.8,3.3c3.9,4.1,1.2,10.1-0.7,15.1c-7.5,19.4-0.3,42,17.7,55.7c6.6,5,14.6,9,19.4,15.3c4.8,6.3,4.9,16.1-2.9,19.9
	c-9.1,4.5-19.8-2.3-29.3-6.1c-18-7.1-40.2-2.8-56.8,6.5c-21.1,11.9-38.7,32.6-52.2,50.3c-9,11.9-16.3,24.9-20,38.6
	c-2.9,10.7,0.7,26.7-10.3,34.7c-7.1,5.1-17.7,6.7-26.5,4.6c-11.9-2.8-21-11.1-26.2-20.4c-5.2-9.3-7.1-19.6-8.6-29.8
	c-9.3-60.7-10.3-122.2-3.4-183.2C53.4,181.5,60.6,144.2,70.9,107.5L70.9,107.5z"/>
<path class="st3" d="M52.6,402.1c1.6,10.2,3.4,20.5,8.6,29.8c5.2,9.3,14.3,17.5,26.2,20.4c8.9,2.1,19.5,0.5,26.5-4.6
	c11-7.9,7.4-23.9,10.3-34.7c3.7-13.8,11-26.7,20-38.6c13.4-17.7,31.1-38.4,52.2-50.3c16.6-9.4,38.8-13.6,56.8-6.5
	c9.5,3.8,20.2,10.6,29.3,6.1c7.8-3.8,7.7-13.6,2.9-19.9c-4.8-6.3-12.8-10.3-19.4-15.3c-18-13.7-25.2-36.3-17.7-55.7
	c1.9-5,4.6-10.9,0.7-15.1c-3.7-3.9-10.8-3.5-16.8-3.3c-35.2,1.3-68.1-16.5-89.2-39.8c-18.4-20.2-31.1-43.9-39.2-68.3
	c-1.8-5.5-2.3-13-8.9-16.2c-13.7-6.6-21.8,9.2-24.1,17.4c-10.2,36.7-17.5,74-21.7,111.5C42.3,279.9,43.3,341.5,52.6,402.1
	L52.6,402.1z M70.7,134c1.3-4.5,2.6-9.1,5.8-12.8c3.1-3.7,8.4-6.5,13.6-5.8c7.7,1.1,11.4,8.5,14.2,14.8
	c7.3,16.6,17.2,32.4,29.3,46.8c5.9,7,12.2,13.9,19.2,20.1c6.3,5.6,12.5,11.3,20.1,15.5c7.4,4.1,16.2,5.8,24.6,7.9
	c13.4,3.3,24,8.6,29.3,20.2c8,17.4,16,34.7,24.1,52.1c0.9,1.9,1.8,3.9,1.4,6c-0.6,3-3.9,5.2-7.4,5.9c-3.5,0.7-7.1,0.3-10.6,0.1
	c-31.5-1.7-61.3,15.4-81.2,36.9c-19.9,21.5-32.3,47.3-47,71.8c-3.9,6.5-10.2,14-18.6,13c-8.3-1-11.9-9.5-13.7-16.6
	C50.8,319.4,45.4,224.3,70.7,134L70.7,134z"/>
<path class="st2" d="M87.4,426.4c8.4,1,14.6-6.5,18.6-13c14.8-24.4,27.1-50.3,47-71.8s49.7-38.5,81.2-36.9c3.5,0.2,7.1,0.6,10.6-0.1
	c3.5-0.7,6.8-2.9,7.4-5.9c0.4-2-0.5-4.1-1.4-6c-8-17.4-16-34.7-24.1-52.1c-5.3-11.6-16-16.9-29.3-20.2c-8.3-2.1-17.2-3.8-24.6-7.9
	c-7.6-4.2-13.8-10-20.1-15.5c-7-6.2-13.3-13.1-19.2-20.1c-12.1-14.4-22-30.1-29.3-46.8c-2.8-6.3-6.5-13.7-14.2-14.8
	c-5.2-0.7-10.5,2-13.6,5.8c-3.1,3.7-4.5,8.3-5.8,12.8c-25.3,90.4-19.9,185.4,2.9,275.9C75.5,416.9,79,425.5,87.4,426.4L87.4,426.4z
	 M72.3,160c2.1-2.9,5.1-5.4,8.7-6.9c4.9-2,10.7-1.8,15.8-0.2c5.1,1.6,9.5,4.5,13.3,7.7c11.2,9.5,17.9,22.3,25.7,34.1
	c5.8,8.7,13,16.6,22.2,22.7c9.8,6.5,22.6,9,34.3,11.1c8,1.5,16.1,3.6,22.2,8.3c6.1,4.7,9.8,12.4,6.9,19
	c-3.3,7.6-13.2,11.2-22.2,13.2c-0.6,0.1-1.1,0.2-1.7,0.4c-21.8,4.6-45,5-66.3-0.6c-21.9-5.8-41.7-18.2-53-35.5
	C67.6,217.1,65,197.7,66.5,179C67,172.4,68.2,165.6,72.3,160L72.3,160z M65.3,264.3c0-3.6,0.3-7.6,3.4-10c3.1-2.4,8-2.1,11.6-0.4
	c3.6,1.7,6.4,4.4,9.3,6.9c13.1,11,31.4,16.6,49.7,17.9s36.7-1.2,54.6-4.7c9.3-1.8,19.1-3.9,28.3-1.8c9.2,2.1,17.4,10,15.1,18
	c-1.5,5.2-6.8,9-12.6,10.9c-5.8,1.9-12,2.1-18.1,2.6c-0.5,0-1,0.1-1.5,0.1c-3.1,0.6-6.2,1.2-9.2,1.9c-23.8,5.8-43.4,21-58.1,38.3
	c-14.7,17.3-25.4,36.9-37.8,55.5c-1.6,2.4-3.6,5.1-6.7,5.6c-5,0.9-8.7-3.8-10.5-7.9c-4.2-9.4-6.4-19.4-8.2-29.4
	C68.1,333.6,65,298.9,65.3,264.3L65.3,264.3z"/>
<path class="st1" d="M131.1,268.8c21.4,5.6,44.5,5.2,66.3,0.6c0.6-0.1,1.1-0.2,1.7-0.4c9.1-2,19-5.6,22.2-13.2
	c2.9-6.7-0.8-14.4-6.9-19c-6.1-4.7-14.2-6.8-22.2-8.3c-11.7-2.1-24.5-4.6-34.3-11.1c-9.2-6.1-16.4-14-22.2-22.7
	c-7.9-11.8-14.5-24.5-25.7-34.1c-3.8-3.3-8.2-6.2-13.3-7.7s-10.9-1.8-15.8,0.2c-3.6,1.4-6.6,4-8.7,6.9c-4.1,5.6-5.2,12.4-5.7,19
	c-1.5,18.7,1.1,38.1,11.6,54.3C89.4,250.6,109.3,263,131.1,268.8L131.1,268.8z M83.9,175.2c1.7-2.3,4-4.3,6.9-5.4
	c3.9-1.6,8.5-1.4,12.5-0.2c4,1.3,7.5,3.5,10.5,6.1c8.8,7.5,14.1,17.6,20.3,26.9c4.6,6.9,10.2,13.1,17.5,17.9
	c7.8,5.2,17.8,7.1,27.1,8.8c6.3,1.2,12.7,2.9,17.5,6.5c4.8,3.7,7.7,9.8,5.4,15c-2.6,6-10.4,8.8-17.6,10.4c-0.4,0.1-0.9,0.2-1.3,0.3
	c-17.2,3.6-35.5,4-52.3-0.5c-17.3-4.6-32.9-14.4-41.8-28c-8.3-12.8-10.4-28.1-9.2-42.8C79.8,185,80.6,179.6,83.9,175.2L83.9,175.2z"
	/>
<path class="st3" d="M130.3,261.1c16.9,4.4,35.1,4.1,52.3,0.5c0.5-0.1,0.9-0.2,1.3-0.3c7.1-1.6,15-4.4,17.6-10.4
	c2.3-5.3-0.6-11.4-5.4-15c-4.8-3.7-11.2-5.4-17.5-6.5c-9.3-1.7-19.3-3.6-27.1-8.8c-7.3-4.8-13-11-17.5-17.9
	c-6.2-9.3-11.5-19.4-20.3-26.9c-3-2.6-6.5-4.9-10.5-6.1c-4-1.3-8.6-1.4-12.5,0.2c-2.9,1.1-5.2,3.1-6.9,5.4c-3.2,4.4-4.1,9.8-4.5,15
	c-1.2,14.7,0.9,30,9.2,42.8C97.4,246.7,113,256.5,130.3,261.1L130.3,261.1z M97.2,192.5c1.2-1.6,2.8-3,4.8-3.8c2.7-1.1,6-1,8.8-0.1
	c2.8,0.9,5.3,2.5,7.4,4.3c6.2,5.3,9.9,12.4,14.3,18.9c3.2,4.8,7.2,9.2,12.3,12.6c5.5,3.6,12.5,5,19.1,6.2c4.4,0.8,8.9,2,12.3,4.6
	c3.4,2.6,5.4,6.9,3.8,10.6c-1.8,4.2-7.3,6.2-12.4,7.3c-0.3,0.1-0.6,0.1-0.9,0.2c-12.1,2.6-25,2.8-36.9-0.3
	c-12.2-3.2-23.2-10.1-29.4-19.7c-5.9-9-7.3-19.8-6.5-30.2C94.3,199.3,94.9,195.5,97.2,192.5L97.2,192.5z"/>
<path class="st2" d="M129.9,252.9c11.9,3.1,24.7,2.9,36.9,0.3c0.3-0.1,0.6-0.1,0.9-0.2c5-1.1,10.6-3.1,12.4-7.3
	c1.6-3.7-0.4-8-3.8-10.6c-3.4-2.6-7.9-3.8-12.3-4.6c-6.5-1.2-13.6-2.5-19.1-6.2c-5.1-3.4-9.1-7.8-12.3-12.6
	c-4.4-6.6-8.1-13.6-14.3-18.9c-2.1-1.8-4.6-3.4-7.4-4.3s-6.1-1-8.8,0.1c-2,0.8-3.7,2.2-4.8,3.8c-2.3,3.1-2.9,6.9-3.2,10.6
	c-0.8,10.4,0.6,21.1,6.5,30.2C106.7,242.8,117.7,249.7,129.9,252.9L129.9,252.9z M110.1,208.1c0.7-0.9,1.7-1.8,2.8-2.2
	c1.6-0.6,3.5-0.6,5.1-0.1c1.7,0.5,3.1,1.4,4.3,2.5c3.6,3.1,5.8,7.2,8.4,11.1c1.9,2.8,4.2,5.4,7.2,7.4c3.2,2.1,7.3,2.9,11.1,3.6
	c2.6,0.5,5.2,1.2,7.2,2.7c2,1.5,3.2,4,2.2,6.2c-1.1,2.5-4.3,3.6-7.2,4.3c-0.2,0-0.4,0.1-0.6,0.1c-7.1,1.5-14.6,1.6-21.6-0.2
	c-7.1-1.9-13.6-5.9-17.2-11.5c-3.4-5.3-4.3-11.6-3.8-17.6C108.4,212.1,108.8,209.9,110.1,208.1L110.1,208.1z"/>
<path class="st1" d="M112,231.9c3.7,5.6,10.1,9.7,17.2,11.5c6.9,1.8,14.5,1.7,21.6,0.2c0.2,0,0.4-0.1,0.6-0.1
	c2.9-0.7,6.2-1.8,7.2-4.3c0.9-2.2-0.3-4.7-2.2-6.2c-2-1.5-4.6-2.2-7.2-2.7c-3.8-0.7-7.9-1.5-11.1-3.6c-3-2-5.3-4.6-7.2-7.4
	c-2.6-3.8-4.7-8-8.4-11.1c-1.3-1.1-2.7-2-4.3-2.5c-1.7-0.5-3.5-0.6-5.1,0.1c-1.2,0.5-2.1,1.3-2.8,2.2c-1.3,1.8-1.7,4-1.9,6.2
	C107.8,220.3,108.6,226.6,112,231.9L112,231.9z"/>
<path class="st0" d="M93.3,405.1c3.1-0.6,5.1-3.2,6.7-5.6c12.4-18.6,23.1-38.2,37.8-55.5c14.7-17.3,34.3-32.5,58.1-38.3
	c3-0.7,6.1-1.3,9.2-1.9c0.5,0,1-0.1,1.5-0.1c6.1-0.5,12.4-0.7,18.1-2.6c5.8-1.9,11.1-5.7,12.6-10.9c2.3-8.1-5.9-16-15.1-18
	c-9.2-2.1-18.9,0-28.3,1.8c-17.9,3.5-36.4,6.1-54.6,4.7c-18.3-1.4-36.6-6.9-49.7-17.9c-3-2.5-5.7-5.2-9.3-6.9
	c-3.6-1.7-8.5-2-11.6,0.4c-3.1,2.4-3.4,6.4-3.4,10c-0.3,34.7,2.8,69.4,9.2,103.6c1.9,10,4,20,8.2,29.4
	C84.6,401.4,88.3,406.1,93.3,405.1L93.3,405.1z M75.1,283.6c-0.1-3.2-0.1-6.6,1.4-9.6c5-9.5,16.1-3,22.6,0.9
	c26.7,16.2,62.6,20.7,93.8,11.7c7.1-2,14-4.7,21.4-5.4c3-0.3,6.7,0.1,8.1,2.4c1.3,2,0.1,4.7-2,6.2s-4.7,2.2-7.3,2.8
	c-32.6,8.1-64,23.5-83.3,47.8c-9.5,12.1-15.7,25.9-24.6,38.3c-1.4,2-3,4.1-5.4,5.4c-1.7,0.9-4,1.3-5.9,0.7c-0.6-0.2-1.3-0.5-1.8-0.9
	c-1.5-1.2-1.9-3-2.3-4.7C83.1,347.7,76.1,315.9,75.1,283.6L75.1,283.6z"/>
<path class="st2" d="M92.3,384c0.5,0.4,1.1,0.7,1.8,0.9c1.9,0.5,4.1,0.2,5.9-0.7c2.3-1.3,3.9-3.3,5.4-5.4
	c8.8-12.5,15-26.3,24.6-38.3c19.2-24.3,50.7-39.6,83.3-47.8c2.6-0.6,5.3-1.3,7.3-2.8c2-1.5,3.2-4.2,2-6.2c-1.4-2.3-5.1-2.7-8.1-2.4
	c-7.4,0.7-14.3,3.4-21.4,5.4c-31.2,9-67,4.5-93.8-11.7c-6.5-3.9-17.6-10.5-22.6-0.9c-1.5,3-1.5,6.3-1.4,9.6c1,32.3,8,64.1,15,95.7
	C90.4,381,90.8,382.9,92.3,384L92.3,384z M83.4,294.6c0.5-2.5,2-5,4.6-6.3c2.5-1.2,5.6-1.1,8.3-0.3c2.7,0.8,5.1,2.2,7.5,3.5
	c13.5,7.1,29.9,10.4,45.6,8c2.1-0.3,4.3-0.8,6.4-0.6c2.2,0.2,4.4,1,5.3,2.7c1.1,1.9,0.3,4.4-1.3,6c-1.6,1.7-3.9,2.7-6,3.8
	c-19.2,9.8-34.5,25.3-42.5,43.3c-1.1,2.4-2,4.8-4,6.7c-1.8,1.8-4.8,3-7.4,2.3c-0.2,0-0.3-0.1-0.5-0.1c-2.6-0.9-3.8-3.4-4.7-5.7
	c-4.2-10.4-6.7-21.2-8.4-32.1C84.9,316.3,81.5,304.2,83.4,294.6L83.4,294.6z"/>
<path class="st1" d="M99.5,363.6c0.2,0.1,0.3,0.1,0.5,0.1c2.6,0.7,5.5-0.5,7.4-2.3c1.9-1.9,2.9-4.4,4-6.7
	c8.1-18,23.3-33.5,42.5-43.3c2.2-1.1,4.4-2.2,6-3.8c1.6-1.7,2.5-4.1,1.3-6c-1-1.7-3.2-2.5-5.3-2.7c-2.2-0.2-4.3,0.3-6.4,0.6
	c-15.6,2.4-32-0.9-45.6-8c-2.4-1.3-4.8-2.7-7.5-3.5c-2.7-0.8-5.8-1-8.3,0.3c-2.6,1.3-4.1,3.8-4.6,6.3c-1.9,9.6,1.5,21.7,3,31.3
	c1.7,10.9,4.2,21.7,8.4,32.1C95.7,360.2,96.9,362.7,99.5,363.6L99.5,363.6z M93.4,312.9c-0.2-2.3-0.3-4.9,1.2-6.9
	c6.7-9.2,28.2-0.3,35.7,3.5c1.4,0.7,2.8,1.5,3.2,2.9c0.5,1.8-1.1,3.4-2.6,4.7c-7.1,6.4-13.5,13.5-18.9,21c-1.5,2.1-3,4.3-5.4,5.6
	c-1.4,0.8-3.3,1.1-4.9,0.9c-1.1-0.2-2.1-0.6-2.8-1.4c-0.8-0.9-1.1-2.1-1.4-3.3C95.4,331,94.1,321.9,93.4,312.9L93.4,312.9z"/>
<path class="st3" d="M98.8,343.2c0.7,0.8,1.7,1.2,2.8,1.4c1.6,0.3,3.5-0.1,4.9-0.9c2.4-1.3,3.9-3.5,5.4-5.6
	c5.4-7.5,11.8-14.6,18.9-21c1.5-1.3,3.1-3,2.6-4.7c-0.4-1.3-1.8-2.2-3.2-2.9c-7.5-3.7-28.9-12.7-35.7-3.5c-1.5,2-1.4,4.5-1.2,6.9
	c0.7,9.1,2,18.1,4,27.1C97.7,341.1,97.9,342.3,98.8,343.2L98.8,343.2z M99.8,315.2c-0.1-1.3-0.1-2.8,0.7-3.9c3.8-5.2,16-0.1,20.3,2
	c0.8,0.4,1.6,0.9,1.8,1.6c0.3,1-0.6,1.9-1.5,2.7c-4.1,3.6-7.7,7.7-10.8,11.9c-0.9,1.2-1.7,2.5-3.1,3.2c-0.8,0.5-1.9,0.7-2.8,0.5
	c-0.6-0.1-1.2-0.3-1.6-0.8c-0.5-0.5-0.6-1.2-0.8-1.9C101,325.5,100.2,320.4,99.8,315.2z"/>
<path class="st2" d="M102.9,332.4c0.4,0.4,1,0.7,1.6,0.8c0.9,0.1,2-0.1,2.8-0.5c1.4-0.8,2.2-2,3.1-3.2c3.1-4.3,6.7-8.3,10.8-11.9
	c0.8-0.7,1.8-1.7,1.5-2.7c-0.2-0.8-1-1.3-1.8-1.6c-4.3-2.1-16.5-7.2-20.3-2c-0.8,1.1-0.8,2.6-0.7,3.9c0.4,5.2,1.1,10.3,2.3,15.4
	C102.2,331.2,102.4,331.9,102.9,332.4z"/>
<path class="st1" d="M333.2,514c-3.3,4.1-6.6,7.1-9,9.1c-2.3,2.4-6,5.6-11.3,8.4c-4.1,2.1-5.3,2-9.3,3.9
	c-5.3,2.5-14.4,6.9-14.7,12.8c-0.3,5.9,8.2,10.4,9.5,11c3.1,1.9,7.5,4.8,11.9,9.1c3.7,3.5,5.2,5.9,7.3,8.3
	c3.4,3.9,9.2,8.7,19.5,12.7c2.9,1.3,7.4,3.5,12.8,6.4c10.9,6,10.7,7.2,13.5,7.8c11.8,2.4,16.9-18.3,40.9-27c9.1-3.3,13.4-2.2,35.1-9
	c9.4-2.9,13.7-4.9,15.9-8.8c4.6-8.3-2.9-18.8-4.3-20.7c-15.1-20.9-43.6-10.1-74.1-31.7c-14.8-10.5-20.7-21.9-27.6-19.8
	C343.1,488.6,344.9,499.5,333.2,514L333.2,514z M356.1,503.9c10.3-3,15.6,8.7,44.6,21.4c10.3,4.5,21.1,8.2,30.8,18
	c3.3,3.3,6.2,7.3,5.6,11.7c-0.8,5.3-6.6,9-12.6,10.2c-5.9,1.2-12.1,0.5-18.2,0.5c-17.7,0.1-34.6,6.3-51.1,11.9
	c-4.7,1.6-9.5,3.2-14.6,3.4c-5,0.2-9-2.2-13.2-5c-9.9-6.5-27.3-21.7-22.3-30c1.7-2.7,6.1-4.4,15.1-7.6c6.4-2.3,7.8-2,11-3.7
	c3.6-1.9,8.3-5.6,11.5-13.8C346.7,508.4,352.5,505,356.1,503.9L356.1,503.9z"/>
<path class="st3" d="M331.3,534.8c-3.2,1.7-4.6,1.4-11,3.7c-9,3.2-13.4,4.9-15.1,7.6c-5,8.3,12.4,23.6,22.3,30
	c4.3,2.8,8.3,5.2,13.2,5c5-0.2,9.9-1.8,14.6-3.4c16.5-5.7,33.4-11.9,51.1-11.9c6.1,0,12.3,0.7,18.2-0.5c5.9-1.2,11.8-5,12.6-10.2
	c0.6-4.3-2.3-8.4-5.6-11.7c-9.8-9.8-20.5-13.5-30.8-18c-29-12.7-34.3-24.5-44.6-21.4c-3.7,1.1-9.4,4.5-13.3,17.1
	C339.6,529.2,335,532.9,331.3,534.8L331.3,534.8z M355.4,539.2c3.9-1.3,7.2-2.1,8.5-2.4c11.8-2.7,21.1-1.2,24.8-0.4
	c1.6,0.3,9.5,2,14.5,4.9c2.4,1.4,4.2,3.1,4.2,5.1c0.1,3-3.6,6.2-7.3,7.2c-1.2,0.3-2.2,0.3-3.2,0.2c-3.1-0.4-5.6-2.5-10.9-2.2
	c-3,0.2-5.8,1.4-11.5,3.9c-7.8,3.4-7.7,4.5-12.5,6.2c-4.3,1.4-10.8,3.7-16.5,1c-2.2-1-4.2-2.7-5.5-4.7c-1.1-1.7-1.8-3.6-1.7-5.6
	C338.6,546,348,541.7,355.4,539.2L355.4,539.2z"/>
<path class="st1" d="M339.8,558c1.4,2,3.4,3.7,5.5,4.7c5.7,2.6,12.3,0.4,16.5-1c4.8-1.6,4.7-2.8,12.5-6.2c5.7-2.5,8.5-3.7,11.5-3.9
	c5.3-0.3,7.8,1.8,10.9,2.2c1,0.1,2,0.1,3.2-0.2c3.7-1,7.4-4.2,7.3-7.2c-0.1-2-1.8-3.7-4.2-5.1c-5-2.9-12.9-4.6-14.5-4.9
	c-3.7-0.8-13-2.3-24.8,0.4c-1.2,0.3-4.6,1.1-8.5,2.4c-7.4,2.5-16.8,6.8-17.3,13.3C338,554.4,338.7,556.3,339.8,558L339.8,558z"/>
</svg>
