<?xml version="1.0" encoding="UTF-8"?>
<svg id="Layer_1" data-name="Layer 1" xmlns="http://www.w3.org/2000/svg" viewBox="0 0 624 1269"  x="0px" y="0px" style="enable-background:new 0 0 624 1269;" xml:space="preserve" width="100%" height="100%"  >
  <polygon points="-.89 -3.58 1.26 1267.91 624 1268.91 624 -2.66 -.89 -3.58" fill="#ffcb90"/>
  <path d="m185.16,825.87c5.57,6.63,12.01,12.74,16.81,19.82,4.74,6.98,7.8,14.75,12.48,21.76,20.68,31,81.67,45.5,112.39,16.5,7.29-6.88,12.26-15.58,20.44-21.66,11.93-8.87,28.64-10.77,42.37-17.38,21.84-10.52,34.1-32.45,35.98-53.99,2.11-24.14-7.29-48.35-23.35-67.98-16.06-19.62-38.47-34.88-62.93-46.25-18.56-8.63-38.64-15.19-59.62-17.27-20.98-2.08-42.94.54-61.61,9.32-3.51,1.65-6.87,3.5-10.09,5.53-13.03,8.23-23.63,19.37-31.39,31.67-23.51,37.25-20.06,85.92,8.51,119.93Zm.87-113.98c7.14-11.31,16.88-21.56,28.86-29.12,2.96-1.87,6.05-3.57,9.28-5.09,17.17-8.07,37.36-10.48,56.65-8.57,19.29,1.91,37.75,7.95,54.81,15.88,22.49,10.46,43.09,24.48,57.86,42.53,14.77,18.04,23.41,40.31,21.47,62.5-1.73,19.81-13,39.97-33.08,49.64-12.62,6.08-27.99,7.82-38.96,15.98-7.52,5.59-12.09,13.59-18.8,19.92-28.25,26.67-84.32,13.34-103.34-15.17-4.3-6.45-7.11-13.59-11.47-20.01-4.42-6.5-10.34-12.12-15.46-18.22-26.27-31.27-29.44-76.02-7.82-110.27Z" fill="#700a00"/>
  

  <path d="m193.86,822.15c5.12,6.1,11.04,11.72,15.46,18.22,4.36,6.42,7.17,13.56,11.47,20.01,19.02,28.51,75.09,41.84,103.34,15.17,6.71-6.33,11.27-14.32,18.8-19.92,10.97-8.15,26.34-9.9,38.96-15.98,20.08-9.67,31.36-29.84,33.08-49.64,1.94-22.19-6.7-44.46-21.47-62.5-14.77-18.04-35.37-32.07-57.86-42.53-17.06-7.93-35.53-13.97-54.81-15.88-19.29-1.91-39.48.5-56.65,8.57-3.22,1.52-6.32,3.22-9.28,5.09-11.98,7.56-21.73,17.81-28.86,29.12-21.62,34.25-18.44,79,7.82,110.27Zm4.71-102.32c6.3-9.99,14.91-19.03,25.49-25.71,2.61-1.65,5.34-3.15,8.19-4.49,15.16-7.12,32.98-9.25,50.02-7.56,17.03,1.69,33.33,7.02,48.4,14.02,19.86,9.23,38.05,21.62,51.09,37.55,13.04,15.93,20.67,35.59,18.96,55.19-1.53,17.49-11.48,35.29-29.21,43.83-11.14,5.37-24.71,6.91-34.4,14.11-6.64,4.94-10.67,11.99-16.6,17.58-24.94,23.54-74.45,11.77-91.24-13.39-3.8-5.69-6.28-12-10.13-17.67-3.9-5.74-9.13-10.7-13.65-16.09-23.19-27.61-26-67.12-6.91-97.36Z" fill="#ff3800"/>
  <path d="m205.48,817.19c4.52,5.39,9.75,10.35,13.65,16.09,3.85,5.67,6.33,11.97,10.13,17.67,16.79,25.17,66.3,36.94,91.24,13.39,5.92-5.59,9.95-12.65,16.6-17.58,9.69-7.2,23.25-8.74,34.4-14.11,17.73-8.54,27.69-26.34,29.21-43.83,1.71-19.6-5.91-39.25-18.96-55.19-13.04-15.93-31.23-28.32-51.09-37.55-15.06-7-31.37-12.34-48.4-14.02-17.03-1.69-34.86.44-50.02,7.56-2.85,1.34-5.58,2.84-8.19,4.49-10.58,6.68-19.18,15.73-25.49,25.71-19.09,30.24-16.28,69.75,6.91,97.36Zm-1.07-67.19c3.55-10.63,9.69-20.67,18.04-29.07,2.95-2.97,6.18-5.74,9.67-8.26,27.12-19.59,67.73-23.21,99-9.64,31.27,13.57,51.93,43.19,52.53,73.66.17,8.55-1.16,17.27-5.28,25.08-4.12,7.81-11.22,14.66-20.37,17.94-7.93,2.85-16.73,2.87-25.23,3.75-8.5.88-17.5,2.96-23.05,8.66-4.64,4.77-6.04,11.2-8.44,17.07-2.4,5.87-6.83,11.99-13.85,13.22-5.5.97-10.97-1.36-15.77-3.82-14.63-7.49-27.91-16.91-39.34-27.8-5.65-5.38-10.85-11.12-15.54-17.16-2.34-3.02-4.56-6.12-6.64-9.28-6.05-9.2-9.13-21.37-9.28-31.98-.1-7.54,1.13-15.1,3.56-22.36Z" fill="#ff9600"/>
  <path d="m216.77,813.63c4.69,6.04,9.89,11.78,15.54,17.16,11.43,10.89,24.72,20.31,39.34,27.8,4.8,2.46,10.27,4.79,15.77,3.82,7.03-1.23,11.45-7.35,13.85-13.22,2.4-5.87,3.8-12.3,8.44-17.07,5.55-5.7,14.55-7.78,23.05-8.66,8.5-.88,17.3-.91,25.23-3.75,9.14-3.28,16.25-10.13,20.37-17.94,4.12-7.81,5.45-16.53,5.28-25.08-.6-30.46-21.25-60.09-52.53-73.66-31.27-13.57-71.88-9.95-99,9.64-3.49,2.52-6.71,5.29-9.67,8.26-8.34,8.41-14.48,18.45-18.04,29.07-2.43,7.26-3.66,14.82-3.56,22.36.15,10.61,3.22,22.78,9.28,31.98,2.08,3.16,4.3,6.26,6.64,9.28Zm18.23-86.74c.11-.1.21-.2.32-.29,20.57-18.83,54.21-25.7,82.25-17.31,28.19,8.44,49.43,31.56,53.44,57.25,1.9,12.17-.1,25.4-8.78,35.2-6.24,7.05-15.46,11.63-25.2,13.98-8.34,2.01-21.18,4.51-27.12-2.53-2.17-2.57-3.27-5.68-4.41-8.71-5.39-14.31-12.43-28.36-23.27-40.08-10.84-11.72-25.81-21.01-42.87-23.8-2.83-.46-6.01-.9-7.74-2.89-2.8-3.23.18-7.83,3.4-10.82Zm-17.98,24.15c1.6-1.33,3.48-2.29,5.51-2.96,4.31-1.42,9.32-1.49,13.91-.79,9.9,1.5,18.91,6.01,26.55,11.63,13.97,10.28,23.83,24.32,29.99,39.32,3.11,7.58,5.38,15.65,4.65,23.79-.4,4.42-1.86,9.06-5.68,12.04-7.05,5.49-19.32,3.96-27.56,1.91-9.71-2.41-18.52-7.17-25.73-13.24-9.23-7.77-15.93-17.59-20.77-27.95-4.26-9.12-7.18-18.88-6.9-28.76.15-5.42,1.5-11.23,6.04-15Z" fill="#ffcb90"/>
  <path d="m238.66,822.74c7.21,6.06,16.02,10.83,25.73,13.24,8.24,2.05,20.51,3.58,27.56-1.91,3.82-2.98,5.29-7.62,5.68-12.04.73-8.14-1.53-16.2-4.65-23.79-6.16-15-16.02-29.04-29.99-39.32-7.64-5.62-16.65-10.13-26.55-11.63-4.59-.7-9.6-.63-13.91.79-2.03.67-3.91,1.63-5.51,2.96-4.54,3.76-5.89,9.58-6.04,15-.27,9.88,2.64,19.63,6.9,28.76,4.84,10.36,11.54,20.18,20.77,27.95Zm-13.9-63.14c1.27-1.05,2.75-1.82,4.37-2.35,3.41-1.12,7.39-1.18,11.03-.63,7.85,1.19,14.99,4.76,21.05,9.22,11.07,8.15,18.89,19.28,23.77,31.17,2.47,6.01,4.26,12.41,3.68,18.86-.31,3.5-1.48,7.18-4.5,9.54-5.58,4.35-15.31,3.14-21.85,1.52-7.69-1.91-14.68-5.69-20.4-10.49-7.32-6.16-12.63-13.95-16.47-22.16-3.38-7.23-5.69-14.96-5.47-22.8.12-4.3,1.19-8.9,4.79-11.89Z" fill="#ff3800"/>
  <path d="m241.9,816.44c5.71,4.81,12.7,8.58,20.4,10.49,6.53,1.62,16.26,2.84,21.85-1.52,3.03-2.36,4.19-6.04,4.5-9.54.58-6.45-1.22-12.84-3.68-18.86-4.88-11.89-12.7-23.02-23.77-31.17-6.06-4.46-13.2-8.03-21.05-9.22-3.64-.55-7.61-.5-11.03.63-1.61.53-3.1,1.3-4.37,2.35-3.6,2.98-4.67,7.59-4.79,11.89-.22,7.83,2.09,15.56,5.47,22.8,3.84,8.21,9.15,16,16.47,22.16Zm-.64-39c.82-.68,1.78-1.18,2.83-1.52,2.21-.73,4.78-.76,7.14-.41,5.09.77,9.71,3.08,13.63,5.97,7.17,5.28,12.24,12.49,15.4,20.19,1.6,3.89,2.76,8.04,2.39,12.22-.2,2.27-.96,4.65-2.92,6.18-3.62,2.82-9.92,2.03-14.15.98-4.98-1.24-9.51-3.68-13.21-6.8-4.74-3.99-8.18-9.03-10.67-14.35-2.19-4.69-3.69-9.69-3.55-14.77.08-2.78.77-5.77,3.1-7.7Z" fill="#ff9600"/>
  <path d="m241.71,799.92c2.49,5.32,5.92,10.36,10.67,14.35,3.7,3.11,8.23,5.56,13.21,6.8,4.23,1.05,10.53,1.84,14.15-.98,1.96-1.53,2.71-3.91,2.92-6.18.37-4.18-.79-8.32-2.39-12.22-3.16-7.7-8.23-14.91-15.4-20.19-3.93-2.89-8.55-5.2-13.63-5.97-2.36-.36-4.93-.32-7.14.41-1.04.34-2.01.84-2.83,1.52-2.33,1.93-3.02,4.92-3.1,7.7-.14,5.07,1.36,10.08,3.55,14.77Zm7.07-14.14c.5-.41,1.08-.72,1.72-.92,1.34-.44,2.91-.46,4.34-.25,3.09.47,5.9,1.87,8.28,3.63,4.36,3.21,7.43,7.59,9.35,12.26.97,2.37,1.68,4.88,1.45,7.42-.12,1.38-.58,2.83-1.77,3.76-2.2,1.71-6.03,1.23-8.6.6-3.03-.75-5.78-2.24-8.03-4.13-2.88-2.42-4.97-5.49-6.48-8.72-1.33-2.85-2.24-5.89-2.15-8.97.05-1.69.47-3.5,1.88-4.68Z" fill="#700a00"/>
  <path d="m249.05,799.43c1.51,3.23,3.6,6.3,6.48,8.72,2.25,1.89,5,3.38,8.03,4.13,2.57.64,6.4,1.12,8.6-.6,1.19-.93,1.65-2.38,1.77-3.76.23-2.54-.48-5.05-1.45-7.42-1.92-4.68-5-9.06-9.35-12.26-2.38-1.75-5.19-3.16-8.28-3.63-1.43-.22-2.99-.2-4.34.25-.63.21-1.22.51-1.72.92-1.42,1.17-1.84,2.99-1.88,4.68-.08,3.08.82,6.12,2.15,8.97Z" fill="#ff3800"/>
  <path d="m231.6,737.7c1.73,1.99,4.91,2.43,7.74,2.89,17.07,2.79,32.03,12.08,42.87,23.8,10.84,11.72,17.89,25.76,23.27,40.08,1.14,3.03,2.25,6.14,4.41,8.71,5.94,7.04,18.78,4.55,27.12,2.53,9.74-2.35,18.95-6.93,25.2-13.98,8.68-9.8,10.68-23.02,8.78-35.2-4.01-25.69-25.25-48.81-53.44-57.25-28.04-8.39-61.68-1.52-82.25,17.31-.11.1-.21.2-.32.29-3.22,2.98-6.2,7.58-3.4,10.82Zm13.7-10c.09-.08.18-.17.27-.25,17.42-15.87,45.9-21.66,69.65-14.58,23.87,7.11,41.87,26.6,45.27,48.26,1.61,10.26-.08,21.41-7.43,29.66-5.29,5.94-13.09,9.8-21.34,11.78-7.06,1.7-17.94,3.8-22.97-2.14-1.83-2.17-2.77-4.79-3.74-7.34-4.56-12.06-10.53-23.9-19.71-33.78-9.18-9.88-21.86-17.71-36.31-20.06-2.4-.39-5.09-.76-6.56-2.44-2.37-2.72.15-6.6,2.88-9.12Z" fill="#ff3800"/>
  <path d="m242.43,736.82c1.47,1.68,4.16,2.05,6.56,2.44,14.45,2.35,27.13,10.18,36.31,20.06,9.18,9.88,15.15,21.71,19.71,33.78.97,2.56,1.9,5.18,3.74,7.34,5.03,5.94,15.91,3.84,22.97,2.14,8.25-1.98,16.05-5.84,21.34-11.78,7.35-8.26,9.04-19.4,7.43-29.66-3.4-21.65-21.4-41.14-45.27-48.26-23.75-7.08-52.23-1.29-69.65,14.58-.09.08-.18.17-.27.25-2.72,2.51-5.25,6.39-2.88,9.12Zm18.39-9.33c.08-.06.16-.13.25-.19,15.96-12.33,40.44-15.47,59.87-8.04,19.54,7.47,33.12,25.02,34.22,43.5.52,8.76-1.81,18.06-8.67,24.58-4.94,4.69-11.83,7.55-18.94,8.72-6.09,1-15.42,2.03-19.18-3.29-1.37-1.94-1.95-4.21-2.55-6.43-2.86-10.46-6.93-20.82-13.87-29.72-6.93-8.9-16.98-16.28-28.97-19.16-1.99-.48-4.23-.95-5.33-2.46-1.78-2.44.66-5.56,3.16-7.52Z" fill="#ff9600"/>
  <path d="m262.98,737.46c11.99,2.87,22.03,10.26,28.97,19.16,6.93,8.9,11,19.26,13.87,29.72.61,2.22,1.18,4.49,2.55,6.43,3.76,5.32,13.09,4.29,19.18,3.29,7.11-1.17,14-4.03,18.94-8.72,6.86-6.52,9.2-15.82,8.67-24.58-1.1-18.49-14.68-36.04-34.22-43.5-19.43-7.43-43.91-4.29-59.87,8.04-.08.06-.17.13-.25.19-2.5,1.96-4.94,5.07-3.16,7.52,1.1,1.51,3.34,1.98,5.33,2.46Zm18.7-9.26c.11-.21.25-.4.41-.59,1.38-1.58,3.96-1.82,6.23-1.87,8.03-.2,16.07.23,23.99,1.27,9.64,1.27,19.61,3.69,26.43,9.7,5.33,4.69,8.21,11.22,8.84,17.81.63,6.59-.87,13.25-3.4,19.51-1.57,3.89-3.61,7.74-6.91,10.7-7.8,7.01-18.6,4.01-25.31-2.38-7.8-7.43-8.51-18.25-12.31-27.36-2.9-6.95-7.63-13.32-13.72-18.47-1.44-1.22-2.98-2.4-3.92-3.94-.81-1.34-1.08-3.04-.33-4.38Z" fill="#700a00"/>
  <path d="m285.93,736.52c6.09,5.15,10.82,11.51,13.72,18.47,3.8,9.11,4.51,19.93,12.31,27.36,6.71,6.39,17.51,9.39,25.31,2.38,3.3-2.97,5.34-6.82,6.91-10.7,2.53-6.26,4.03-12.92,3.4-19.51-.63-6.59-3.52-13.12-8.84-17.81-6.82-6.01-16.79-8.43-26.43-9.7-7.93-1.04-15.97-1.47-23.99-1.27-2.27.06-4.85.29-6.23,1.87-.16.19-.3.38-.41.59-.75,1.34-.48,3.05.33,4.38.94,1.54,2.48,2.72,3.92,3.94Zm28.55,10.84c.72-1.97,1.92-4.01,4-4.97.13-.06.25-.11.38-.16,1.5-.57,3.23-.5,4.81-.15,4.58,1.02,8.19,4.3,9.91,8.12,1.72,3.82,1.72,8.1.83,12.14-.61,2.75-1.66,5.51-3.73,7.68-3.24,3.38-9.6,4.78-13.05.92-1.1-1.23-1.73-2.72-2.27-4.2-2.28-6.25-3.18-13.1-.89-19.38Z" fill="#ff9600"/>
  <path d="m317.63,770.95c3.45,3.86,9.81,2.45,13.05-.92,2.07-2.16,3.12-4.92,3.73-7.68.89-4.05.89-8.33-.83-12.14-1.72-3.82-5.33-7.1-9.91-8.12-1.58-.35-3.31-.42-4.81.15-.13.05-.26.1-.38.16-2.08.96-3.28,3-4,4.97-2.3,6.28-1.39,13.13.89,19.38.54,1.48,1.17,2.97,2.27,4.2Z" fill="#ff3800"/>
  <path d="m550.89,710.36c-11.57-6.4-24.84-10.29-38.55-10.04-19.31.35-37.85,8.99-50.78,21.55-12.93,12.56-20.58,28.75-23.94,45.28-2.94,14.47-2.78,29.29-5.86,43.74-3.07,14.45-10.06,29.16-23.8,37.82-12.66,7.98-29.05,9.67-43.17,15.49-14.12,5.82-26.88,19.73-20.59,32.04,6.75,13.22,30.68,15.22,35.63,29.04,2.25,6.3-.45,13.32-5.06,18.62-4.61,5.3-10.94,9.25-17.02,13.28-15.55,10.3-30.35,21.9-40.7,36.3-10.35,14.4-15.89,31.98-11.81,48.46,11.99,48.44,75.49,37.84,103.86,7.37,15.95-17.13,26-37.84,41.46-55.31,15.45-17.46,39.37-32.14,64.3-28.89,19.92,2.6,38.03,16.28,57.8,12.63,18.03-3.33,28.56-19.62,34.6-34.76,21.99-55.11,15.53-116.39-7.28-170.84-7.35-17.55-16.57-34.87-31.07-48.62-5.29-5.01-11.37-9.51-18.02-13.18Zm53.68,122.34c7.11,35.27,8.03,72.66-7.36,106.08-4.61,10.01-11.44,20.22-22.82,24.55-17.18,6.53-36.09-2.73-54.26-6.38-29.58-5.94-61.26,4.77-81.56,24.06-19.29,18.33-28.82,43.04-50.06,60-11.68,9.33-28.58,15.97-43.21,10.93-15.44-5.32-22.15-22.2-18.6-36.37,3.55-14.17,14.93-25.92,27.09-35.93,12.16-10.01,25.61-19.07,35.34-30.9,5.24-6.37,9.38-13.66,10.1-21.42.72-7.77-2.45-16.04-9.55-20.72-5.01-3.3-11.38-4.56-17.2-6.65-5.82-2.09-11.67-5.63-13.01-10.98-1.63-6.53,4.29-12.96,11.2-16.01,6.91-3.05,14.8-3.8,22.14-5.91,20.13-5.8,34.72-21.52,43.31-38.38,8.59-16.85,12.29-35.18,18.04-52.89,5.75-17.72,14.1-35.59,29.71-48.11,13.43-10.77,33.38-16.52,50.42-12.29,2.77.69,5.47,1.64,8.04,2.88,9.49,4.56,16.34,12.29,22.24,20.19,21.09,28.24,33.29,60.99,40,94.24Z" fill="#ff3800"/>
  <path d="m542.34,718.26c-2.58-1.24-5.27-2.19-8.04-2.88-17.04-4.23-36.99,1.52-50.42,12.29-15.61,12.52-23.96,30.39-29.71,48.11-5.75,17.72-9.45,36.04-18.04,52.89-8.59,16.85-23.18,32.58-43.31,38.38-7.34,2.12-15.24,2.86-22.14,5.91-6.91,3.05-12.83,9.48-11.2,16.01,1.34,5.35,7.18,8.89,13.01,10.98,5.82,2.09,12.19,3.34,17.2,6.65,7.11,4.68,10.27,12.96,9.55,20.72-.72,7.77-4.86,15.06-10.1,21.42-9.74,11.83-23.19,20.89-35.34,30.9-12.16,10.01-23.54,21.76-27.09,35.93-3.55,14.17,3.16,31.05,18.6,36.37,14.63,5.04,31.53-1.6,43.21-10.93,21.24-16.96,30.76-41.67,50.06-60,20.3-19.29,51.98-30,81.56-24.06,18.17,3.65,37.08,12.91,54.26,6.38,11.38-4.33,18.21-14.54,22.82-24.55,15.38-33.43,14.47-70.81,7.36-106.08-6.71-33.25-18.91-66-40-94.24-5.9-7.9-12.75-15.64-22.24-20.19Zm-129.15,274.82c-8.53,14.55-18.69,28.64-32.48,39.77-5.06,4.08-10.94,7.88-17.77,8.61-7.94.85-16.21-3.05-19.65-9.28-3.68-6.67-1.88-14.69,1.35-21.6,5.69-12.16,15.39-22.61,25.77-32.18,8.87-8.17,18.41-15.89,29.3-21.94,3.15-1.75,8.32-3.98,13.22-4.73,5.28-.81,10.24.12,11.99,5.24.72,2.1.56,4.36.23,6.55-1.54,10.39-6.48,20.19-11.97,29.55Zm179.22-161.33c6.29,29.97,10.05,61.61-.93,90.67-3.25,8.59-8.12,17.2-16.5,22.26-7.87,4.75-17.87,5.72-27.21,4.79-9.34-.93-18.33-3.59-27.46-5.55-16.9-3.63-34.77-4.86-51.76-1.18-10.69,2.32-23.96,8.47-34.59,3.54-8.59-3.98-13.2-12.77-15.96-20.72-3.41-9.81-5.85-20.72-14.46-27.42-2.86-2.22-6.27-3.86-8.83-6.37-2.55-2.51-4.09-6.35-2.25-9.37,2.29-3.76,7.98-4.05,12.65-4.77,13.2-2.01,24.11-11.03,30.92-21.46,6.84-10.48,10.23-22.37,13.93-33.92,7.8-24.36,17.48-48.6,33.35-69.62,5.89-7.81,13.11-15.45,22.94-18.66,1.37-.45,2.76-.8,4.15-1.05,14.62-2.71,30.04,4.72,40.87,14.29,24.72,21.84,34.68,53.75,41.14,84.54Z" fill="#ff9600"/>
  <path d="m510.39,732.92c-1.39.26-2.78.61-4.15,1.05-9.83,3.21-17.05,10.85-22.94,18.66-15.87,21.02-25.55,45.25-33.35,69.62-3.7,11.56-7.09,23.44-13.93,33.92-6.81,10.44-17.72,19.46-30.92,21.46-4.68.71-10.37,1-12.65,4.77-1.83,3.02-.3,6.87,2.25,9.37,2.55,2.51,5.97,4.15,8.83,6.37,8.61,6.7,11.05,17.61,14.46,27.42,2.77,7.95,7.37,16.73,15.96,20.72,10.63,4.93,23.89-1.22,34.59-3.54,16.99-3.68,34.86-2.45,51.76,1.18,9.13,1.96,18.11,4.62,27.46,5.55,9.34.93,19.34-.04,27.21-4.79,8.38-5.06,13.26-13.67,16.5-22.26,10.98-29.06,7.21-60.7.93-90.67-6.46-30.79-16.42-62.7-41.14-84.54-10.83-9.57-26.26-16.99-40.87-14.29Zm57.23,69.6c9.76,29.27,10.06,60.36,7.9,90.88-.47,6.6-1.06,13.28-3.52,19.56-2.46,6.28-7,12.2-13.68,15.42-10.63,5.13-23.62,2.45-35.59.96-21.57-2.7-43.9-1.02-64.7,4.88-4,1.13-8.14,2.43-12.27,2.67-2.99.46-5.99.41-8.86-.5-4.98-1.59-8.49-5.54-10.6-9.76-2.11-4.22-3.06-8.8-4.57-13.22-2.87-8.39-7.83-17.14-4.66-25.51,3.25-8.6,13.69-13.19,21.82-18.9,13.36-9.37,21.59-23.24,26.89-37.39,5.31-14.15,8.06-28.9,12.73-43.22,3.14-9.61,7.58-19.56,16.72-25.66,13.5-9.01,33.83-6.5,47.09,2.55,13.26,9.05,20.61,23.14,25.31,37.24Z" fill="#ff3800"/>
  <path d="m424.93,956.98c-1.76-5.13-6.72-6.05-11.99-5.24-4.9.75-10.07,2.99-13.22,4.73-10.89,6.04-20.43,13.77-29.3,21.94-10.39,9.57-20.09,20.02-25.77,32.18-3.23,6.9-5.03,14.93-1.35,21.6,3.44,6.23,11.71,10.14,19.65,9.28,6.83-.73,12.71-4.53,17.77-8.61,13.79-11.13,23.95-25.22,32.48-39.77,5.49-9.36,10.43-19.16,11.97-29.55.32-2.19.49-4.44-.23-6.55Zm-22.6,37.19c-5.47,9.34-11.99,18.38-20.84,25.52-3.24,2.62-7.02,5.05-11.4,5.52-5.09.55-10.4-1.96-12.61-5.96-2.36-4.28-1.2-9.43.87-13.86,3.65-7.8,9.87-14.51,16.53-20.65,5.69-5.24,11.81-10.2,18.8-14.07,2.02-1.12,5.34-2.56,8.48-3.04,3.39-.52,6.57.07,7.7,3.36.46,1.35.36,2.8.15,4.2-.99,6.67-4.16,12.95-7.68,18.96Z" fill="#ff3800"/>
  <path d="m409.86,971.01c-1.13-3.29-4.31-3.88-7.7-3.36-3.14.48-6.46,1.92-8.48,3.04-6.99,3.88-13.11,8.83-18.8,14.07-6.66,6.14-12.89,12.84-16.53,20.65-2.07,4.43-3.23,9.58-.87,13.86,2.21,4,7.51,6.5,12.61,5.96,4.38-.47,8.16-2.91,11.4-5.52,8.84-7.14,15.36-16.18,20.84-25.52,3.52-6.01,6.69-12.29,7.68-18.96.21-1.4.31-2.85-.15-4.2Z" fill="#700a00"/>
  <path d="m495.23,762.73c-9.14,6.1-13.58,16.05-16.72,25.66-4.67,14.31-7.43,29.07-12.73,43.22-5.31,14.15-13.53,28.02-26.89,37.39-8.13,5.7-18.57,10.29-21.82,18.9-3.16,8.37,1.79,17.11,4.66,25.51,1.51,4.41,2.46,9,4.57,13.22,2.11,4.22,5.62,8.17,10.6,9.76,2.87.91,5.86.96,8.86.5,4.13-.25,8.27-1.54,12.27-2.67,20.81-5.89,43.14-7.58,64.7-4.88,11.96,1.5,24.96,4.17,35.59-.96,6.68-3.22,11.22-9.15,13.68-15.42,2.46-6.28,3.05-12.96,3.52-19.56,2.16-30.52,1.86-61.61-7.9-90.88-4.7-14.09-12.05-28.19-25.31-37.24-13.26-9.05-33.58-11.56-47.09-2.55Zm49.01,28.97c18.29,27.03,21.57,60.16,17,91.44-1.79,12.27-5.63,25.69-17.4,32.73-7.87,4.71-17.81,5.63-27.29,6.41-21.5,1.77-43,3.54-64.5,5.3-1.45.12-2.92.23-4.39.29l-.16.38c-.12-.12-.25-.24-.37-.36-2.63.07-5.24-.09-7.71-.84-9.41-2.85-12.96-13.11-11.59-21.72.81-5.06,2.88-9.97,5.98-14.34,2.84-6.76,8.5-12.71,14.52-17.84,7.81-6.65,16.61-12.61,22.59-20.55,7.72-10.25,9.98-22.73,12.54-34.73,2.56-12,5.92-24.5,15.18-33.73,5.48-5.47,13.46-9.62,21.74-9.06,10.62.72,18.49,8.66,23.86,16.61Z" fill="#ffcb90"/>
  <path d="m520.38,775.1c-8.28-.56-16.26,3.59-21.74,9.06-9.26,9.24-12.62,21.73-15.18,33.73-2.56,12-4.82,24.48-12.54,34.73-5.98,7.94-14.78,13.9-22.59,20.55-6.02,5.13-11.68,11.07-14.52,17.84-3.1,4.37-5.17,9.27-5.98,14.34-1.37,8.61,2.19,18.87,11.59,21.72,2.46.75,5.08.9,7.71.84.12.12.25.24.37.36l.16-.38c1.47-.05,2.94-.17,4.39-.29,21.5-1.77,43-3.54,64.5-5.3,9.48-.78,19.42-1.7,27.29-6.41,11.77-7.05,15.61-20.47,17.4-32.73,4.57-31.28,1.29-64.41-17-91.44-5.37-7.94-13.24-15.89-23.86-16.61Zm-1.55,40.5c5.67,1.37,9.4,5.99,11.98,10.57,6.46,11.46,8.59,24.5,8.36,37.31-.16,8.79-1.49,17.82-6.37,25.57-4.94,7.85-13.17,13.69-22.54,17.57-2,1.18-4.11,2.22-6.28,3.11-7.64,3.14-16.01,4.64-24.32,5.88-8.43,1.26-17.17,2.28-25.41.42-4.5-1.01-8.92-3.02-11.44-6.4-3.19-4.3-2.7-10.08-.22-14.77,2.48-4.69,6.67-8.51,10.81-12.22,14.58-13.02,29.91-26.16,38.06-42.85,2.8-5.74,4.75-11.89,8.95-16.96,4.2-5.07,11.54-8.9,18.41-7.24Z" fill="#700a00"/>
  <path d="m500.41,822.83c-4.2,5.07-6.15,11.22-8.95,16.96-8.15,16.69-23.49,29.83-38.06,42.85-4.15,3.7-8.34,7.53-10.81,12.22-2.48,4.69-2.97,10.47.22,14.77,2.51,3.39,6.93,5.39,11.44,6.4,8.24,1.85,16.98.84,25.41-.42,8.31-1.25,16.67-2.75,24.32-5.88,2.17-.89,4.28-1.93,6.28-3.11,9.37-3.89,17.6-9.73,22.54-17.57,4.88-7.74,6.21-16.78,6.37-25.57.24-12.81-1.9-25.85-8.36-37.31-2.58-4.58-6.31-9.2-11.98-10.57-6.87-1.66-14.21,2.17-18.41,7.24Zm10.54,36.51c3.1,1.78,4,5.38,4.03,8.63.09,8.69-4.32,17.37-11.78,23.23-6.17,4.84-14.34,7.67-22.6,7.95-6.83.24-15.8-2.96-14.64-10.27.46-2.86,2.74-5.29,5.36-7.09,2.62-1.8,5.62-3.13,8.32-4.84,5.78-3.68,9.92-9,15.12-13.27,1.07-.88,2.19-1.72,3.38-2.49,3.72-2.41,8.99-4.04,12.82-1.85Z" fill="#ff9600"/>
  <path d="m479.64,876.94c-2.69,1.72-5.7,3.04-8.32,4.84-2.62,1.8-4.91,4.23-5.36,7.09-1.16,7.31,7.81,10.51,14.64,10.27,8.26-.29,16.43-3.12,22.6-7.95,7.47-5.85,11.87-14.54,11.78-23.23-.03-3.24-.93-6.85-4.03-8.63-3.83-2.2-9.1-.56-12.82,1.85-1.19.77-2.31,1.61-3.38,2.49-5.2,4.27-9.33,9.58-15.12,13.27Z" fill="#700a00"/>
  <path d="m378.46,1266.78c2.09-1.08,4.92-.24,6.55,1.28.16.15.31.31.45.47l34.2.05c-15.01-10.43-24.35-26.68-31.6-42.51-4.44-9.71-8.48-19.58-13.64-29.03-5.19-9.5-12.72-18.93-20.69-26.8-7.75-7.65-16.67-15.13-17.25-26.06-.73-13.64,12.29-24.66,24.24-33.66,34.67-26.11,69.47-52.42,98.66-83.15,6.67-7.03,13.12-14.34,21.29-20.06,5.85-4.1,12.79-7.34,20.07-8.57,2.88-.49,5.82-.66,8.76-.45,13.16.96,24.2,9.52,30.34,19.62,6.14,10.1,8.23,21.66,10.22,32.98,4.78,27.09,9.57,54.19,14.35,81.28,3.38,19.13,6.76,38.41,5.68,57.78s-6.97,39.07-20.47,54.62c-8.98,10.34-20.95,18.34-34.31,24.16l67.12.11c2.89-20.83,2.95-41.95,3.06-62.95.32-62.91.87-127.81-26.81-185.7-5.66-11.83-12.72-23.55-23.91-31.87-10.79-8.03-26.15-12.35-39.72-8.59-.5.14-.99.29-1.48.45-10.66,3.46-18.5,11.39-25.26,19.36-13.4,15.8-24.6,33.09-40.07,47.52-26.6,24.8-64.36,39.65-88.15,66.5-12.15,13.71-20.21,32.11-13.27,48.18,5.82,13.49,20.72,22.3,29.25,34.62,13.44,19.41,9.29,44.3,2.27,66.28-.62,1.94-1.26,3.89-1.91,5.83l20.3.03c.4-.71.95-1.32,1.76-1.74Z" fill="#ff9600"/>
  <path d="m549.62,1244.58c13.51-15.55,19.39-35.25,20.47-54.62s-2.3-38.65-5.68-57.78c-4.78-27.09-9.57-54.19-14.35-81.28-2-11.32-4.08-22.88-10.22-32.98-6.14-10.1-17.18-18.66-30.34-19.62-2.95-.21-5.88-.04-8.76.45-7.29,1.23-14.22,4.48-20.07,8.57-8.17,5.72-14.61,13.03-21.29,20.06-29.19,30.74-64,57.05-98.66,83.15-11.95,9-24.97,20.01-24.24,33.66.58,10.93,9.5,18.41,17.25,26.06,7.97,7.87,15.5,17.3,20.69,26.8,5.16,9.45,9.19,19.32,13.64,29.03,7.25,15.84,16.59,32.08,31.6,42.51l95.65.15c13.36-5.82,25.33-13.82,34.31-24.16Zm-150.47-17.94c-11.27-18.4-18.03-38.8-30.45-56.63-4.16-5.98-8.95-11.66-12.22-18.04-3.27-6.38-4.94-13.74-2.49-20.44,4.11-11.26,17.88-17.21,29.93-22.72,34.21-15.65,64.84-37.81,86.64-65.55,4.73-6.03,9.11-12.37,15.17-17.42.07-.06.15-.12.22-.18,6.17-5.08,14.57-8.73,22.95-7.76,11.52,1.33,19.38,10.66,24.21,19.81,13.03,24.71,13.84,52.81,17.61,79.87,2.59,18.6,6.67,37.07,7.44,55.8.77,18.74-1.99,38.09-12.28,54.67-6.93,11.17-17.44,20.52-29.76,27.28-19.18,10.52-42.6,14.73-64.75,10.77-24.02-4.3-41.2-21.44-52.22-39.45Z" fill="#700a00"/>
  <path d="m451.37,1266.09c22.15,3.96,45.57-.25,64.75-10.77,12.32-6.76,22.83-16.12,29.76-27.28,10.29-16.58,13.04-35.94,12.28-54.67-.77-18.74-4.85-37.21-7.44-55.8-3.76-27.05-4.57-55.15-17.61-79.87-4.83-9.15-12.69-18.48-24.21-19.81-8.38-.97-16.77,2.68-22.95,7.76-.07.06-.15.12-.22.18-6.06,5.05-10.44,11.39-15.17,17.42-21.8,27.75-52.43,49.91-86.64,65.55-12.05,5.51-25.83,11.46-29.93,22.72-2.45,6.71-.78,14.06,2.49,20.44,3.27,6.38,8.06,12.07,12.22,18.04,12.41,17.83,19.18,38.23,30.45,56.63,11.03,18.01,28.21,35.15,52.22,39.45Zm-73.47-112.55c-11.32-.01-12.51-11.9-11.36-19.38,1.18-7.66,7.54-14.14,14.97-18.45,7.43-4.32,15.97-6.88,24.17-9.94,22.23-8.27,42.8-20.65,57.53-37.34,5.24-5.94,9.72-12.39,15.55-17.9,5.83-5.51,13.35-10.13,21.87-10.97,13.33-1.32,25.8,7.13,31.62,17.56,5.82,10.42,6.37,22.44,6.51,34.07.07,6.26-.73,13.76-7.07,16.8-3.69,1.77-8.28,1.39-12.24.2-3.96-1.19-7.58-3.1-11.51-4.36-14.34-4.58-30.32.14-44.55,5.23-25.6,9.16-51.11,19.96-70.89,36.83-4.17,3.56-8.78,7.65-14.6,7.64Zm13.43,42.88c-3.44-8.24-5.8-17.13-4.06-25.81,2.95-14.7,16.85-25.81,30.67-34.77,15.14-9.82,31.63-18.71,50.02-22.33.1-.02.21-.04.31-.06,18.31-3.53,38.83-1.14,52.89,9.45,13.08,9.85,18.84,25.14,21.82,40,2.94,14.64,3.71,29.91-.94,44.27-2.39,7.37-6.3,14.44-11.67,20.55-15.87,18.03-45.06,28.71-70.79,24.87-14.84-2.21-28.5-8.83-39.53-17.66-13.07-10.46-22.65-23.98-28.71-38.52Z" fill="#ff3800"/>
  <path d="m459.58,1252.59c25.73,3.84,54.92-6.84,70.79-24.87,5.38-6.11,9.29-13.17,11.67-20.55,4.65-14.37,3.88-29.64.94-44.27-2.99-14.85-8.75-30.15-21.82-40-14.06-10.59-34.58-12.98-52.89-9.45-.1.02-.21.04-.31.06-18.39,3.62-34.87,12.51-50.02,22.33-13.82,8.96-27.71,20.07-30.67,34.77-1.74,8.68.62,17.57,4.06,25.81,6.07,14.53,15.64,28.06,28.71,38.52,11.04,8.83,24.69,15.44,39.53,17.66Zm-52.14-39.85c-7.95-13.16-9.41-29.51-3.92-43.84,6.58-17.19,22.32-30.52,39.94-39.06,4.26-2.06,8.71-3.88,13.28-5.38,13.36-4.37,27.73-5.95,41.21-2.63,22.52,5.56,39.38,25.09,41.79,46.34,2.41,21.26-8.89,43.18-27.44,56.48-31.5,22.59-84.19,22.3-104.85-11.91Z" fill="#ff9600"/>
  <path d="m463.39,1109.07c14.23-5.09,30.21-9.81,44.55-5.23,3.93,1.26,7.55,3.17,11.51,4.36,3.96,1.19,8.54,1.57,12.24-.2,6.34-3.04,7.15-10.54,7.07-16.8-.14-11.63-.69-23.65-6.51-34.07-5.82-10.42-18.29-18.87-31.62-17.56-8.52.84-16.05,5.46-21.87,10.97-5.83,5.51-10.31,11.96-15.55,17.9-14.72,16.68-35.3,29.06-57.53,37.34-8.21,3.05-16.75,5.62-24.17,9.94-7.43,4.32-13.79,10.79-14.97,18.45-1.15,7.48.03,19.37,11.36,19.38,5.82,0,10.43-4.08,14.6-7.64,19.79-16.87,45.29-27.67,70.89-36.83Zm-83.12,26.87c-2.55-1.48-3.27-4.63-2.37-7.19.91-2.57,3.1-4.65,5.42-6.44,11.75-9.05,27.59-12.54,42.58-16.48,14.99-3.94,30.68-9.19,39.86-20.24,7.04-8.47,9.79-19.85,19.46-26.07,9.86-6.33,24.67-4.7,33.65,2.4,8.98,7.09,12.4,18.51,10.68,29.02-.43,2.62-1.3,5.43-3.72,7.07-2.3,1.56-5.53,1.68-8.34,1.05-2.81-.63-5.35-1.92-7.98-2.97-.48-.19-.96-.38-1.45-.55-8.99-3.25-19.1-3.37-28.43-.76-6.67,1.86-16.27,4.97-24.54,9.3-20.76,10.86-41.95,21.09-63.54,30.66-3.56,1.57-7.99,3.12-11.29,1.21Z" fill="#700a00"/>
  <path d="m479.63,1094.77c9.33-2.61,19.44-2.49,28.43.76.49.18.97.36,1.45.55,2.63,1.05,5.17,2.34,7.98,2.97,2.81.63,6.04.51,8.34-1.05,2.42-1.64,3.29-4.45,3.72-7.07,1.72-10.5-1.7-21.92-10.68-29.02-8.98-7.1-23.79-8.73-33.65-2.4-9.67,6.21-12.42,17.6-19.46,26.07-9.18,11.05-24.87,16.3-39.86,20.24-14.99,3.94-30.83,7.43-42.58,16.48-2.32,1.78-4.51,3.87-5.42,6.44-.9,2.56-.18,5.71,2.37,7.19,3.3,1.91,7.73.37,11.29-1.21,21.58-9.56,42.78-19.79,63.54-30.66,8.27-4.33,17.86-7.44,24.54-9.3Z" fill="#ffcb90"/>
  <path d="m512.29,1224.66c18.55-13.3,29.85-35.22,27.44-56.48-2.41-21.26-19.27-40.79-41.79-46.34-13.48-3.33-27.85-1.75-41.21,2.63-4.57,1.5-9.02,3.32-13.28,5.38-17.62,8.54-33.36,21.87-39.94,39.06-5.49,14.34-4.02,30.69,3.92,43.84,20.66,34.22,73.36,34.51,104.85,11.91Zm-94.37-19.45c-6.91-11.44-8.18-25.66-3.41-38.12,5.72-14.94,19.4-26.54,34.73-33.96,3.7-1.79,7.57-3.38,11.55-4.68,11.62-3.8,24.11-5.18,35.83-2.28,19.58,4.83,34.24,21.81,36.33,40.3,2.09,18.48-7.73,37.54-23.86,49.11-27.39,19.64-73.2,19.39-91.17-10.36Z" fill="#ffcb90"/>
  <path d="m509.09,1215.57c16.13-11.57,25.96-30.63,23.86-49.11-2.09-18.48-16.75-35.46-36.33-40.3-11.72-2.89-24.21-1.52-35.83,2.28-3.97,1.3-7.84,2.88-11.55,4.68-15.32,7.42-29.01,19.02-34.73,33.96-4.77,12.47-3.5,26.68,3.41,38.12,17.97,29.75,63.78,30,91.17,10.36Zm-88.7-13.16c-5.8-9.6-6.87-21.53-2.86-32,4.8-12.54,16.29-22.27,29.15-28.51,3.11-1.51,6.36-2.84,9.69-3.93,9.75-3.19,20.24-4.35,30.07-1.92,16.43,4.06,28.74,18.31,30.5,33.82,1.76,15.51-6.49,31.51-20.03,41.22-22.99,16.49-61.44,16.28-76.52-8.69Z" fill="#ff3800"/>
  <path d="m496.91,1211.1c13.54-9.71,21.79-25.71,20.03-41.22-1.76-15.51-14.06-29.76-30.5-33.82-9.83-2.43-20.32-1.27-30.07,1.92-3.33,1.09-6.58,2.42-9.69,3.93-12.86,6.23-24.35,15.96-29.15,28.51-4,10.46-2.94,22.4,2.86,32,15.08,24.97,53.53,25.18,76.52,8.69Zm-68.23-17.56c-4.54-7.51-5.37-16.85-2.24-25.03,3.76-9.81,12.74-17.43,22.81-22.3,2.43-1.18,4.97-2.22,7.58-3.07,7.63-2.5,15.83-3.4,23.53-1.5,12.86,3.17,22.48,14.32,23.86,26.46,1.38,12.14-5.08,24.65-15.67,32.25-17.98,12.9-48.07,12.73-59.87-6.8Z" fill="#ff9600"/>
  <path d="m504.22,1168.1c-1.38-12.14-11-23.29-23.86-26.46-7.69-1.9-15.9-1-23.53,1.5-2.61.85-5.15,1.89-7.58,3.07-10.06,4.88-19.05,12.49-22.81,22.3-3.13,8.19-2.3,17.52,2.24,25.03,11.8,19.54,41.88,19.7,59.87,6.8,10.59-7.6,17.04-20.11,15.67-32.25Z" fill="#700a00"/>
  <path d="m385.01,1268.06c-1.63-1.52-4.46-2.36-6.55-1.28-.8.42-1.36,1.03-1.76,1.74h8.76c-.14-.15-.29-.31-.45-.46Z" fill="#700a00"/>
  <path d="m80.76,1257.89c7.22-40.79,28.5-79.13,56.94-112,15.13-17.49,32.61-33.77,53.37-45.73,2.97-1.71,6.02-3.34,9.13-4.86,24.84-12.18,54.61-17.65,81.81-11.21,14.14,3.35,28.57,11.32,31.51,24.05,2.69,11.62-4.91,22.99-8.95,34.37-5.6,15.78-4.26,33.35,3.67,48.17,7.94,14.83,22.07,26.81,27.85,42.43,4.19,11.33,3.56,23.49.8,35.35l11.4.02c2.86-12.68,3.43-25.65-1.04-37.75-6.29-17.01-21.67-30.04-30.32-46.19-8.64-16.14-10.1-35.26-4-52.44,4.4-12.39,12.66-24.77,9.74-37.42-3.2-13.86-18.91-22.54-34.3-26.19-29.61-7.01-62.02-1.06-89.06,12.2-3.39,1.66-6.7,3.43-9.94,5.3-22.6,13.02-41.63,30.75-58.1,49.78-30.96,35.79-54.13,77.52-61.99,121.92-.61,3.43-1.11,6.87-1.52,10.33l11.51.02c.39-3.4.88-6.78,1.48-10.15Z" fill="#ff3800"/>
  <path d="m99.31,1258.2c6.19-34.94,24.42-67.79,48.78-95.95,12.96-14.98,27.93-28.93,45.72-39.18,2.55-1.47,5.15-2.86,7.82-4.17,21.28-10.44,46.78-15.12,70.08-9.6,12.11,2.87,24.47,9.7,26.99,20.61,2.3,9.96-4.2,19.7-7.66,29.45-4.8,13.52-3.65,28.57,3.15,41.27,6.8,12.71,18.91,22.97,23.86,36.35,3.73,10.08,3.01,20.92.41,31.45l18.43.03c2.76-11.86,3.39-24.02-.8-35.35-5.78-15.62-19.91-27.6-27.85-42.43-7.94-14.82-9.28-32.39-3.67-48.17,4.04-11.38,11.63-22.75,8.95-34.37-2.94-12.73-17.37-20.71-31.51-24.05-27.2-6.44-56.97-.97-81.81,11.21-3.11,1.53-6.15,3.15-9.13,4.86-20.76,11.96-38.24,28.25-53.37,45.73-28.44,32.87-49.72,71.22-56.94,112-.6,3.37-1.08,6.76-1.48,10.15l18.62.03c.36-3.3.82-6.6,1.4-9.87Z" fill="#700a00"/>
  <path d="m122.95,1225.78c9.84-18.41,29.87-31.74,51.84-37.55,21.97-5.81,45.66-4.63,67.67.6,21.47,5.1,42.87,14.94,53.74,32.11,9,14.21,9.35,32.05,2.72,47.46l19.55.03c2.6-10.53,3.32-21.38-.41-31.45-4.95-13.38-17.05-23.64-23.86-36.35-6.8-12.7-7.95-27.75-3.15-41.27,3.46-9.75,9.96-19.49,7.66-29.45-2.52-10.91-14.88-17.74-26.99-20.61-23.3-5.52-48.81-.83-70.08,9.6-2.67,1.31-5.27,2.7-7.82,4.17-17.79,10.25-32.76,24.2-45.72,39.18-24.37,28.16-42.59,61.01-48.78,95.95-.58,3.27-1.05,6.57-1.4,9.87l17.17.03c-.69-14.44.88-29.23,7.87-42.32Zm51.81-68.89c1.69-3.99,4.71-7.45,8.03-10.55,18.98-17.77,48.13-24.94,75.46-23.22,3.39.21,6.9.62,10.17,1.47,3.87,1.01,7.4,2.67,9.97,5.39,3.67,3.9,4.63,9.28,4.82,14.39.41,11.21-2.26,22.54-7.72,32.72-3.3,6.16-8.02,7.98-15.09,4.95-11.4-4.88-23.61-8.97-36.32-8.94-12.82.03-41.51,9.89-49.14-3.82-2.11-3.79-1.87-8.4-.18-12.39Z" fill="#ff9600"/>
  <path d="m138.49,1237.65c8.05-15.07,24.45-25.98,42.43-30.74,17.99-4.76,37.38-3.79,55.39.49,17.58,4.18,35.09,12.23,43.99,26.28,6.57,10.37,7.49,23.1,3.77,34.68l14.85.02c6.63-15.41,6.28-33.25-2.72-47.46-10.87-17.16-32.27-27-53.74-32.11-22.01-5.23-45.7-6.41-67.67-.6-21.97,5.81-42,19.14-51.84,37.55-6.99,13.09-8.57,27.88-7.87,42.32l16.84.03c-.08-10.47,1.51-21.01,6.56-30.47Z" fill="#ff3800"/>
  <path d="m152.18,1267.44c-6.66-9.18-8.51-21.58-2.58-31.29,4.42-7.24,12.61-12.27,21.38-14.94.15-.04.29-.09.44-.13,8.64-2.56,17.85-3.08,26.94-3.16,14.23-.12,28.68.87,41.97,5.25,13.29,4.38,25.4,12.51,31.56,23.83,3.55,6.53,4.78,14.18,3.44,21.35h8.76c3.72-11.57,2.8-24.29-3.77-34.67-8.9-14.05-26.41-22.1-43.99-26.28-18.01-4.28-37.41-5.25-55.39-.49-17.98,4.76-34.38,15.67-42.43,30.74-5.05,9.46-6.65,20-6.56,30.47l20.81.03c-.18-.24-.37-.47-.55-.71Z" fill="#ff9600"/>
  <path d="m224.08,1173.1c12.71-.03,24.92,4.07,36.32,8.94,7.07,3.02,11.79,1.21,15.09-4.95,5.46-10.18,8.13-21.51,7.72-32.72-.19-5.11-1.14-10.49-4.82-14.39-2.57-2.73-6.1-4.38-9.97-5.39-3.27-.86-6.79-1.26-10.17-1.47-27.33-1.72-56.48,5.45-75.46,23.22-3.31,3.1-6.33,6.56-8.03,10.55-1.69,3.99-1.94,8.6.18,12.39,7.63,13.71,36.32,3.85,49.14,3.82Zm-41.61-18.41c1.4-2.91,3.94-5.41,6.75-7.65,16.06-12.83,41.01-17.79,64.53-16.26,2.91.19,5.94.52,8.77,1.18,3.34.78,6.4,2.03,8.65,4.05,3.21,2.9,4.11,6.85,4.35,10.59.51,8.22-1.62,16.49-6.17,23.89-2.75,4.48-6.78,5.77-12.9,3.48-9.87-3.69-20.42-6.81-31.35-6.92-11.02-.11-35.53,6.83-42.29-3.29-1.87-2.8-1.73-6.17-.33-9.08Z" fill="#700a00"/>
  <path d="m225.09,1167.06c10.93.1,21.48,3.23,31.35,6.92,6.12,2.29,10.15,1,12.9-3.48,4.55-7.4,6.68-15.67,6.17-23.89-.23-3.75-1.13-7.7-4.35-10.59-2.24-2.02-5.3-3.27-8.65-4.05-2.82-.66-5.85-.99-8.77-1.18-23.52-1.53-48.47,3.43-64.53,16.26-2.8,2.24-5.35,4.74-6.75,7.65-1.4,2.91-1.54,6.28.33,9.08,6.76,10.12,31.27,3.18,42.29,3.29Zm-30.12-13.44c1.02-2.13,2.88-3.96,4.93-5.6,11.74-9.38,29.99-13.01,47.19-11.89,2.13.14,4.35.38,6.41.86,2.45.57,4.68,1.48,6.32,2.96,2.35,2.12,3.01,5.01,3.18,7.75.38,6.01-1.19,12.06-4.51,17.47-2.01,3.28-4.96,4.22-9.43,2.54-7.22-2.7-14.93-4.98-22.92-5.06-8.06-.08-25.98,5-30.93-2.41-1.37-2.05-1.26-4.51-.24-6.64Z" fill="#ff9600"/>
  <path d="m226.13,1162.66c7.99.08,15.71,2.36,22.92,5.06,4.48,1.67,7.42.73,9.43-2.54,3.32-5.41,4.89-11.46,4.51-17.47-.17-2.74-.83-5.63-3.18-7.75-1.64-1.48-3.88-2.39-6.32-2.96-2.06-.48-4.28-.72-6.41-.86-17.2-1.12-35.45,2.51-47.19,11.89-2.05,1.64-3.91,3.47-4.93,5.6-1.02,2.13-1.13,4.59.24,6.64,4.94,7.4,22.87,2.33,30.93,2.41Z" fill="#ff3800"/>
  <path d="m164.69,1265.16c-5.24-7.23-6.69-16.99-2.03-24.62,3.48-5.7,9.93-9.66,16.82-11.76.11-.03.23-.07.34-.1,6.8-2.01,14.05-2.43,21.2-2.48,11.2-.09,22.57.68,33.03,4.13,10.46,3.45,19.99,9.84,24.83,18.75,3.2,5.9,4.01,12.94,2.1,19.25l14.32.02c1.35-7.17.12-14.81-3.44-21.35-6.15-11.32-18.27-19.45-31.56-23.83-13.29-4.38-27.74-5.37-41.97-5.25-9.08.07-18.3.6-26.94,3.16-.15.04-.29.09-.44.13-8.77,2.67-16.96,7.7-21.38,14.94-5.93,9.7-4.08,22.1,2.58,31.29.18.24.37.48.55.71l14.46.02c-.9-.96-1.74-1.96-2.5-3.02Z" fill="#ffcb90"/>
  <path d="m179.85,1262.4c-3.52-4.86-4.5-11.41-1.36-16.54,2.34-3.83,6.67-6.49,11.3-7.9.08-.02.15-.05.23-.07,4.57-1.35,9.44-1.63,14.24-1.67,7.52-.06,15.16.46,22.19,2.78,7.03,2.32,13.43,6.61,16.68,12.6,2.82,5.19,2.89,11.71-.32,16.7l18.16.03c1.91-6.31,1.1-13.35-2.1-19.25-4.84-8.91-14.38-15.3-24.83-18.75-10.46-3.45-21.83-4.22-33.03-4.13-7.15.06-14.4.47-21.2,2.48-.11.03-.23.07-.34.1-6.9,2.1-13.34,6.06-16.82,11.76-4.66,7.64-3.21,17.4,2.03,24.62.77,1.06,1.61,2.06,2.5,3.02l18.84.03c-2.41-1.63-4.53-3.55-6.17-5.81Z" fill="#700a00"/>
  <path d="m243.14,1251.6c-3.25-5.99-9.66-10.28-16.68-12.6-7.03-2.32-14.67-2.84-22.19-2.78-4.8.04-9.67.32-14.24,1.67-.08.02-.15.05-.23.07-4.63,1.41-8.97,4.07-11.3,7.9-3.13,5.13-2.16,11.69,1.36,16.54,1.64,2.26,3.77,4.18,6.17,5.81l56.8.09c3.21-5,3.14-11.51.32-16.7Z" fill="#ff9600"/>
  <path d="m261.64,1055.95c7.91.8,17.27,1.94,22.68-3.19,5.71-5.4,3.01-13.83,1.15-20.93-7.19-27.44,5.48-58.21,31.17-75.7,9.44-6.42,20.58-11.3,27.84-19.59,7.26-8.29,8.69-21.88-1.05-27.78-11.48-6.95-26.52,1.6-39.68,6.05-24.82,8.38-53.61.68-74.23-13.64-26.25-18.22-46.73-48.31-62.04-73.94-10.29-17.22-18.14-35.78-21.11-55.13-2.31-15.06,4.7-36.97-8.74-48.8-8.66-7.62-22.43-10.72-34.47-8.53-16.12,2.93-29.34,13.62-37.54,26.06-8.2,12.44-12.09,26.59-15.57,40.57-20.75,83.22-30.74,168.35-30.11,253.31.39,52.24,4.79,104.42,13.23,156.07,1.88,11.49,10.42,34.04,29.46,26.05,9.16-3.84,10.91-14.24,14.06-21.65,14.05-33.08,34.2-64.94,61.34-91.4,31.25-30.46,77.25-52.52,123.63-47.81Zm-180.29,107.03c-2.77,6.27-4.3,15.07-12.4,18.31-16.83,6.74-24.44-12.35-26.12-22.08-7.57-43.72-11.57-87.88-12.02-132.09-.72-71.9,7.95-143.92,26.14-214.33,3.06-11.82,6.47-23.8,13.7-34.31,7.24-10.52,18.91-19.55,33.18-22.01,10.66-1.84,22.85.8,30.53,7.26,11.92,10.03,5.76,28.56,7.83,41.31,2.67,16.38,9.66,32.09,18.79,46.68,13.6,21.7,31.78,47.19,55.05,62.64,18.28,12.14,43.77,18.69,65.72,11.63,11.63-3.74,24.92-10.96,35.1-5.07,8.63,5,7.4,16.5.99,23.51-6.41,7-16.26,11.12-24.6,16.55-22.7,14.77-33.85,40.8-27.43,64.02,1.66,6.01,4.06,13.14-.98,17.71-4.78,4.33-13.07,3.36-20.07,2.67-41.06-4.04-81.72,14.58-109.32,40.32-23.97,22.36-41.74,49.3-54.11,77.27Z" fill="#700a00"/>
  <path d="m244.78,1045.39c7,.69,15.28,1.66,20.07-2.67,5.04-4.56,2.64-11.7.98-17.71-6.42-23.23,4.73-49.25,27.43-64.02,8.34-5.43,18.19-9.54,24.6-16.55,6.41-7,7.65-18.5-.99-23.51-10.18-5.89-23.47,1.33-35.1,5.07-21.95,7.06-47.44.51-65.72-11.63-23.27-15.45-41.45-40.94-55.05-62.64-9.14-14.58-16.13-30.3-18.79-46.68-2.08-12.75,4.09-31.28-7.83-41.31-7.68-6.46-19.87-9.1-30.53-7.26-14.26,2.46-25.94,11.49-33.18,22.01-7.24,10.52-10.65,22.49-13.7,34.31-18.2,70.41-26.87,142.43-26.14,214.33.45,44.21,4.45,88.37,12.02,132.09,1.68,9.73,9.29,28.81,26.12,22.08,8.1-3.24,9.63-12.04,12.4-18.31,12.37-27.98,30.14-54.92,54.11-77.27,27.6-25.74,68.26-44.35,109.32-40.32Zm-120.22,36.86c-15.85,15.99-29.36,33.74-39.93,52.71-4.01,7.2-9.25,15.64-18.39,16.37-6.2.5-12.03-3.11-15.23-7.72-3.2-4.61-4.27-10.07-5.2-15.41-18.72-107.62-.99-218.63,36.73-322.94,2.97-8.22,8.2-17.94,18.09-18.5,9.94-.56,16.35,8.61,20.19,16.54,14.34,29.64,25.7,60.78,46.45,87.36,20.76,26.58,53.52,48.6,90.67,48.87,4.16.03,8.43-.2,12.39.88,3.96,1.08,7.64,3.85,7.96,7.45.21,2.41-1.08,4.72-2.34,6.89-11.49,19.78-22.97,39.56-34.46,59.34-7.65,13.17-20.76,18.71-36.79,21.62-10.02,1.82-20.63,3.23-29.76,7.53-9.4,4.43-17.43,10.71-25.45,16.78-8.94,6.77-17.19,14.41-24.92,22.22Z" fill="#ff9600"/>
  <path d="m174.93,1043.25c9.13-4.3,19.74-5.71,29.76-7.53,16.04-2.91,29.14-8.45,36.79-21.62,11.49-19.78,22.97-39.56,34.46-59.34,1.26-2.17,2.55-4.48,2.34-6.89-.31-3.6-4-6.38-7.96-7.45-3.96-1.08-8.22-.85-12.39-.88-37.16-.27-69.92-22.3-90.67-48.87-20.76-26.58-32.12-57.72-46.45-87.36-3.84-7.94-10.25-17.1-20.19-16.54-9.88.56-15.11,10.28-18.09,18.5-37.72,104.3-55.45,215.32-36.73,322.94.93,5.33,2,10.8,5.2,15.41,3.2,4.61,9.03,8.22,15.23,7.72,9.14-.73,14.38-9.17,18.39-16.37,10.57-18.98,24.08-36.72,39.93-52.71,7.73-7.8,15.98-15.44,24.92-22.22,8.02-6.07,16.05-12.35,25.45-16.78Zm-119.72-68.05c3.88-40.66,11.68-81.07,23.28-120.68,3.39-11.58,7.14-23.17,13.22-33.92,2.64-4.67,7.57-9.89,13.3-8.46,3.61.9,5.63,4.13,7.23,7.08,12.26,22.68,22.42,46.33,37.59,67.63,15.16,21.29,36.22,40.52,63.43,48.93,3.44,1.06,7,1.97,10.54,2.91.6.09,1.19.19,1.79.27,7.1,1,14.38,1.74,20.92,4.32,6.54,2.58,12.36,7.42,13.46,13.59,1.71,9.6-8.86,18.28-19.9,20.05-11.04,1.78-22.19-1.34-32.9-4.13-20.6-5.37-41.86-9.67-63.43-9.37-21.57.3-43.66,5.56-60.39,17.52-3.76,2.69-7.31,5.74-11.76,7.45-4.45,1.71-10.2,1.72-13.56-1.29-3.34-3-3.2-7.73-2.8-11.91Zm74.2,86.39c-10.63,13.28-19.99,27.73-34.26,38.13-4.89,3.56-10.4,6.63-16.53,8.13-6.13,1.5-12.96,1.29-18.5-1.37-4.05-1.95-7.21-5.12-9.36-8.68-4.13-6.85-4.6-14.91-4.42-22.67.5-21.98,5.86-44.53,20.19-62.78,15.27-19.45,39.98-32.65,66.35-37.88,25.69-5.1,52.79-2.98,77.78,3.96.65.18,1.3.36,1.94.55,10.36,2.99,21.57,7.9,24.46,17.04,2.54,8.02-2.65,16.8-10.38,21.82-7.72,5.02-17.48,6.97-27.01,8.12-13.99,1.69-29.21,3.63-41.53,10.61-11.52,6.53-20.92,15.24-28.73,25.01Z" fill="#ff3800"/>
  <path d="m226.69,1017.85c7.72-5.02,12.91-13.81,10.38-21.82-2.89-9.14-14.1-14.05-24.46-17.04-.65-.19-1.29-.37-1.94-.55-24.99-6.94-52.08-9.06-77.78-3.96-26.36,5.23-51.08,18.43-66.35,37.88-14.33,18.25-19.69,40.8-20.19,62.78-.18,7.76.3,15.82,4.42,22.67,2.15,3.56,5.31,6.73,9.36,8.68,5.53,2.66,12.36,2.87,18.5,1.37,6.13-1.5,11.64-4.56,16.53-8.13,14.28-10.4,23.63-24.84,34.26-38.13,7.82-9.77,17.21-18.49,28.73-25.01,12.32-6.98,27.54-8.91,41.53-10.61,9.53-1.15,19.28-3.1,27.01-8.12Zm-75.76,14.65c-9.09,5.15-16.5,12.03-22.67,19.74-8.39,10.48-15.77,21.88-27.03,30.09-3.86,2.81-8.2,5.23-13.04,6.41-4.84,1.18-10.23,1.02-14.59-1.08-3.2-1.54-5.69-4.04-7.39-6.85-3.26-5.4-3.63-11.77-3.49-17.89.4-17.34,4.63-35.14,15.93-49.54,12.05-15.35,31.55-25.76,52.35-29.89,20.27-4.02,41.65-2.35,61.37,3.13.51.14,1.02.29,1.53.43,8.18,2.36,17.02,6.23,19.3,13.45,2,6.33-2.09,13.26-8.19,17.22-6.1,3.96-13.8,5.5-21.31,6.41-11.04,1.34-23.05,2.86-32.77,8.37Z" fill="#700a00"/>
  <path d="m205.02,1017.72c6.1-3.96,10.19-10.89,8.19-17.22-2.28-7.22-11.13-11.09-19.3-13.45-.51-.15-1.02-.29-1.53-.43-19.72-5.48-41.1-7.15-61.37-3.13-20.8,4.13-40.31,14.54-52.35,29.89-11.3,14.4-15.53,32.19-15.93,49.54-.14,6.12.23,12.49,3.49,17.89,1.7,2.81,4.19,5.31,7.39,6.85,4.36,2.1,9.76,2.26,14.59,1.08,4.84-1.18,9.18-3.6,13.04-6.41,11.26-8.21,18.65-19.6,27.03-30.09,6.17-7.71,13.58-14.59,22.67-19.74,9.72-5.51,21.73-7.03,32.77-8.37,7.52-.91,15.22-2.44,21.31-6.41Zm-23.45-.58c-4.29,2.79-9.71,3.87-15,4.51-7.77.94-16.23,2.01-23.07,5.89-6.4,3.63-11.62,8.47-15.96,13.9-5.9,7.38-11.1,15.4-19.03,21.18-2.72,1.98-5.77,3.68-9.18,4.52-3.41.83-7.2.72-10.27-.76-2.25-1.08-4.01-2.84-5.2-4.82-2.29-3.8-2.56-8.28-2.46-12.59.28-12.21,3.26-24.74,11.21-34.87,8.48-10.8,22.21-18.14,36.86-21.04,14.27-2.83,29.33-1.65,43.21,2.2.36.1.72.2,1.08.31,5.76,1.66,11.98,4.39,13.59,9.47,1.41,4.45-1.47,9.33-5.76,12.12Z" fill="#ff9600"/>
  <path d="m173.74,995.55c-.36-.1-.72-.21-1.08-.31-13.88-3.86-28.93-5.03-43.21-2.2-14.64,2.91-28.38,10.24-36.86,21.04-7.96,10.14-10.94,22.66-11.21,34.87-.1,4.31.16,8.79,2.46,12.59,1.19,1.98,2.95,3.74,5.2,4.82,3.07,1.48,6.87,1.59,10.27.76,3.41-.83,6.46-2.54,9.18-4.52,7.93-5.78,13.13-13.8,19.03-21.18,4.34-5.43,9.56-10.27,15.96-13.9,6.84-3.88,15.3-4.95,23.07-5.89,5.29-.64,10.71-1.72,15-4.51,4.29-2.79,7.17-7.67,5.76-12.12-1.61-5.08-7.83-7.81-13.59-9.47Zm-15.65,22.63c-2.51,1.63-5.68,2.26-8.78,2.64-4.55.55-9.49,1.18-13.5,3.45-3.74,2.12-6.8,4.95-9.34,8.13-3.45,4.32-6.5,9.01-11.14,12.39-1.59,1.16-3.38,2.16-5.37,2.64-1.99.49-4.21.42-6.01-.45-1.32-.63-2.34-1.66-3.04-2.82-1.34-2.23-1.5-4.85-1.44-7.37.16-7.14,1.91-14.47,6.56-20.4,4.96-6.32,13-10.61,21.56-12.31,8.35-1.66,17.16-.97,25.28,1.29.21.06.42.12.63.18,3.37.97,7.01,2.57,7.95,5.54.82,2.61-.86,5.46-3.37,7.09Z" fill="#ff3800"/>
  <path d="m153.51,1005.54c-.21-.06-.42-.12-.63-.18-8.12-2.26-16.93-2.95-25.28-1.29-8.57,1.7-16.6,5.99-21.56,12.31-4.66,5.93-6.4,13.26-6.56,20.4-.06,2.52.1,5.14,1.44,7.37.7,1.16,1.73,2.19,3.04,2.82,1.8.87,4.02.93,6.01.45,1.99-.49,3.78-1.48,5.37-2.64,4.64-3.38,7.68-8.07,11.14-12.39,2.54-3.18,5.59-6.01,9.34-8.13,4-2.27,8.95-2.9,13.5-3.45,3.1-.37,6.27-1.01,8.78-2.64,2.51-1.63,4.2-4.49,3.37-7.09-.94-2.97-4.58-4.57-7.95-5.54Z" fill="#700a00"/>
  <path d="m71.56,988.4c4.45-1.71,8-4.76,11.76-7.45,16.73-11.97,38.82-17.22,60.39-17.52,21.57-.3,42.83,4,63.43,9.37,10.71,2.79,21.85,5.91,32.9,4.13,11.04-1.78,21.61-10.45,19.9-20.05-1.1-6.17-6.92-11.02-13.46-13.59-6.54-2.58-13.82-3.31-20.92-4.32-.6-.08-1.19-.18-1.79-.27-3.54-.94-7.1-1.85-10.54-2.91-27.2-8.41-48.26-27.64-63.43-48.93-15.16-21.29-25.33-44.95-37.59-67.63-1.59-2.95-3.61-6.18-7.23-7.08-5.72-1.42-10.66,3.79-13.3,8.46-6.07,10.75-9.82,22.34-13.22,33.92-11.6,39.6-19.39,80.02-23.28,120.68-.4,4.18-.54,8.91,2.8,11.91,3.35,3.01,9.11,3,13.56,1.29Zm26.46-146.24c.64-1.97,1.39-4.07,3.23-5.35.65-.45,1.39-.75,2.17-.93,2.25-.5,4.87.06,6.8,1.27,2.59,1.63,4.2,4.16,5.64,6.65,8.82,15.23,14.41,31.83,24.14,46.63,19.59,29.81,54.61,49.98,91.78,61.79,2.94.93,6,1.88,8.21,3.79,2.21,1.92,3.28,5.13,1.56,7.42-1.97,2.62-6.29,2.77-9.82,2.23-8.58-1.32-16.37-4.97-24.41-7.85-35.49-12.72-77.98-9.98-111.26,7.18-8.03,4.14-21.92,11.02-26.58-.5-1.45-3.58-1.02-7.51-.51-11.29,5.11-37.76,17.12-74.51,29.06-111.03Z" fill="#ffcb90"/>
  <path d="m96.05,964.98c33.28-17.16,75.77-19.9,111.26-7.18,8.04,2.88,15.83,6.53,24.41,7.85,3.52.54,7.85.39,9.82-2.23,1.72-2.29.65-5.5-1.56-7.42-2.21-1.92-5.27-2.86-8.21-3.79-37.17-11.81-72.19-31.98-91.78-61.79-9.73-14.8-15.32-31.4-24.14-46.63-1.44-2.48-3.05-5.02-5.64-6.65-1.92-1.21-4.54-1.78-6.8-1.27-.78.18-1.52.48-2.17.93-1.85,1.28-2.59,3.38-3.23,5.35-11.94,36.53-23.95,73.28-29.06,111.03-.51,3.78-.94,7.72.51,11.29,4.66,11.51,18.55,4.64,26.58.5Zm-8.72-60.46c3.33-12.62,7.56-25.13,13.69-36.98,1.34-2.6,3.09-5.41,6.2-6.31.19-.06.38-.1.58-.14,3.1-.61,6.41.98,8.34,3.21,2.04,2.37,2.9,5.33,3.86,8.18,7.28,21.62,23.29,40.87,44.6,53.65,2.4,1.44,4.91,2.84,6.61,4.89,1.7,2.05,2.39,4.97.85,7.14-1.34,1.89-4.04,2.76-6.58,2.8-2.54.04-5.01-.63-7.46-1.16-18.03-3.94-37.64-1.21-54.33,6.14-3.02,1.33-5.99,2.82-9.25,3.58-3.26.76-6.95.71-9.74-.9-2.86-1.65-4.33-4.68-4.61-7.66-1.08-11.4,4.35-25.35,7.27-36.41Z" fill="#ff3800"/>
  <path d="m84.66,948.59c2.79,1.61,6.48,1.67,9.74.9,3.26-.76,6.23-2.25,9.25-3.58,16.69-7.35,36.3-10.08,54.33-6.14,2.46.54,4.92,1.2,7.46,1.16,2.54-.04,5.24-.91,6.58-2.8,1.54-2.17.85-5.09-.85-7.14-1.7-2.05-4.21-3.46-6.61-4.89-21.31-12.77-37.32-32.03-44.6-53.65-.96-2.85-1.81-5.81-3.86-8.18-1.92-2.23-5.23-3.81-8.34-3.21-.19.04-.39.08-.58.14-3.11.9-4.86,3.71-6.2,6.31-6.13,11.85-10.36,24.36-13.69,36.98-2.92,11.07-8.35,25.02-7.27,36.41.28,2.98,1.75,6.01,4.61,7.66Zm17.25-59.78c.44-1.33.92-2.72,2.02-3.73.92-.86,2.15-1.31,3.47-1.43,1.95-.18,4.07.36,5.66,1.39,2.65,1.73,4.18,4.43,5.7,6.99,5.47,9.23,12.07,17.94,19.65,25.95,1.55,1.64,3.25,3.67,2.48,5.71-.59,1.55-2.4,2.45-4.09,3.16-9.21,3.83-35.43,12.8-42.22,1.55-1.48-2.44-1.08-5.4-.59-8.14,1.88-10.6,4.53-21.11,7.93-31.44Z" fill="#700a00"/>
  <path d="m94.58,928.4c6.79,11.25,33.01,2.29,42.22-1.55,1.69-.7,3.51-1.61,4.09-3.16.77-2.03-.93-4.07-2.48-5.71-7.58-8.01-14.18-16.73-19.65-25.95-1.52-2.56-3.04-5.26-5.7-6.99-1.58-1.03-3.71-1.57-5.66-1.39-1.31.12-2.54.57-3.47,1.43-1.1,1.01-1.58,2.4-2.02,3.73-3.39,10.33-6.04,20.84-7.93,31.44-.49,2.74-.89,5.7.59,8.14Zm11.72-28.31c.25-.76.53-1.55,1.15-2.12.53-.49,1.22-.74,1.97-.81,1.11-.1,2.32.21,3.22.79,1.51.98,2.38,2.52,3.24,3.97,3.11,5.25,6.86,10.2,11.17,14.76.88.93,1.85,2.09,1.41,3.25-.33.88-1.36,1.39-2.33,1.79-5.24,2.18-20.14,7.28-24.01.88-.84-1.39-.61-3.07-.34-4.63,1.07-6.03,2.58-12,4.51-17.88Z" fill="#ff9600"/>
  <path d="m102.13,922.6c3.86,6.4,18.77,1.3,24.01-.88.96-.4,1.99-.91,2.33-1.79.44-1.16-.53-2.31-1.41-3.25-4.31-4.55-8.06-9.51-11.17-14.76-.86-1.46-1.73-2.99-3.24-3.97-.9-.59-2.11-.89-3.22-.79-.75.07-1.45.33-1.97.81-.62.58-.9,1.36-1.15,2.12-1.93,5.87-3.44,11.85-4.51,17.88-.28,1.56-.5,3.24.34,4.63Z" fill="#ff3800"/>
  <path d="m132.51,606.86c-23.97-6.65-49.76-7.22-73.92-13.35-24.16-6.13-48.27-20.15-53.42-41.56-3.94-16.37,3.6-35.1-5.2-49.56l.11,65.65c9.07,18.21,27.31,32.73,48.68,39.95,26.43,8.93,56.33,7.6,81.96,18.6,14.1,6.05,27.12,17.33,26.77,31.04-.36,14.47-16.2,26.09-32.68,28.41s-33.08-2.61-48.07-8.8c-14.99-6.19-29.42-13.78-45.53-17.34-8.67-1.92-17.96-2.6-26.56-.34-1.5.4-2.98.9-4.41,1.49l.05,29.9c1.47-5.85,3.64-11.27,8.91-14.91,5.99-4.14,14.49-4.52,21.8-2.72,7.31,1.8,13.75,5.48,20.21,8.94,16.49,8.83,34.11,16.59,53.21,19.7,19.09,3.11,39.93,1.17,56.25-8.18,47.97-27.47,14.5-75.08-28.15-86.92Z" fill="#ff3800"/>
  <path d="m130.72,626.6c-25.63-11.01-55.53-9.68-81.96-18.6-21.37-7.22-39.61-21.75-48.68-39.95l.06,33.13c6.23,6.88,14.23,14.38,12.85,23.29-1.08,6.95-6.61,12.9-12.78,17.67l.03,18.93c1.43-.59,2.91-1.09,4.41-1.49,8.61-2.26,17.89-1.58,26.56.34,16.11,3.56,30.54,11.15,45.53,17.34,14.99,6.19,31.59,11.12,48.07,8.8s32.31-13.94,32.68-28.41c.35-13.71-12.67-24.98-26.77-31.04Zm6.21,39.91c-5.9,5.43-15.16,6.91-23.71,6.82-15.07-.15-29.68-4.19-43.59-9.11-11.87-4.2-23.5-9.1-33.78-15.72-2.97-1.91-7.18-5.29-9.68-8.99-2.7-3.99-3.43-8.34,1.48-11.65,2.01-1.36,4.5-2.05,6.97-2.59,11.72-2.56,23.98-2.14,35.96-1.12,18.62,1.59,37.32,4.66,54.09,11.76,6.15,2.6,12.28,5.99,15.44,11.25,3.68,6.12,2.34,14.26-3.16,19.33Z" fill="#ff9600"/>
  <path d="m.13,601.17l.03,19.61c.72,1.56,1.14,3.19,1.15,4.92,0,1.72-.41,3.39-1.13,4.99l.02,11.43c6.17-4.77,11.7-10.71,12.78-17.67,1.38-8.91-6.62-16.41-12.85-23.29Z" fill="#ff3800"/>
  <path d="m136.93,666.51c5.51-5.07,6.84-13.21,3.16-19.33-3.16-5.27-9.29-8.65-15.44-11.25-16.77-7.1-35.46-10.18-54.09-11.76-11.98-1.02-24.25-1.44-35.96,1.12-2.46.54-4.95,1.23-6.97,2.59-4.91,3.3-4.18,7.66-1.48,11.65,2.51,3.7,6.71,7.07,9.68,8.99,10.28,6.62,21.91,11.52,33.78,15.72,13.91,4.92,28.52,8.95,43.59,9.11,8.55.09,17.81-1.39,23.71-6.82Zm-18.84-6.77c-3.78,3.48-9.73,4.43-15.21,4.38-9.67-.1-19.04-2.69-27.97-5.84-7.62-2.69-15.08-5.84-21.68-10.09-1.91-1.23-4.61-3.39-6.21-5.77-1.73-2.56-2.2-5.35.95-7.47,1.29-.87,2.89-1.32,4.47-1.66,7.52-1.64,15.39-1.37,23.07-.72,11.95,1.02,23.94,2.99,34.7,7.55,3.95,1.67,7.88,3.84,9.91,7.22,2.36,3.93,1.5,9.15-2.03,12.4Z" fill="#ff3800"/>
  <path d="m110.22,640.11c-10.76-4.56-22.75-6.53-34.7-7.55-7.69-.66-15.56-.92-23.07.72-1.58.35-3.18.79-4.47,1.66-3.15,2.12-2.68,4.92-.95,7.47,1.61,2.37,4.31,4.54,6.21,5.77,6.6,4.25,14.06,7.39,21.68,10.09,8.92,3.15,18.3,5.74,27.97,5.84,5.48.06,11.43-.89,15.21-4.38,3.53-3.25,4.39-8.47,2.03-12.4-2.03-3.38-5.96-5.55-9.91-7.22Z" fill="#700a00"/>
  <path d="m1.32,625.71c0-1.73-.43-3.36-1.15-4.92l.02,9.91c.72-1.59,1.14-3.27,1.13-4.99Z" fill="#ffcb90"/>
  <path d="m398.11,460.37c-13.01-7.41-29.47-10.3-40.46-19.85-7.53-6.55-11.59-15.52-18.15-22.81-27.65-30.75-89.94-19.94-113.74,9.73-5.38,6.71-9.23,14.28-14.67,20.95-5.52,6.77-12.56,12.47-18.8,18.75-31.97,32.19-40.41,80.51-20.8,119.05,6.48,12.73,15.9,24.47,28.04,33.45,3,2.22,6.16,4.26,9.49,6.12,17.71,9.86,39.34,13.79,60.46,12.97,21.13-.82,41.82-6.17,61.21-13.66,25.55-9.88,49.46-23.75,67.48-42.35,18.03-18.6,29.88-42.18,30.26-66.37.34-21.59-9.63-44.19-30.33-55.98Zm-8.23,117.26c-16.58,17.11-38.55,29.86-62.05,38.94-17.82,6.89-36.85,11.81-56.28,12.56-19.43.75-39.31-2.86-55.59-11.92-3.06-1.7-5.97-3.59-8.73-5.62-11.17-8.26-19.83-19.05-25.79-30.76-18.03-35.43-10.27-79.86,19.12-109.46,5.73-5.77,12.21-11.02,17.28-17.24,5.01-6.14,8.54-13.09,13.49-19.26,21.88-27.28,79.16-37.22,104.58-8.95,6.04,6.71,9.76,14.95,16.69,20.98,10.1,8.78,25.24,11.44,37.2,18.25,19.03,10.84,28.19,31.62,27.88,51.47-.35,22.24-11.24,43.92-27.82,61.03Z" fill="#700a00"/>
  <path d="m389.82,465.14c-11.96-6.81-27.1-9.47-37.2-18.25-6.93-6.02-10.66-14.27-16.69-20.98-25.42-28.27-82.7-18.33-104.58,8.95-4.95,6.17-8.48,13.13-13.49,19.26-5.07,6.22-11.55,11.47-17.28,17.24-29.4,29.6-37.16,74.03-19.12,109.46,5.96,11.7,14.62,22.5,25.79,30.76,2.76,2.04,5.67,3.92,8.73,5.62,16.28,9.07,36.17,12.68,55.59,11.92,19.43-.75,38.45-5.67,56.28-12.56,23.5-9.08,45.47-21.83,62.05-38.94,16.58-17.11,27.47-38.79,27.82-61.03.31-19.85-8.86-40.63-27.88-51.47Zm-11.02,105.7c-14.64,15.1-34.04,26.36-54.79,34.38-15.74,6.08-32.54,10.42-49.69,11.09-17.15.66-34.71-2.52-49.09-10.53-2.7-1.5-5.27-3.17-7.7-4.97-9.86-7.29-17.51-16.82-22.77-27.16-15.92-31.29-9.07-70.51,16.88-96.65,5.06-5.1,10.78-9.73,15.26-15.22,4.42-5.42,7.54-11.56,11.91-17.01,19.32-24.09,69.89-32.86,92.34-7.9,5.33,5.93,8.62,13.2,14.74,18.52,8.92,7.76,22.28,10.1,32.84,16.12,16.8,9.57,24.89,27.92,24.62,45.44-.31,19.64-9.93,38.78-24.56,53.88Z" fill="#ff3800"/>
  <path d="m378.74,471.51c-10.56-6.02-23.92-8.36-32.84-16.12-6.12-5.32-9.41-12.6-14.74-18.52-22.45-24.96-73.02-16.19-92.34,7.9-4.37,5.45-7.49,11.59-11.91,17.01-4.48,5.49-10.2,10.13-15.26,15.22-25.96,26.14-32.81,65.36-16.88,96.65,5.26,10.33,12.91,19.87,22.77,27.16,2.43,1.8,5,3.46,7.7,4.97,14.38,8.01,31.93,11.19,49.09,10.53,17.15-.66,33.95-5,49.69-11.09,20.74-8.02,40.15-19.28,54.79-34.38,14.64-15.1,24.26-34.25,24.56-53.88.27-17.53-7.82-35.87-24.62-45.44Zm-53.56,126.81c-32.57,11.66-72.68,5.63-97.71-15.52-3.22-2.72-6.15-5.67-8.79-8.82-7.45-8.88-12.54-19.25-15-30.06-1.67-7.38-2.13-14.99-1.25-22.51,1.24-10.57,5.55-22.52,12.53-31.33,2.4-3.03,4.93-5.98,7.57-8.86,5.3-5.74,11.07-11.16,17.26-16.18,12.51-10.17,26.72-18.77,42.08-25.36,5.04-2.16,10.73-4.16,16.12-2.87,6.88,1.65,10.66,8.01,12.45,14.01,1.79,6,2.52,12.49,6.66,17.52,4.94,6.01,13.71,8.63,22.09,10.01,8.38,1.38,17.15,1.94,24.76,5.25,8.78,3.82,15.16,11.07,18.46,19.1,3.3,8.03,3.73,16.81,2.69,25.32-3.72,30.33-27.36,58.63-59.93,70.29Z" fill="#ff9600"/>
  <path d="m382.42,502.71c-3.3-8.03-9.68-15.29-18.46-19.1-7.61-3.31-16.38-3.86-24.76-5.25-8.38-1.38-17.15-4-22.09-10.01-4.14-5.03-4.87-11.52-6.66-17.52-1.79-6-5.58-12.36-12.45-14.01-5.39-1.29-11.07.7-16.12,2.87-15.35,6.59-29.56,15.19-42.08,25.36-6.19,5.03-11.96,10.44-17.26,16.18-2.65,2.87-5.17,5.83-7.57,8.86-6.98,8.81-11.3,20.76-12.53,31.33-.88,7.51-.43,15.12,1.25,22.51,2.45,10.81,7.54,21.18,15,30.06,2.64,3.14,5.57,6.1,8.79,8.82,25.02,21.15,65.14,27.18,97.71,15.52,32.57-11.66,56.21-39.96,59.93-70.29,1.05-8.52.61-17.29-2.69-25.32Zm-160.88,44.22c-1.96-.79-3.73-1.86-5.19-3.28-4.14-4.02-4.89-9.9-4.48-15.31.74-9.87,4.65-19.42,9.84-28.26,5.89-10.04,13.58-19.43,23.58-26.62,7.81-5.61,17.09-9.84,27.01-11.66,8.42-1.55,20.82-2.34,27.28,3.55,3.5,3.19,4.49,7.91,4.43,12.34-.11,8.16-3.19,16.06-7.08,23.44-7.68,14.58-18.96,28-33.94,37.41-8.2,5.15-17.64,9.1-27.66,10.01-4.65.42-9.64.05-13.79-1.62Zm149.92-9.54c-6.63,25.37-30.19,47.16-59.15,53.88-28.82,6.69-61.64-2.17-80.22-22.17-.1-.1-.19-.21-.29-.31-2.9-3.17-5.4-7.93-2.28-10.99,1.93-1.89,5.14-2.13,8.02-2.42,17.3-1.76,33.18-10.13,45.18-21.16,12.01-11.03,20.48-24.61,27.32-38.56,1.45-2.95,2.87-5.99,5.29-8.42,6.64-6.67,19.19-3.41,27.3-.91,9.47,2.93,18.18,8.04,23.69,15.44,7.65,10.29,8.29,23.59,5.14,35.62Z" fill="#ffcb90"/>
  <path d="m262.99,538.53c14.98-9.41,26.26-22.83,33.94-37.41,3.88-7.38,6.97-15.28,7.08-23.44.06-4.43-.93-9.15-4.43-12.34-6.46-5.9-18.85-5.1-27.28-3.55-9.92,1.82-19.2,6.04-27.01,11.66-10,7.19-17.69,16.59-23.58,26.62-5.19,8.84-9.09,18.39-9.84,28.26-.41,5.41.34,11.29,4.48,15.31,1.46,1.42,3.23,2.49,5.19,3.28,4.15,1.67,9.14,2.04,13.79,1.62,10.03-.91,19.47-4.86,27.66-10.01Zm-33.94-.37c-1.55-.62-2.95-1.48-4.11-2.6-3.28-3.19-3.87-7.85-3.55-12.14.59-7.82,3.69-15.39,7.8-22.4,4.67-7.96,10.76-15.4,18.69-21.11,6.19-4.45,13.54-7.8,21.41-9.24,6.68-1.23,16.5-1.86,21.62,2.82,2.77,2.53,3.56,6.27,3.51,9.78-.09,6.47-2.53,12.73-5.61,18.58-6.09,11.56-15.03,22.19-26.9,29.65-6.5,4.08-13.98,7.22-21.93,7.94-3.68.33-7.64.04-10.93-1.28Z" fill="#ff3800"/>
  <path d="m261.92,531.51c11.87-7.46,20.81-18.09,26.9-29.65,3.08-5.85,5.52-12.11,5.61-18.58.05-3.51-.73-7.25-3.51-9.78-5.12-4.67-14.94-4.04-21.62-2.82-7.87,1.45-15.22,4.79-21.41,9.24-7.93,5.7-14.02,13.15-18.69,21.11-4.11,7.01-7.21,14.58-7.8,22.4-.32,4.29.27,8.95,3.55,12.14,1.16,1.12,2.56,1.98,4.11,2.6,3.29,1.32,7.24,1.62,10.93,1.28,7.95-.72,15.43-3.85,21.93-7.94Zm-20.98-20.62c.38-5.07,2.39-9.97,5.05-14.51,3.02-5.15,6.97-9.98,12.11-13.67,4.01-2.88,8.77-5.05,13.87-5.99,4.33-.79,10.69-1.2,14.01,1.82,1.8,1.64,2.3,4.06,2.27,6.34-.06,4.19-1.64,8.25-3.63,12.03-3.94,7.49-9.73,14.38-17.43,19.21-4.21,2.64-9.06,4.68-14.21,5.14-2.39.22-4.95.03-7.08-.83-1-.4-1.91-.96-2.66-1.68-2.13-2.07-2.51-5.08-2.3-7.86Z" fill="#ff9600"/>
  <path d="m252.98,521.27c5.15-.46,10-2.5,14.21-5.14,7.69-4.83,13.48-11.72,17.43-19.21,1.99-3.79,3.58-7.85,3.63-12.03.03-2.28-.48-4.7-2.27-6.34-3.32-3.03-9.68-2.62-14.01-1.82-5.1.94-9.86,3.1-13.87,5.99-5.14,3.69-9.08,8.52-12.11,13.67-2.66,4.54-4.67,9.44-5.05,14.51-.21,2.78.17,5.8,2.3,7.86.75.73,1.66,1.28,2.66,1.68,2.13.86,4.69,1.05,7.08.83Zm.28-23.96c1.84-3.13,4.23-6.06,7.35-8.3,2.44-1.75,5.33-3.07,8.43-3.64,2.63-.48,6.49-.73,8.51,1.11,1.09,1,1.4,2.47,1.38,3.85-.03,2.54-1,5.01-2.21,7.31-2.4,4.55-5.91,8.73-10.59,11.67-2.56,1.61-5.5,2.84-8.63,3.12-1.45.13-3.01.02-4.3-.5-.61-.25-1.16-.58-1.62-1.02-1.29-1.26-1.52-3.09-1.4-4.78.23-3.08,1.45-6.06,3.07-8.81Z" fill="#700a00"/>
  <path d="m251.59,510.9c.46.44,1.01.78,1.62,1.02,1.29.52,2.85.64,4.3.5,3.13-.28,6.07-1.52,8.63-3.12,4.67-2.94,8.19-7.12,10.59-11.67,1.21-2.3,2.17-4.77,2.21-7.31.02-1.38-.29-2.85-1.38-3.85-2.01-1.84-5.88-1.59-8.51-1.11-3.1.57-5.99,1.89-8.43,3.64-3.12,2.24-5.52,5.17-7.35,8.3-1.62,2.76-2.84,5.74-3.07,8.81-.13,1.69.11,3.52,1.4,4.78Z" fill="#ff3800"/>
  <path d="m366.32,501.77c-5.5-7.4-14.22-12.52-23.69-15.44-8.11-2.51-20.66-5.76-27.3.91-2.42,2.43-3.85,5.47-5.29,8.42-6.84,13.95-15.31,27.53-27.32,38.56-12.01,11.03-27.89,19.4-45.18,21.16-2.87.29-6.09.54-8.02,2.42-3.13,3.05-.62,7.82,2.28,10.99.1.1.19.21.29.31,18.57,20,51.4,28.86,80.22,22.17,28.97-6.73,52.52-28.51,59.15-53.88,3.14-12.02,2.51-25.33-5.14-35.62Zm-5.9,40.37c-5.61,21.39-25.55,39.74-50.08,45.41-24.4,5.64-52.2-1.83-67.94-18.69-.08-.09-.16-.18-.24-.26-2.46-2.67-4.58-6.69-1.93-9.26,1.63-1.59,4.35-1.79,6.79-2.04,14.65-1.48,28.09-8.53,38.26-17.83,10.17-9.3,17.34-20.74,23.12-32.5,1.23-2.49,2.43-5.05,4.48-7.1,5.62-5.62,16.25-2.87,23.12-.76,8.02,2.47,15.4,6.78,20.06,13.02,6.48,8.67,7.02,19.88,4.36,30.02Z" fill="#ff3800"/>
  <path d="m356.06,512.13c-4.66-6.24-12.04-10.55-20.06-13.02-6.87-2.11-17.49-4.86-23.12.76-2.05,2.05-3.26,4.61-4.48,7.1-5.79,11.75-12.96,23.2-23.12,32.5-10.17,9.3-23.61,16.35-38.26,17.83-2.43.25-5.15.45-6.79,2.04-2.65,2.57-.53,6.59,1.93,9.26.08.09.16.18.24.26,15.73,16.86,43.53,24.33,67.94,18.69,24.53-5.67,44.47-24.02,50.08-45.41,2.66-10.13,2.12-21.34-4.36-30.02Zm-39.37,69.41c-20.14,6.24-44.21,1.65-58.86-11.59-.08-.07-.15-.14-.23-.21-2.29-2.1-4.41-5.35-2.38-7.68,1.25-1.44,3.53-1.78,5.56-2.13,12.24-2.15,23.02-8.91,30.84-17.37,7.83-8.46,12.95-18.54,16.88-28.8.83-2.17,1.64-4.4,3.21-6.25,4.29-5.08,13.49-3.5,19.46-2.14,6.97,1.59,13.55,4.85,17.99,9.82,6.17,6.91,7.54,16.32,6.12,25.03-3,18.36-18.34,35.05-38.58,41.33Z" fill="#ff9600"/>
  <path d="m349.15,515.18c-4.44-4.97-11.02-8.23-17.99-9.82-5.97-1.36-15.16-2.94-19.46,2.14-1.56,1.85-2.37,4.08-3.21,6.25-3.93,10.26-9.05,20.34-16.88,28.8-7.83,8.46-18.6,15.22-30.84,17.37-2.03.36-4.31.69-5.56,2.13-2.02,2.33.09,5.59,2.38,7.68.08.07.15.14.23.21,14.65,13.24,38.72,17.84,58.86,11.59,20.24-6.28,35.58-22.96,38.58-41.33,1.42-8.7.05-18.11-6.12-25.03Zm-12.9,50.01c-7.42,5.58-17.6,7.4-27.35,8.09-8.01.57-16.07.51-24.05-.16-2.26-.19-4.8-.58-6.02-2.24-.14-.19-.26-.4-.35-.61-.61-1.38-.17-3.07.78-4.35,1.09-1.48,2.75-2.57,4.31-3.69,6.6-4.77,11.97-10.83,15.57-17.59,4.72-8.85,6.55-19.6,15.09-26.54,7.34-5.97,18.42-8.32,25.48-.87,2.99,3.16,4.62,7.12,5.79,11.08,1.88,6.4,2.69,13.13,1.39,19.66-1.3,6.53-4.85,12.87-10.64,17.22Z" fill="#700a00"/>
  <path d="m339.71,517.23c-7.06-7.45-18.14-5.11-25.48.87-8.54,6.94-10.36,17.69-15.09,26.54-3.61,6.76-8.97,12.82-15.57,17.59-1.56,1.13-3.21,2.21-4.31,3.69-.95,1.28-1.39,2.97-.78,4.35.09.21.21.42.35.61,1.22,1.65,3.76,2.05,6.02,2.24,7.98.67,16.04.73,24.05.16,9.74-.69,19.93-2.51,27.35-8.09,5.79-4.36,9.34-10.69,10.64-17.22,1.3-6.53.49-13.26-1.39-19.66-1.17-3.97-2.8-7.93-5.79-11.08Zm-7.24,34.2c-2.1,3.7-6.04,6.76-10.71,7.5-1.61.26-3.34.22-4.78-.43-.13-.06-.25-.12-.37-.18-1.98-1.08-2.96-3.18-3.48-5.19-1.65-6.4-.04-13.18,2.87-19.27.69-1.45,1.47-2.89,2.69-4.05,3.83-3.64,10.03-1.86,12.91,1.7,1.84,2.28,2.61,5.09,2.93,7.87.47,4.09.03,8.35-2.08,12.06Z" fill="#ff9600"/>
  <path d="m331.62,531.5c-2.88-3.56-9.08-5.34-12.91-1.7-1.22,1.16-2,2.61-2.69,4.05-2.91,6.09-4.52,12.87-2.87,19.27.52,2.01,1.5,4.11,3.48,5.19.12.06.24.13.37.18,1.44.66,3.17.69,4.78.43,4.67-.74,8.6-3.8,10.71-7.5,2.1-3.7,2.55-7.97,2.08-12.06-.32-2.78-1.09-5.6-2.93-7.87Z" fill="#ff3800"/>
  <path d="m625.1,375.57c-4.47-15.45-13.29-32.32-30.92-36.72-19.34-4.83-38.79,7.73-58.92,9.14-25.18,1.76-47.52-14.3-61.13-32.64-13.61-18.33-21.51-39.59-35.65-57.61-25.16-32.08-87.37-46.44-104.3,1.14-5.76,16.19-2.04,34.04,6.79,49.02,8.83,14.98,22.41,27.42,36.85,38.62,5.65,4.38,11.55,8.7,15.6,14.26s6.03,12.73,3.13,18.87c-6.35,13.48-30.41,14.04-38.5,26.82-7.53,11.9,3.76,26.53,17.24,33.17s29.65,9.31,41.45,18.02c12.8,9.45,18.26,24.54,19.84,39.13,1.58,14.59-.1,29.35,1.35,43.95,1.66,16.69,7.62,33.28,19.22,46.58,11.6,13.3,29.19,23.01,48.41,24.52,13.64,1.07,27.27-2.02,39.47-7.7,7-3.26,13.53-7.38,19.31-12.07,15.87-12.84,26.83-29.56,35.96-46.61,12.29-22.96,21.63-47.38,26.96-72.27l-.18-90.07c-.61-2.52-1.26-5.04-1.98-7.54Zm-13.99,109.81c-10.1,32.75-25.63,64.67-49.55,91.57-6.69,7.52-14.32,14.83-24.25,18.8-2.7,1.08-5.48,1.87-8.31,2.39-17.43,3.2-36.72-3.72-49.01-15.26-14.28-13.42-20.77-31.73-24.68-49.73s-5.72-36.5-12.55-53.81c-6.84-17.31-19.76-33.86-39.24-40.84-7.1-2.55-14.89-3.77-21.47-7.22-6.57-3.45-11.81-10.21-9.52-16.63,1.88-5.26,8.07-8.44,14.09-10.17,6.02-1.74,12.5-2.61,17.83-5.6,7.57-4.25,11.57-12.3,11.65-20.09.08-7.79-3.3-15.3-7.86-21.96-8.49-12.38-20.97-22.21-32.06-32.92-11.09-10.7-21.23-23.1-23.32-37.43-2.08-14.34,6.34-30.76,22.28-35.14,15.1-4.15,31.27,3.47,41.96,13.47,19.43,18.18,26.39,43.38,43.74,62.81,18.26,20.44,48.74,33.01,78.84,28.86,18.49-2.55,38.29-10.66,54.75-3.12,10.9,4.99,16.66,15.58,20.23,25.84,11.9,34.24,7.15,71.46-3.56,106.2Z" fill="#ff3800"/>
  <path d="m460.85,327.61c-17.35-19.43-24.31-44.63-43.74-62.81-10.69-10-26.86-17.63-41.96-13.47-15.94,4.38-24.36,20.81-22.28,35.14,2.08,14.34,12.23,26.73,23.32,37.43,11.09,10.7,23.57,20.54,32.06,32.92,4.57,6.66,7.95,14.18,7.86,21.96-.08,7.79-4.09,15.84-11.65,20.09-5.34,2.99-11.81,3.86-17.83,5.6-6.02,1.74-12.21,4.92-14.09,10.17-2.29,6.41,2.95,13.18,9.52,16.63,6.57,3.45,14.36,4.67,21.47,7.22,19.48,6.98,32.4,23.53,39.24,40.84,6.84,17.31,8.64,35.8,12.55,53.81,3.91,18.01,10.4,36.32,24.68,49.73,12.28,11.54,31.58,18.46,49.01,15.26,2.83-.52,5.62-1.31,8.31-2.39,9.93-3.98,17.56-11.28,24.25-18.8,23.92-26.9,39.45-58.82,49.55-91.57,10.71-34.74,15.46-71.95,3.56-106.2-3.57-10.26-9.33-20.84-20.23-25.84-16.46-7.54-36.26.57-54.75,3.12-30.1,4.15-60.58-8.41-78.84-28.86Zm-41.26,22.15c-10.24-6.67-18.95-14.94-26.96-23.62-9.37-10.16-17.97-21.16-22.39-33.62-2.51-7.07-3.48-15.18.87-21.61,4.07-6,12.71-9.4,20.54-8.08,6.73,1.14,12.21,5.27,16.83,9.65,12.6,11.92,21.28,26.58,28.29,41.59,4.51,9.66,8.43,19.73,8.9,30.18.1,2.2.03,4.46-.9,6.51-2.28,5.01-7.32,5.63-12.5,4.51-4.81-1.04-9.73-3.58-12.69-5.51Zm118.94,19.71c9.3-1.41,18.53-3.52,27.94-3.89,9.41-.37,19.28,1.2,26.64,6.4,7.84,5.54,11.81,14.42,14.16,23.18,7.96,29.62.96,60.95-8.39,90.45-9.6,30.31-22.81,61.52-49.7,81.82-11.78,8.89-27.92,15.37-42.22,11.8-1.36-.34-2.7-.77-4.03-1.3-9.47-3.79-15.88-11.84-20.95-19.97-13.66-21.9-20.83-46.64-26.1-71.39-2.5-11.74-4.66-23.79-10.4-34.65-5.72-10.81-15.67-20.46-28.62-23.25-4.59-.99-10.23-1.62-12.13-5.51-1.52-3.12.41-6.87,3.21-9.21,2.8-2.35,6.38-3.78,9.45-5.82,9.27-6.17,12.82-16.9,17.23-26.47,3.58-7.76,9.07-16.24,18.04-19.7,11.1-4.28,23.69,2.65,34.12,5.6,16.56,4.69,34.5,4.52,51.72,1.91Z" fill="#ff9600"/>
  <path d="m486.8,367.55c-10.42-2.95-23.02-9.87-34.12-5.6-8.97,3.46-14.47,11.94-18.04,19.7-4.41,9.58-7.96,20.3-17.23,26.47-3.08,2.05-6.65,3.48-9.45,5.82-2.8,2.35-4.73,6.09-3.21,9.21,1.89,3.89,7.53,4.52,12.13,5.51,12.95,2.79,22.9,12.43,28.62,23.25,5.74,10.85,7.9,22.91,10.4,34.65,5.27,24.75,12.44,49.49,26.1,71.39,5.07,8.13,11.48,16.18,20.95,19.97,1.32.53,2.67.96,4.03,1.3,14.29,3.57,30.43-2.91,42.22-11.8,26.89-20.3,40.1-51.51,49.7-81.82,9.34-29.5,16.35-60.82,8.39-90.45-2.35-8.76-6.33-17.64-14.16-23.18-7.36-5.2-17.23-6.77-26.64-6.4-9.41.37-18.64,2.48-27.94,3.89-17.22,2.61-35.16,2.77-51.72-1.91Zm52.64,16.6c12.08-.78,25.31-2.66,35.38,3.08,6.33,3.61,10.25,9.79,12.06,16.19,1.8,6.4,1.71,13.1,1.5,19.71-.98,30.55-4.47,61.53-17.21,90.13-6.13,13.77-14.91,27.38-29.05,35.61-14.14,8.23-34.67,9.52-47.21-.27-8.49-6.63-11.89-16.81-14.03-26.58-3.19-14.55-4.42-29.42-8.26-43.85-3.84-14.42-10.61-28.74-22.97-38.88-7.52-6.17-17.45-11.37-19.81-20.14-2.29-8.53,3.54-16.95,7.27-25.15,1.96-4.31,3.38-8.82,5.92-12.9,2.54-4.08,6.44-7.81,11.57-9.1,2.95-.74,5.94-.61,8.88.03,4.09.49,8.08,2.03,11.96,3.4,20.14,7.12,42.23,10.13,64,8.73Z" fill="#ff3800"/>
  <path d="m444.78,350.75c.93-2.05,1-4.32.9-6.51-.47-10.45-4.39-20.51-8.9-30.18-7.01-15.01-15.69-29.67-28.29-41.59-4.62-4.37-10.1-8.51-16.83-9.65-7.83-1.32-16.47,2.08-20.54,8.08-4.36,6.43-3.38,14.54-.87,21.61,4.42,12.47,13.02,23.46,22.39,33.62,8,8.67,16.72,16.94,26.96,23.62,2.96,1.93,7.89,4.47,12.69,5.51,5.18,1.12,10.22.5,12.5-4.51Zm-13.58-14.89c-1.46,3.21-4.69,3.61-8.02,2.89-3.08-.67-6.25-2.3-8.14-3.53-6.57-4.28-12.16-9.59-17.29-15.15-6.01-6.52-11.53-13.57-14.36-21.57-1.61-4.54-2.23-9.74.56-13.87,2.61-3.85,8.16-6.03,13.18-5.18,4.32.73,7.83,3.38,10.8,6.19,8.08,7.65,13.65,17.05,18.15,26.69,2.89,6.2,5.41,12.66,5.71,19.36.06,1.41.02,2.86-.58,4.18Z" fill="#ff3800"/>
  <path d="m426.07,312.32c-4.5-9.63-10.07-19.04-18.15-26.69-2.97-2.81-6.48-5.46-10.8-6.19-5.02-.85-10.57,1.33-13.18,5.18-2.79,4.12-2.17,9.33-.56,13.87,2.84,8,8.35,15.05,14.36,21.57,5.13,5.57,10.73,10.87,17.29,15.15,1.9,1.24,5.06,2.87,8.14,3.53,3.32.72,6.56.32,8.02-2.89.6-1.32.64-2.77.58-4.18-.3-6.7-2.82-13.16-5.71-19.36Z" fill="#700a00"/>
  <path d="m463.48,372.02c-2.94-.64-5.93-.77-8.88-.03-5.12,1.29-9.03,5.02-11.57,9.1-2.54,4.08-3.96,8.59-5.92,12.9-3.73,8.2-9.56,16.62-7.27,25.15,2.36,8.77,12.29,13.97,19.81,20.14,12.36,10.14,19.13,24.46,22.97,38.88,3.84,14.42,5.07,29.3,8.26,43.85,2.14,9.77,5.55,19.95,14.03,26.58,12.54,9.79,33.06,8.5,47.21.27,14.14-8.23,22.92-21.84,29.05-35.61,12.74-28.6,16.23-59.58,17.21-90.13.21-6.61.3-13.3-1.5-19.71-1.8-6.4-5.72-12.58-12.06-16.19-10.07-5.74-23.3-3.86-35.38-3.08-21.78,1.4-43.87-1.61-64-8.73-3.87-1.37-7.87-2.91-11.96-3.4Zm69.08,18.78c9.37,1.34,19.19,2.86,26.55,8.02,11.01,7.73,13.46,21.33,13.98,33.67,1.34,31.45-5.33,64.29-26.34,90.14-6.17,7.6-14.83,15.05-25.49,15.13-8.31.07-15.84-4.55-20.75-10.33-8.28-9.76-10.35-22.42-11.67-34.54-1.32-12.12-2.3-24.69-8.94-35.37-5.15-8.27-13.31-14.74-20.41-21.84-5.48-5.47-10.51-11.74-12.65-18.65-2.64-4.54-4.21-9.55-4.49-14.65-.48-8.66,4.12-18.68,13.79-20.96,2.53-.6,5.15-.6,7.77-.37.14-.11.27-.22.41-.33l.12.39c1.46.14,2.91.34,4.34.55,21.25,3.05,42.51,6.09,63.76,9.14Z" fill="#ffcb90"/>
  <path d="m464.45,381.12l-.12-.39c-.14.11-.27.22-.41.33-2.62-.23-5.24-.22-7.77.37-9.67,2.28-14.27,12.3-13.79,20.96.28,5.1,1.85,10.11,4.49,14.65,2.14,6.91,7.17,13.18,12.65,18.65,7.1,7.09,15.26,13.56,20.41,21.84,6.64,10.68,7.61,23.25,8.94,35.37,1.32,12.12,3.39,24.78,11.67,34.54,4.91,5.78,12.43,10.39,20.75,10.33,10.66-.08,19.32-7.53,25.49-15.13,21.01-25.86,27.68-58.69,26.34-90.14-.53-12.34-2.98-25.94-13.98-33.67-7.36-5.17-17.18-6.68-26.55-8.02-21.25-3.05-42.51-6.09-63.76-9.14-1.43-.21-2.89-.41-4.34-.55Zm30.64,14.14c8.16,1.74,16.34,3.73,23.64,7.32,2.07,1.02,4.07,2.18,5.94,3.47,8.95,4.43,16.55,10.75,20.67,18.87,4.07,8.01,4.46,17.1,3.72,25.87-1.08,12.79-4.55,25.65-12.16,36.7-3.04,4.41-7.24,8.79-13.03,9.82-7.02,1.25-13.95-3.01-17.61-8.31-3.67-5.3-4.98-11.55-7.18-17.44-6.41-17.13-20.35-31.15-33.55-45-3.75-3.94-7.54-8-9.53-12.82-1.99-4.82-1.89-10.61,1.74-14.71,2.85-3.23,7.47-4.96,12.06-5.7,8.41-1.36,17.02.18,25.29,1.94Z" fill="#700a00"/>
  <path d="m457.74,399.02c-3.62,4.09-3.73,9.89-1.74,14.71,1.99,4.82,5.77,8.89,9.53,12.82,13.19,13.85,27.14,27.87,33.55,45,2.2,5.89,3.52,12.14,7.18,17.44,3.67,5.3,10.59,9.56,17.61,8.31,5.79-1.03,9.98-5.41,13.03-9.82,7.61-11.04,11.08-23.91,12.16-36.7.74-8.77.34-17.85-3.72-25.87-4.12-8.12-11.72-14.43-20.67-18.87-1.87-1.29-3.87-2.46-5.94-3.47-7.3-3.58-15.48-5.58-23.64-7.32-8.27-1.76-16.88-3.3-25.29-1.94-4.59.74-9.2,2.47-12.06,5.7Zm36.6,12.7c8.2.78,16.06,4.09,21.71,9.28,6.84,6.28,10.34,15.2,9.36,23.86-.37,3.23-1.63,6.77-4.9,8.36-4.04,1.96-9.13.02-12.59-2.61-1.11-.84-2.13-1.74-3.11-2.68-4.74-4.57-8.32-10.11-13.71-14.13-2.51-1.87-5.37-3.37-7.79-5.33-2.43-1.95-4.46-4.51-4.62-7.39-.41-7.36,8.87-10.01,15.65-9.37Z" fill="#ff9600"/>
  <path d="m483.3,428.48c2.43,1.95,5.29,3.46,7.79,5.33,5.39,4.02,8.97,9.56,13.71,14.13.98.94,2.01,1.85,3.11,2.68,3.46,2.62,8.54,4.57,12.59,2.61,3.28-1.59,4.54-5.13,4.9-8.36.98-8.65-2.52-17.58-9.36-23.86-5.66-5.19-13.51-8.5-21.71-9.28-6.78-.64-16.06,2-15.65,9.37.16,2.88,2.19,5.44,4.62,7.39Z" fill="#700a00"/>
  <path d="m624.16-2.66l-25.63-.04c4.15,6.5,7.76,13.23,10.68,20.21,1.44,3.44,2.6,7.56.04,10.53-2.29,2.67-6.87,3.25-10.57,2.3-3.7-.96-6.75-3.13-9.76-5.17-14.8-10.05-31.44-18.38-49.65-22.92s-38.09-5.11-56.21-.04c-18.11,5.07-34.25,16.07-42.35,30.74-1.04,1.88-1.99,3.86-3.77,5.29-1.78,1.42-4.69,2.09-6.66.89-1.93-1.18-2.16-3.51-2.21-5.54-.29-12.19-.57-24.45,1.35-36.53l-27.7-.04c.64,15,4.89,30.15,8.05,45.03,4.74,22.33,6.33,47.39-9.07,65.94-9.78,11.78-25.53,19.67-32.72,32.77-8.56,15.61-2.42,34.42,8.29,48.82,20.97,28.2,57.08,45.25,81.05,71.57,13.95,15.31,23.33,33.21,35.07,49.77,5.92,8.35,12.92,16.72,23.19,20.81.47.19.95.37,1.43.53,13.14,4.55,28.89,1.16,40.48-6.19,12.01-7.63,20.25-18.89,27.11-30.34,27.02-45.17,36.24-95.98,42.02-146.83l-.29-145.29c-.68-2.1-1.39-4.18-2.17-6.25Zm-10.74,129.82c-.91,19.37-6.26,38.4-11.6,57.26-7.55,26.72-15.1,53.45-22.65,80.17-3.15,11.17-6.42,22.56-13.58,32.27-7.16,9.7-19.05,17.58-32.26,17.75-2.96.04-5.87-.31-8.69-.97-7.14-1.66-13.72-5.31-19.13-9.75-7.55-6.19-13.23-13.87-19.16-21.27-25.95-32.39-57.94-60.69-89.82-88.79-10.99-9.69-22.83-21.44-20.71-35,1.7-10.86,11.36-17.78,19.88-24.95,8.76-7.37,17.23-16.32,23.38-25.48,6.11-9.11,11.15-18.71,16.58-28.13,10.58-18.36,24.2-37.13,45.87-45.32,17.27-6.53,37.19-5.24,55.2-.8,24.76,6.1,48.17,18.48,61.89,37.33,11.87,16.31,15.71,36.3,14.8,55.68Z" fill="#ff9600"/>
  <path d="m598.62,71.48c-13.72-18.85-37.13-31.23-61.89-37.33-18.01-4.43-37.93-5.73-55.2.8-21.67,8.2-35.29,26.97-45.87,45.32-5.43,9.42-10.46,19.02-16.58,28.13-6.15,9.16-14.62,18.11-23.38,25.48-8.52,7.16-18.17,14.09-19.88,24.95-2.13,13.56,9.72,25.31,20.71,35,31.88,28.1,63.87,56.4,89.82,88.79,5.93,7.4,11.61,15.08,19.16,21.27,5.41,4.44,11.99,8.08,19.13,9.75,2.82.66,5.73,1,8.69.97,13.21-.17,25.1-8.04,32.26-17.75,7.16-9.71,10.42-21.1,13.58-32.27,7.55-26.73,15.1-53.45,22.65-80.17,5.33-18.87,10.69-37.89,11.6-57.26.91-19.37-2.93-39.36-14.8-55.68Zm-11.94,126.69c-6.53,26.75-10.22,54.71-25.75,78.57-5.75,8.84-14.55,17.66-26.17,18.3-8.45.47-16.44-3.68-22.08-9.11-.07-.06-.13-.13-.2-.19-5.52-5.4-9.24-11.98-13.34-18.27-18.88-28.96-47.15-52.88-79.65-70.53-11.45-6.22-24.57-12.97-27.51-24.44-1.75-6.83.66-14.06,4.58-20.23,3.92-6.17,9.28-11.55,14.04-17.26,14.21-17.04,23.05-36.97,36.17-54.64,12.85-17.3,31.73-33.36,56.12-36.21,22.49-2.63,45.41,2.97,63.45,14.61,11.59,7.48,21.11,17.43,26.87,28.98,8.55,17.15,9.31,36.61,6.62,55.24-2.69,18.63-8.66,36.8-13.15,55.19Z" fill="#700a00"/>
  <path d="m566.33,58.77c-18.04-11.64-40.96-17.23-63.45-14.61-24.38,2.85-43.27,18.91-56.12,36.21-13.12,17.67-21.96,37.6-36.17,54.64-4.76,5.71-10.12,11.09-14.04,17.26-3.92,6.17-6.33,13.4-4.58,20.23,2.94,11.47,16.06,18.22,27.51,24.44,32.5,17.64,60.76,41.56,79.65,70.53,4.1,6.29,7.81,12.88,13.34,18.27.07.06.13.13.2.19,5.63,5.43,13.63,9.57,22.08,9.11,11.62-.64,20.42-9.46,26.17-18.3,15.53-23.86,19.22-51.82,25.75-78.57,4.49-18.39,10.46-36.55,13.15-55.19,2.69-18.63,1.93-38.09-6.62-55.24-5.76-11.55-15.28-21.5-26.87-28.98Zm-4.27,198.55c-6.87,10.04-20.17,17.72-33.32,15.61-8.41-1.35-15.44-6.41-20.68-12.25-5.24-5.84-9.05-12.54-13.66-18.77-12.97-17.51-32.21-31.08-53.52-40.66-7.87-3.54-16.12-6.6-23.08-11.35-6.96-4.75-12.64-11.58-13.03-19.29-.38-7.52,2.02-19.31,13.31-18.64,5.8.34,9.97,4.69,13.77,8.49,17.99,18,42.31,30.29,66.89,40.95,13.66,5.93,29.11,11.59,43.88,7.88,4.05-1.02,7.85-2.71,11.92-3.66,4.07-.95,8.68-1.06,12.18.93,6.01,3.41,6.04,10.93,5.33,17.17-1.33,11.58-3.12,23.53-9.99,33.58Zm21.56-104.81c-4.5,14.63-11.82,29.53-25.86,38.57-15.1,9.72-35.81,10.88-53.7,6.26-.1-.03-.2-.05-.31-.08-17.96-4.7-33.48-14.55-47.57-25.25-12.85-9.76-25.57-21.66-27-36.49-.85-8.76,2.42-17.48,6.7-25.49,7.54-14.13,18.47-27.04,32.58-36.68,11.91-8.14,26.2-13.92,41.23-15.24,26.04-2.29,54.05,10.1,68.02,29.03,4.73,6.41,7.91,13.69,9.53,21.18,3.16,14.6.83,29.78-3.61,44.19Z" fill="#ff3800"/>
  <path d="m577.7,87.14c-13.97-18.93-41.98-31.32-68.02-29.03-15.02,1.32-29.32,7.1-41.23,15.24-14.1,9.64-25.04,22.56-32.58,36.68-4.28,8.01-7.55,16.73-6.7,25.49,1.44,14.83,14.15,26.73,27,36.49,14.09,10.7,29.61,20.54,47.57,25.25.1.03.2.05.31.08,17.89,4.61,38.6,3.45,53.7-6.26,14.05-9.04,21.36-23.94,25.86-38.57,4.44-14.41,6.77-29.59,3.61-44.19-1.62-7.49-4.8-14.77-9.53-21.18Zm-43.2,103.62c-13.78,2.51-27.94.08-40.81-5.08-4.4-1.76-8.65-3.85-12.69-6.16-16.69-9.57-31.01-23.8-35.81-41.33-4-14.62-.86-30.83,8.41-43.48,24.12-32.88,76.67-30.02,105.76-5.61,17.13,14.37,26.14,36.9,21.56,57.95-4.59,21.05-23.4,39.51-46.42,43.71Z" fill="#ff9600"/>
  <path d="m566.72,206.58c-3.5-1.99-8.11-1.88-12.18-.93-4.07.95-7.87,2.64-11.92,3.66-14.77,3.71-30.22-1.95-43.88-7.88-24.58-10.67-48.9-22.95-66.89-40.95-3.79-3.79-7.97-8.15-13.77-8.49-11.29-.66-13.69,11.12-13.31,18.64.39,7.71,6.07,14.54,13.03,19.29,6.96,4.75,15.21,7.81,23.08,11.35,21.31,9.58,40.55,23.14,53.52,40.66,4.61,6.23,8.42,12.93,13.66,18.77,5.24,5.84,12.27,10.9,20.68,12.25,13.15,2.11,26.45-5.57,33.32-15.61,6.87-10.04,8.65-21.99,9.99-33.58.72-6.24.68-13.76-5.33-17.17Zm-17.51,45.17c-9.68,6.54-24.61,7.28-33.79.38-9-6.77-10.57-18.29-16.72-27.15-8.01-11.57-23.12-17.74-37.66-22.56-14.54-4.83-29.98-9.25-40.76-18.97-2.13-1.92-4.1-4.12-4.74-6.74-.64-2.61.41-5.71,3.1-7.03,3.48-1.7,7.75.1,11.13,1.88,20.53,10.82,40.61,22.29,60.19,34.36,7.8,4.81,17.04,8.48,23.5,10.74,9.03,3.16,19.13,3.65,28.42.94.5-.15,1-.3,1.5-.46,2.73-.89,5.39-2.02,8.26-2.49,2.87-.46,6.08-.15,8.21,1.54,2.24,1.78,2.82,4.63,2.98,7.27.64,10.57-3.95,21.76-13.63,28.29Z" fill="#700a00"/>
  <path d="m559.85,216.18c-2.13-1.69-5.34-2.01-8.21-1.54-2.87.46-5.53,1.59-8.26,2.49-.5.16-1,.32-1.5.46-9.29,2.71-19.39,2.22-28.42-.94-6.46-2.26-15.71-5.93-23.5-10.74-19.58-12.07-39.66-23.53-60.19-34.36-3.38-1.78-7.65-3.58-11.13-1.88-2.7,1.32-3.74,4.42-3.1,7.03.64,2.62,2.61,4.82,4.74,6.74,10.78,9.72,26.22,14.15,40.76,18.97,14.54,4.82,29.65,10.99,37.66,22.56,6.15,8.86,7.72,20.38,16.72,27.15,9.18,6.9,24.11,6.16,33.79-.38,9.68-6.53,14.27-17.72,13.63-28.29-.16-2.64-.74-5.49-2.98-7.27Z" fill="#ffcb90"/>
  <path d="m559.36,89.11c-29.08-24.4-81.64-27.26-105.76,5.61-9.27,12.64-12.41,28.86-8.41,43.48,4.79,17.53,19.11,31.76,35.81,41.33,4.03,2.31,8.28,4.39,12.69,6.16,12.87,5.16,27.04,7.59,40.81,5.08,23.02-4.2,41.83-22.66,46.42-43.71,4.59-21.05-4.43-43.58-21.56-57.95Zm-25.74,97.26c-11.98,2.18-24.29.07-35.49-4.42-3.83-1.53-7.52-3.34-11.03-5.35-14.51-8.32-26.97-20.69-31.13-35.93-3.48-12.71-.75-26.81,7.31-37.8,20.97-28.59,66.67-26.1,91.95-4.88,14.89,12.49,22.73,32.08,18.74,50.38-3.99,18.3-20.34,34.35-40.36,38Z" fill="#ffcb90"/>
  <path d="m555.24,97.98c-25.29-21.22-70.99-23.7-91.95,4.88-8.06,10.99-10.79,25.09-7.31,37.8,4.17,15.24,16.62,27.62,31.13,35.93,3.51,2.01,7.2,3.82,11.03,5.35,11.19,4.48,23.51,6.6,35.49,4.42,20.02-3.65,36.37-19.7,40.36-38,3.99-18.3-3.85-37.89-18.74-50.38Zm-30.74,77.91c-10.05,1.83-20.39.06-29.78-3.71-3.21-1.29-6.32-2.81-9.26-4.49-12.18-6.98-22.63-17.37-26.13-30.16-2.92-10.67-.63-22.5,6.14-31.73,17.6-23.99,55.96-21.91,77.18-4.1,12.5,10.49,19.08,26.93,15.73,42.29-3.35,15.36-17.07,28.83-33.88,31.9Z" fill="#ff3800"/>
  <path d="m542.64,101.71c-21.22-17.81-59.58-19.9-77.18,4.1-6.77,9.23-9.06,21.06-6.14,31.73,3.5,12.79,13.95,23.18,26.13,30.16,2.94,1.69,6.05,3.21,9.26,4.49,9.39,3.76,19.73,5.54,29.78,3.71,16.8-3.06,30.53-16.53,33.88-31.9,3.35-15.36-3.23-31.8-15.73-42.29Zm-23.64,68.26c-7.87,1.43-15.95.04-23.3-2.9-2.51-1.01-4.94-2.2-7.24-3.52-9.53-5.46-17.71-13.59-20.44-23.6-2.28-8.35-.49-17.6,4.8-24.82,13.77-18.77,43.78-17.14,60.38-3.21,9.78,8.21,14.93,21.07,12.31,33.09-2.62,12.02-13.36,22.56-26.5,24.95Z" fill="#ff9600"/>
  <path d="m533.2,111.93c-16.6-13.93-46.61-15.57-60.38,3.21-5.29,7.22-7.09,16.48-4.8,24.82,2.74,10.01,10.91,18.13,20.44,23.6,2.3,1.32,4.73,2.51,7.24,3.52,7.35,2.94,15.44,4.33,23.3,2.9,13.14-2.4,23.89-12.94,26.5-24.95,2.62-12.02-2.53-24.88-12.31-33.09Z" fill="#700a00"/>
  <path d="m598.53-2.7l-13.66-.02c-.18,1.81-1,3.48-2.84,4.67-2.26,1.46-5.52,1.75-8.44,1.32s-5.59-1.5-8.24-2.52c-3.16-1.22-6.37-2.4-9.6-3.51l-83.58-.12c-5.27,2.26-10.41,4.74-15.58,7.11-.95.44-1.91.87-2.91,1.25-1.45.55-2.97.98-4.58,1.11-7.74.59-9.34-4.58-9.03-9.52l-10.65-.02c-1.93,12.08-1.64,24.34-1.35,36.53.05,2.03.27,4.36,2.21,5.54,1.97,1.2,4.88.54,6.66-.89,1.78-1.42,2.73-3.41,3.77-5.29,8.1-14.67,24.24-25.67,42.35-30.74,18.11-5.07,37.99-4.49,56.21.04s34.86,12.87,49.65,22.92c3.01,2.05,6.06,4.22,9.76,5.17,3.7.96,8.28.37,10.57-2.3,2.55-2.97,1.39-7.09-.04-10.53-2.91-6.98-6.52-13.72-10.68-20.21Z" fill="#700a00"/>
  <path d="m449.1,6.59c1.61-.12,3.13-.55,4.58-1.11.99-.38,1.96-.82,2.91-1.25,5.16-2.38,10.3-4.86,15.58-7.11l-32.1-.05c-.3,4.93,1.3,10.11,9.03,9.52Z" fill="#ff9600"/>
  <path d="m555.74-2.76c3.24,1.11,6.44,2.29,9.6,3.51,2.65,1.02,5.32,2.09,8.24,2.52s6.18.14,8.44-1.32c1.84-1.19,2.66-2.85,2.84-4.67l-29.13-.04Z" fill="#ff9600"/>
  <path d="m391.63-3l-11.2-.02c1.54,8.17,4.05,16.27,6.01,24.37,3.91,16.13,5.52,33.54-1.86,48.81-7.36,15.23-22.68,26.33-32.12,40.64-9.43,14.3-12.57,31.74-8.61,47.8,2.86,11.59,9.26,23.37,5.39,34.8-4.24,12.52-19.45,19.61-33.88,22.1-27.78,4.8-56.9-2.44-80.41-16.06-2.95-1.71-5.81-3.51-8.6-5.39-19.47-13.16-35.22-30.44-48.51-48.78-24.98-34.47-42.25-73.97-45.27-115.06-.82-11.16-.52-22.43.9-33.59l-11.78-.02c-1.19,11.02-1.37,22.12-.57,33.12,3.28,44.73,22.08,87.73,49.28,125.25,14.46,19.96,31.61,38.77,52.81,53.1,3.04,2.05,6.16,4.01,9.36,5.87,25.59,14.84,57.29,22.71,87.53,17.49,15.72-2.71,32.27-10.43,36.89-24.06,4.21-12.44-2.75-25.27-5.87-37.88-4.32-17.49-.9-36.47,9.37-52.04,10.28-15.58,26.95-27.66,34.97-44.24,8.04-16.62,6.28-35.57,2.02-53.14-1.86-7.68-4.17-15.35-5.85-23.08Z" fill="#ff3800"/>
  <path d="m380.43-3.02l-17.85-.03c1,8.9,3.87,17.68,6,26.47,3.35,13.82,4.73,28.74-1.59,41.82-6.31,13.05-19.43,22.55-27.52,34.82-8.08,12.25-10.77,27.19-7.38,40.95,2.45,9.93,7.93,20.02,4.62,29.81-3.63,10.72-16.66,16.8-29.03,18.93-23.8,4.11-48.74-2.09-68.88-13.76-2.52-1.46-4.98-3.01-7.37-4.62-16.68-11.28-30.17-26.08-41.56-41.79-21.4-29.53-36.2-63.37-38.78-98.57-.84-11.42-.31-22.99,1.59-34.36l-19.22-.03c-1.42,11.17-1.72,22.44-.9,33.59,3.01,41.09,20.29,80.59,45.27,115.06,13.29,18.34,29.04,35.62,48.51,48.78,2.79,1.89,5.66,3.69,8.6,5.39,23.51,13.63,52.63,20.86,80.41,16.06,14.44-2.49,29.64-9.58,33.88-22.1,3.87-11.43-2.53-23.21-5.39-34.8-3.96-16.07-.82-33.5,8.61-47.8,9.44-14.31,24.76-25.41,32.12-40.64,7.38-15.27,5.77-32.68,1.86-48.81-1.96-8.1-4.47-16.2-6.01-24.37Z" fill="#700a00"/>
  <path d="m362.58-3.04l-28.6-.04c.5,6.05,2.92,11.89,6.9,16.93,3.01,3.81,5.58,7.88,7.61,12.2,8.14,17.24,7.01,38.27-4.94,53.88-12.6,16.46-34.94,24.99-56.87,28.8-22.48,3.9-46.22,3.66-67.52-3.45-21.31-7.11-39.91-21.59-47.82-40.53-6.05-14.47-5.66-30.53-2.98-45.87,1.3-7.47,3.17-14.9,5.59-22.19l-21.26-.03c-1.91,11.38-2.43,22.94-1.59,34.36,2.58,35.2,17.38,69.04,38.78,98.57,11.38,15.71,24.88,30.51,41.56,41.79,2.39,1.62,4.84,3.16,7.37,4.62,20.14,11.67,45.09,17.87,68.88,13.76,12.37-2.14,25.4-8.21,29.03-18.93,3.32-9.79-2.17-19.89-4.62-29.81-3.4-13.76-.71-28.7,7.38-40.95,8.09-12.26,21.21-21.77,27.52-34.82,6.33-13.08,4.94-27.99,1.59-41.82-2.13-8.79-5.01-17.57-6-26.47Zm-39.83,158.51c-.71,5.08-2.22,10.39-6.28,14.06-2.84,2.56-6.53,4-10.49,4.78-3.35.66-6.9.85-10.29.86-27.42.08-55.75-8.81-72.85-27.66-2.99-3.29-5.64-6.92-6.92-11-1.28-4.08-1.05-8.69,1.45-12.35,9.02-13.21,36.6-1.67,49.38-.87,12.67.79,25.26-2.57,37.13-6.75,7.36-2.59,11.88-.5,14.54,5.84,4.4,10.48,5.9,21.93,4.34,33.08Z" fill="#ff9600"/>
  <path d="m340.87,13.84c-3.98-5.03-6.4-10.88-6.9-16.93l-12.87-.02c.12,5.45,2.16,10.76,5.72,15.27,2.46,3.12,4.57,6.45,6.23,9.98,6.66,14.11,5.74,31.33-4.04,44.1-10.31,13.48-28.6,20.46-46.56,23.57-18.4,3.19-37.83,3-55.27-2.82-17.44-5.82-32.67-17.67-39.15-33.18-4.95-11.85-4.63-24.99-2.44-37.55,1.15-6.6,2.84-13.16,5.06-19.58l-16.71-.02c-2.42,7.29-4.29,14.72-5.59,22.19-2.67,15.34-3.06,31.4,2.98,45.87,7.91,18.94,26.52,33.42,47.82,40.53,21.31,7.11,45.05,7.35,67.52,3.45,21.93-3.81,44.27-12.34,56.87-28.8,11.95-15.61,13.07-36.64,4.94-53.88-2.04-4.32-4.61-8.39-7.61-12.2Z" fill="#ff3800"/>
  <path d="m326.83,12.17c-3.56-4.51-5.6-9.82-5.72-15.27l-82.28-.12c-2.21.64-4.4,1.37-6.55,2.24-9.4,3.8-17.56,9.7-24.95,16.12-1.47,1.28-2.96,2.6-4.79,3.43-1.84.82-4.14,1.06-5.89.14-3-1.59-2.91-5.44-2.23-8.5,1.03-4.62,2.58-9.1,4.45-13.49h-8.2c-2.22,6.41-3.91,12.97-5.06,19.57-2.19,12.56-2.51,25.7,2.44,37.55,6.48,15.51,21.71,27.36,39.15,33.18,17.44,5.82,36.88,6.01,55.27,2.82,17.95-3.12,36.24-10.1,46.56-23.57,9.78-12.78,10.7-29.99,4.04-44.1-1.67-3.53-3.77-6.87-6.23-9.98Zm-4.85,40.3c-7.3,10.92-20.21,18.29-33.91,21.87-13.7,3.58-28.2,3.69-42.38,2.73-9.05-.62-18.18-1.69-26.53-4.76-.14-.05-.28-.1-.42-.16-8.46-3.19-16.11-8.69-19.78-16.17-4.91-10.03-1.8-22.28,5.79-31.04,7.58-8.76,19.01-14.38,30.84-17.71,19.9-5.61,43.51-8.76,63.79-3.69,8.81,2.2,17.19,6.48,22.46,13.09,8.18,10.25,7.43,24.91.13,35.83Z" fill="#ff9600"/>
  <path d="m318.4,122.39c-2.66-6.34-7.18-8.43-14.54-5.84-11.86,4.18-24.46,7.54-37.13,6.75-12.78-.8-40.36-12.34-49.38.87-2.49,3.65-2.73,8.26-1.45,12.35,1.28,4.08,3.93,7.71,6.92,11,17.1,18.85,45.42,27.74,72.85,27.66,3.4-.01,6.95-.2,10.29-.86,3.97-.78,7.66-2.22,10.49-4.78,4.06-3.67,5.57-8.98,6.28-14.06,1.56-11.15.06-22.6-4.34-33.08Zm-8.54,40.69c-2.45,1.88-5.62,2.94-9.04,3.52-2.88.49-5.94.64-8.86.65-23.6.12-47.97-6.31-62.66-20.06-2.57-2.4-4.85-5.05-5.94-8.03-1.09-2.98-.89-6.35,1.26-9.03,7.78-9.69,31.5-1.31,42.5-.75,10.9.55,21.75-1.94,31.96-5.02,6.34-1.91,10.22-.39,12.5,4.24,3.77,7.65,5.05,16.02,3.69,24.19-.62,3.72-1.92,7.61-5.42,10.3Z" fill="#700a00"/>
  <path d="m311.59,128.59c-2.28-4.63-6.17-6.15-12.5-4.24-10.22,3.09-21.06,5.57-31.96,5.02-10.99-.55-34.72-8.93-42.5.75-2.15,2.68-2.36,6.05-1.26,9.03,1.09,2.98,3.38,5.63,5.94,8.03,14.69,13.75,39.06,20.19,62.66,20.06,2.92-.02,5.98-.16,8.86-.65,3.41-.58,6.59-1.64,9.04-3.52,3.5-2.7,4.8-6.58,5.42-10.3,1.36-8.16.08-16.53-3.69-24.19Zm-12.63,29.88c-1.79,1.38-4.11,2.15-6.61,2.57-2.11.36-4.34.47-6.48.48-17.26.09-35.08-4.62-45.82-14.67-1.88-1.76-3.54-3.69-4.34-5.87-.8-2.18-.65-4.65.92-6.61,5.69-7.08,23.04-.95,31.08-.55,7.97.4,15.9-1.42,23.37-3.67,4.63-1.4,7.48-.29,9.14,3.1,2.76,5.6,3.69,11.72,2.7,17.69-.45,2.72-1.4,5.56-3.97,7.53Z" fill="#ff9600"/>
  <path d="m300.23,133.25c-1.67-3.39-4.51-4.5-9.14-3.1-7.47,2.26-15.4,4.07-23.37,3.67-8.04-.4-25.39-6.53-31.08.55-1.57,1.96-1.72,4.42-.92,6.61.8,2.18,2.47,4.12,4.34,5.87,10.74,10.05,28.56,14.76,45.82,14.67,2.14-.01,4.37-.12,6.48-.48,2.5-.42,4.82-1.2,6.61-2.57,2.56-1.97,3.51-4.81,3.97-7.53.99-5.97.06-12.09-2.7-17.69Z" fill="#ff3800"/>
  <path d="m235.59,7.24c-11.83,3.33-23.26,8.95-30.84,17.71-7.58,8.76-10.7,21.01-5.79,31.04,3.66,7.48,11.31,12.99,19.78,16.17.14.05.28.1.42.16,8.35,3.07,17.48,4.14,26.53,4.76,14.18.97,28.68.85,42.38-2.73,13.7-3.58,26.61-10.95,33.91-21.87,7.3-10.92,8.05-25.58-.13-35.83-5.27-6.61-13.65-10.89-22.46-13.09-20.28-5.07-43.89-1.92-63.79,3.69Zm73.65,42.39c-5.74,8.6-15.9,14.4-26.68,17.21-10.78,2.82-22.19,2.91-33.35,2.15-7.12-.48-14.31-1.33-20.88-3.74-.11-.04-.22-.08-.33-.12-6.66-2.51-12.68-6.84-15.57-12.73-3.86-7.89-1.41-17.53,4.55-24.43,5.97-6.89,14.96-11.31,24.27-13.94,15.66-4.41,34.24-6.9,50.2-2.9,6.93,1.73,13.53,5.1,17.68,10.3,6.44,8.07,5.85,19.61.1,28.2Z" fill="#ffcb90"/>
  <path d="m241.26,14.03c-9.31,2.62-18.3,7.04-24.27,13.94-5.97,6.89-8.42,16.53-4.55,24.43,2.88,5.89,8.9,10.22,15.57,12.73.11.04.22.08.33.12,6.57,2.41,13.76,3.26,20.88,3.74,11.16.76,22.57.67,33.35-2.15,10.78-2.82,20.94-8.62,26.68-17.21,5.74-8.6,6.33-20.13-.1-28.2-4.15-5.2-10.75-8.57-17.68-10.3-15.96-3.99-34.54-1.51-50.2,2.9Zm52.55,32.15c-3.86,5.77-10.69,9.67-17.93,11.56-7.24,1.89-14.91,1.95-22.41,1.44-4.78-.33-9.61-.89-14.03-2.51-.07-.03-.15-.05-.22-.08-4.48-1.68-8.52-4.59-10.46-8.55-2.6-5.3-.95-11.78,3.06-16.41,4.01-4.63,10.05-7.6,16.31-9.36,10.52-2.96,23.01-4.63,33.73-1.95,4.66,1.16,9.09,3.42,11.88,6.92,4.32,5.42,3.93,13.17.07,18.95Z" fill="#700a00"/>
  <path d="m248.13,22.26c-6.26,1.76-12.3,4.73-16.31,9.36-4.01,4.63-5.66,11.11-3.06,16.41,1.94,3.96,5.98,6.87,10.46,8.55.07.03.15.06.22.08,4.42,1.62,9.24,2.19,14.03,2.51,7.5.51,15.16.45,22.41-1.44,7.24-1.89,14.07-5.79,17.93-11.56,3.86-5.77,4.25-13.53-.07-18.95-2.79-3.5-7.22-5.76-11.88-6.92-10.72-2.68-23.21-1.01-33.73,1.95Z" fill="#ff9600"/>
  <path d="m225.82-3.25c-2.93,1.87-5.73,3.91-8.41,6.05-1.22.97-2.44,1.98-3.93,2.58-1.49.6-3.32.72-4.68-.06-2.32-1.35-2.11-4.4-1.45-6.81.16-.6.34-1.19.52-1.78h-9.02c-1.87,4.37-3.42,8.85-4.45,13.47-.68,3.06-.77,6.92,2.23,8.5,1.75.93,4.05.68,5.89-.14,1.84-.82,3.32-2.15,4.79-3.43,7.4-6.42,15.55-12.32,24.95-16.12,2.15-.87,4.33-1.6,6.55-2.24l-13-.02Z" fill="#ff3800"/>
  <path d="m207.88-3.27c-.18.59-.36,1.18-.52,1.78-.66,2.41-.87,5.47,1.45,6.81,1.35.79,3.19.66,4.68.06,1.49-.6,2.71-1.61,3.93-2.58,2.68-2.14,5.48-4.19,8.41-6.05l-17.95-.03Z" fill="#ffcb90"/>
  <path d="m53,503.4c2.04,14.14,4.46,28.48,11.36,41.38,6.9,12.89,18.98,24.34,34.75,28.22,11.78,2.9,25.83.64,35.24-6.45,14.62-11,9.87-33.25,13.72-48.13,4.95-19.11,14.68-37.15,26.71-53.7,17.89-24.63,41.4-53.41,69.44-70.01,22.03-13.04,51.52-19,75.4-9.17,12.66,5.21,26.77,14.64,38.93,8.4,10.32-5.3,10.29-18.93,3.9-27.63-6.39-8.69-16.99-14.23-25.74-21.19-23.82-18.97-33.29-50.4-23.3-77.33,2.58-6.96,6.14-15.2,1-20.93-4.87-5.43-14.32-4.86-22.28-4.54-46.72,1.92-90.31-22.82-118.34-55.05-24.34-28-41.16-60.96-51.77-94.78-2.38-7.58-3.06-18.05-11.8-22.43-18.16-9.1-28.99,12.86-32.04,24.21-13.71,50.99-23.46,102.75-29.21,154.8-9.35,84.66-8.13,170.12,4.01,254.33Zm31.62-377.09c2.68-9.6,12.22-28.17,28.31-20.45,7.74,3.72,8.36,12.58,10.48,18.99,9.46,28.63,24.41,56.55,46.01,80.27,24.87,27.31,63.5,48.3,104.84,46.72,7.05-.27,15.41-.74,19.73,3.86,4.56,4.85,1.43,11.82-.84,17.71-8.79,22.77-.34,49.38,20.77,65.46,7.76,5.91,17.15,10.6,22.82,17.97,5.67,7.37,5.72,18.9-3.4,23.37-10.75,5.27-23.26-2.72-34.47-7.15-21.16-8.35-47.24-3.34-66.72,7.67-24.79,14.02-45.53,38.34-61.32,59.16-10.61,13.99-19.19,29.24-23.53,45.41-3.38,12.59.86,31.43-12.05,40.72-8.32,5.98-20.74,7.88-31.18,5.41-13.97-3.3-24.68-13-30.81-23.92-6.13-10.92-8.3-23.06-10.14-35.03-10.91-71.28-12.16-143.6-4.05-215.23,4.98-44.04,13.51-87.83,25.54-130.97Z" fill="#700a00"/>
  <path d="m63.13,472.51c1.83,11.97,4,24.11,10.14,35.03,6.13,10.92,16.85,20.62,30.81,23.92,10.43,2.47,22.86.57,31.18-5.41,12.91-9.29,8.67-28.13,12.05-40.72,4.34-16.17,12.92-31.42,23.53-45.41,15.79-20.83,36.53-45.15,61.32-59.16,19.47-11.01,45.56-16.02,66.72-7.67,11.21,4.43,23.72,12.42,34.47,7.15,9.12-4.47,9.07-16.01,3.4-23.37-5.67-7.37-15.06-12.06-22.82-17.97-21.12-16.08-29.56-42.69-20.77-65.46,2.27-5.89,5.4-12.86.84-17.71-4.32-4.6-12.68-4.13-19.73-3.86-41.34,1.57-79.98-19.41-104.84-46.72-21.6-23.72-36.55-51.64-46.01-80.27-2.12-6.42-2.74-15.28-10.48-18.99-16.09-7.72-25.63,10.85-28.31,20.45-12.03,43.13-20.56,86.92-25.54,130.97-8.11,71.63-6.86,143.95,4.05,215.23Zm21.28-315.1c1.47-5.26,3.11-10.65,6.77-15.05,3.66-4.4,9.85-7.65,15.98-6.79,9.04,1.28,13.39,10,16.65,17.42,8.59,19.55,20.24,38.05,34.4,54.94,6.91,8.24,14.34,16.35,22.56,23.64,7.37,6.53,14.73,13.27,23.64,18.25,8.66,4.83,19.09,6.87,28.89,9.29,15.69,3.86,28.19,10.16,34.46,23.76,9.42,20.4,18.84,40.81,28.26,61.21,1.03,2.24,2.09,4.62,1.63,7.01-.68,3.57-4.64,6.12-8.7,6.96-4.06.84-8.29.35-12.44.13-37.07-1.95-71.99,18.05-95.41,43.31-23.42,25.26-37.94,55.62-55.28,84.31-4.64,7.68-11.98,16.44-21.83,15.29-9.8-1.14-14.01-11.15-16.13-19.52-26.89-106.24-33.16-217.97-3.45-324.14Z" fill="#ff9600"/>
  <path d="m103.99,501.07c9.85,1.15,17.18-7.6,21.83-15.29,17.34-28.69,31.86-59.06,55.28-84.31,23.42-25.25,58.34-45.26,95.41-43.31,4.15.22,8.38.7,12.44-.13,4.06-.84,8.02-3.39,8.7-6.96.46-2.39-.6-4.77-1.63-7.01-9.42-20.4-18.84-40.81-28.26-61.21-6.27-13.59-18.77-19.89-34.46-23.76-9.8-2.41-20.24-4.45-28.89-9.29-8.92-4.98-16.27-11.72-23.64-18.25-8.22-7.29-15.66-15.4-22.56-23.64-14.16-16.89-25.81-35.39-34.4-54.94-3.26-7.41-7.61-16.14-16.65-17.42-6.13-.87-12.32,2.39-15.98,6.79-3.66,4.4-5.3,9.79-6.77,15.05-29.71,106.17-23.44,217.9,3.45,324.14,2.12,8.37,6.33,18.38,16.13,19.52Zm-17.76-313.05c2.51-3.42,5.98-6.39,10.22-8.09,5.79-2.33,12.62-2.12,18.58-.26,5.96,1.86,11.13,5.25,15.64,9.09,13.16,11.22,21.01,26.18,30.24,40.06,6.79,10.21,15.26,19.46,26.08,26.65,11.56,7.69,26.54,10.53,40.31,13.05,9.38,1.72,18.91,4.24,26.09,9.71,7.19,5.47,11.46,14.53,8.1,22.38-3.82,8.94-15.5,13.16-26.14,15.53-.66.15-1.33.29-1.99.43-25.62,5.43-52.85,5.92-77.95-.69-25.74-6.79-49.03-21.42-62.25-41.72-12.41-19.05-15.44-41.85-13.68-63.79.62-7.75,1.92-15.76,6.74-22.34Zm-8.16,122.48c.03-4.19.37-8.91,4.01-11.7,3.65-2.8,9.39-2.44,13.65-.48,4.26,1.97,7.49,5.22,10.96,8.12,15.45,12.93,36.93,19.49,58.4,21.08,21.47,1.59,43.11-1.43,64.2-5.55,10.96-2.14,22.39-4.59,33.22-2.16,10.83,2.43,20.47,11.71,17.78,21.18-1.73,6.09-8.03,10.57-14.81,12.75-6.78,2.18-14.11,2.48-21.3,3.05-.6.05-1.21.11-1.81.16-3.62.73-7.27,1.42-10.81,2.27-27.98,6.76-50.95,24.67-68.26,44.99-17.3,20.32-29.87,43.3-44.42,65.18-1.89,2.85-4.24,5.95-7.93,6.63-5.85,1.08-10.23-4.42-12.39-9.23-4.95-11.07-7.5-22.85-9.69-34.6-7.5-40.18-11.12-80.93-10.81-121.7Z" fill="#ff3800"/>
  <path d="m155.42,315.87c25.09,6.62,52.32,6.12,77.95.69.67-.14,1.33-.29,1.99-.43,10.64-2.37,22.32-6.59,26.14-15.53,3.35-7.84-.92-16.91-8.1-22.38-7.19-5.47-16.72-7.99-26.09-9.71-13.77-2.52-28.75-5.36-40.31-13.05-10.81-7.2-19.29-16.45-26.08-26.65-9.23-13.88-17.08-28.84-30.24-40.06-4.51-3.84-9.68-7.23-15.64-9.09-5.96-1.86-12.79-2.06-18.58.26-4.24,1.7-7.72,4.67-10.22,8.09-4.82,6.58-6.12,14.59-6.74,22.34-1.76,21.94,1.27,44.74,13.68,63.79,13.22,20.3,36.51,34.94,62.25,41.72Zm-55.55-109.99c1.98-2.7,4.72-5.04,8.07-6.39,4.57-1.83,9.96-1.67,14.66-.21,4.7,1.47,8.78,4.14,12.34,7.17,10.39,8.85,16.58,20.66,23.86,31.61,5.36,8.05,12.04,15.35,20.58,21.03,9.12,6.07,20.94,8.31,31.81,10.3,7.4,1.36,14.92,3.35,20.59,7.66,5.67,4.31,9.04,11.47,6.39,17.66-3.02,7.06-12.23,10.39-20.63,12.26-.52.12-1.05.23-1.57.34-20.22,4.28-41.71,4.67-61.5-.55-20.31-5.36-38.69-16.9-49.12-32.92-9.79-15.03-12.18-33.02-10.79-50.34.49-6.11,1.52-12.43,5.32-17.63Z" fill="#700a00"/>
  <path d="m154.47,306.77c19.8,5.22,41.29,4.83,61.5.55.53-.11,1.05-.22,1.57-.34,8.39-1.87,17.61-5.2,20.63-12.26,2.65-6.19-.72-13.34-6.39-17.66-5.67-4.31-13.19-6.3-20.59-7.66-10.87-1.99-22.69-4.23-31.81-10.3-8.53-5.68-15.22-12.98-20.58-21.03-7.28-10.95-13.47-22.75-23.86-31.61-3.56-3.03-7.64-5.71-12.34-7.17-4.7-1.47-10.09-1.63-14.66.21-3.35,1.34-6.09,3.68-8.07,6.39-3.8,5.19-4.83,11.51-5.32,17.63-1.39,17.31,1,35.3,10.79,50.34,10.43,16.02,28.81,27.57,49.12,32.92Zm-38.99-80.64c1.39-1.9,3.32-3.55,5.68-4.5,3.22-1.29,7.01-1.18,10.32-.15,3.31,1.03,6.18,2.91,8.69,5.05,7.31,6.23,11.67,14.54,16.8,22.25,3.77,5.67,8.48,10.81,14.49,14.81,6.42,4.27,14.74,5.85,22.4,7.25,5.21.95,10.5,2.36,14.5,5.39,3.99,3.04,6.36,8.07,4.5,12.43-2.12,4.97-8.61,7.31-14.52,8.63-.37.08-.74.16-1.11.24-14.23,3.01-29.36,3.29-43.3-.39-14.3-3.77-27.24-11.9-34.58-23.18-6.89-10.58-8.58-23.25-7.6-35.44.34-4.3,1.07-8.75,3.74-12.41Z" fill="#ff9600"/>
  <path d="m153.92,297.15c13.94,3.68,29.07,3.4,43.3.39.37-.08.74-.16,1.11-.24,5.91-1.31,12.4-3.66,14.52-8.63,1.86-4.36-.51-9.39-4.5-12.43-3.99-3.04-9.29-4.44-14.5-5.39-7.65-1.4-15.97-2.98-22.4-7.25-6.01-4-10.71-9.14-14.49-14.81-5.13-7.71-9.49-16.02-16.8-22.25-2.51-2.14-5.38-4.02-8.69-5.05-3.31-1.03-7.11-1.15-10.32.15-2.36.95-4.29,2.59-5.68,4.5-2.68,3.66-3.4,8.11-3.74,12.41-.98,12.19.71,24.85,7.6,35.44,7.35,11.28,20.28,19.41,34.58,23.18Zm-23.2-52.67c.82-1.11,1.94-2.08,3.32-2.63,1.88-.76,4.1-.69,6.04-.09,1.94.6,3.62,1.7,5.08,2.95,4.28,3.65,6.83,8.51,9.83,13.02,2.21,3.32,4.96,6.32,8.48,8.66,3.76,2.5,8.63,3.42,13.1,4.24,3.05.56,6.15,1.38,8.48,3.16,2.34,1.78,3.72,4.72,2.63,7.27-1.24,2.91-5.04,4.28-8.5,5.05-.22.05-.43.09-.65.14-8.33,1.76-17.18,1.93-25.33-.23-8.37-2.21-15.94-6.96-20.23-13.56-4.03-6.19-5.02-13.6-4.45-20.73.2-2.52.62-5.12,2.19-7.26Z" fill="#ff3800"/>
  <path d="m132.97,272.48c4.3,6.6,11.87,11.35,20.23,13.56,8.16,2.15,17.01,1.99,25.33.23.22-.05.43-.09.65-.14,3.46-.77,7.25-2.14,8.5-5.05,1.09-2.55-.3-5.5-2.63-7.27-2.34-1.78-5.43-2.6-8.48-3.16-4.48-.82-9.34-1.74-13.1-4.24-3.51-2.34-6.27-5.35-8.48-8.66-3-4.51-5.55-9.37-9.83-13.02-1.47-1.25-3.15-2.35-5.08-2.95-1.94-.6-4.16-.67-6.04.09-1.38.55-2.51,1.52-3.32,2.63-1.57,2.14-1.99,4.74-2.19,7.26-.57,7.13.41,14.54,4.45,20.73Z" fill="#700a00"/>
  <path d="m110.96,476.03c3.7-.68,6.04-3.78,7.93-6.63,14.55-21.88,27.11-44.85,44.42-65.18,17.3-20.32,40.27-38.23,68.26-44.99,3.54-.86,7.18-1.55,10.81-2.27.6-.05,1.21-.11,1.81-.16,7.18-.58,14.52-.88,21.3-3.05,6.78-2.18,13.08-6.66,14.81-12.75,2.69-9.47-6.96-18.75-17.78-21.18-10.83-2.43-22.26.01-33.22,2.16-21.09,4.12-42.73,7.14-64.2,5.55-21.47-1.59-42.95-8.15-58.4-21.08-3.47-2.9-6.7-6.16-10.96-8.12-4.26-1.97-10-2.32-13.65.48-3.64,2.79-3.98,7.51-4.01,11.7-.31,40.77,3.31,81.52,10.81,121.7,2.19,11.75,4.74,23.53,9.69,34.6,2.15,4.81,6.54,10.31,12.39,9.23Zm-21.44-142.76c-.12-3.8-.14-7.75,1.67-11.23,5.83-11.2,18.97-3.52,26.55,1.09,31.41,19.09,73.5,24.36,110.18,13.8,8.31-2.39,16.45-5.57,25.14-6.37,3.57-.33,7.86.08,9.56,2.81,1.48,2.39.09,5.52-2.31,7.3-2.4,1.78-5.55,2.54-8.57,3.29-38.26,9.55-75.25,27.57-97.84,56.11-11.22,14.17-18.5,30.39-28.85,45.04-1.69,2.39-3.55,4.82-6.3,6.29-2.04,1.09-4.71,1.5-6.91.86-.76-.22-1.47-.57-2.07-1.06-1.71-1.38-2.23-3.52-2.67-5.52-8.15-37.13-16.35-74.48-17.57-112.43Z" fill="#ffcb90"/>
  <path d="m109.75,451.22c.6.49,1.31.84,2.07,1.06,2.2.64,4.86.23,6.91-.86,2.75-1.47,4.61-3.9,6.3-6.29,10.36-14.66,17.63-30.87,28.85-45.04,22.59-28.55,59.58-46.56,97.84-56.11,3.03-.76,6.17-1.51,8.57-3.29,2.4-1.78,3.8-4.91,2.31-7.3-1.69-2.73-5.99-3.14-9.56-2.81-8.69.8-16.83,3.98-25.14,6.37-36.68,10.56-78.77,5.29-110.18-13.8-7.58-4.61-20.72-12.29-26.55-1.09-1.81,3.48-1.79,7.43-1.67,11.23,1.22,37.95,9.42,75.3,17.57,112.43.44,2,.96,4.14,2.67,5.52Zm-10.44-105.07c.59-2.95,2.36-5.89,5.38-7.36,2.95-1.44,6.63-1.27,9.81-.32,3.18.95,5.98,2.61,8.86,4.12,15.89,8.32,35.16,12.22,53.54,9.37,2.51-.39,5.03-.9,7.56-.71,2.53.19,5.13,1.22,6.28,3.18,1.32,2.26.33,5.12-1.58,7.07-1.9,1.95-4.55,3.19-7.09,4.48-22.56,11.46-40.49,29.7-49.97,50.82-1.25,2.78-2.4,5.68-4.68,7.92-2.15,2.11-5.61,3.49-8.64,2.7-.19-.05-.38-.11-.56-.17-3.01-1.08-4.46-3.99-5.54-6.66-4.9-12.18-7.83-24.9-9.85-37.69-1.78-11.21-5.75-25.44-3.51-36.74Z" fill="#ff3800"/>
  <path d="m118.21,427.24c.18.07.37.12.56.17,3.03.79,6.49-.59,8.64-2.7,2.28-2.24,3.44-5.14,4.68-7.92,9.48-21.12,27.42-39.36,49.97-50.82,2.54-1.29,5.19-2.54,7.09-4.48,1.9-1.95,2.89-4.81,1.58-7.07-1.14-1.96-3.75-2.99-6.28-3.18-2.53-.19-5.06.33-7.56.71-18.38,2.85-37.65-1.04-53.54-9.37-2.87-1.5-5.68-3.16-8.86-4.12-3.18-.95-6.86-1.12-9.81.32-3.02,1.47-4.79,4.41-5.38,7.36-2.25,11.3,1.73,25.53,3.51,36.74,2.03,12.78,4.96,25.5,9.85,37.69,1.07,2.67,2.53,5.58,5.54,6.66Zm-7.13-59.64c-.2-2.76-.3-5.74,1.42-8.08,7.93-10.81,33.14-.31,41.93,4.07,1.61.8,3.33,1.81,3.76,3.39.56,2.07-1.35,4-3.06,5.54-8.38,7.53-15.86,15.83-22.26,24.7-1.78,2.46-3.57,5.06-6.4,6.63-1.69.93-3.86,1.35-5.78,1.05-1.3-.2-2.48-.72-3.31-1.63-.99-1.08-1.33-2.49-1.63-3.84-2.32-10.5-3.89-21.14-4.67-31.82Z" fill="#700a00"/>
  <path d="m117.39,403.26c.83.91,2.01,1.43,3.31,1.63,1.92.3,4.1-.12,5.78-1.05,2.82-1.56,4.62-4.16,6.4-6.63,6.4-8.87,13.87-17.17,22.26-24.7,1.72-1.54,3.62-3.47,3.06-5.54-.42-1.58-2.14-2.59-3.76-3.39-8.79-4.37-34-14.87-41.93-4.07-1.72,2.35-1.63,5.32-1.42,8.08.79,10.68,2.35,21.32,4.67,31.82.3,1.36.64,2.77,1.63,3.84Zm1.24-32.91c-.12-1.57-.17-3.26.81-4.6,4.51-6.14,18.84-.17,23.84,2.31.92.46,1.89,1.03,2.14,1.93.32,1.18-.76,2.27-1.74,3.15-4.77,4.28-9.01,9-12.65,14.04-1.01,1.4-2.03,2.88-3.64,3.77-.96.53-2.2.77-3.29.6-.74-.11-1.41-.41-1.88-.93-.56-.61-.76-1.41-.93-2.18-1.32-5.97-2.21-12.02-2.66-18.09Z" fill="#ff9600"/>
  <path d="m122.22,390.62c.47.52,1.14.81,1.88.93,1.09.17,2.33-.07,3.29-.6,1.61-.89,2.63-2.37,3.64-3.77,3.64-5.04,7.89-9.76,12.65-14.04.98-.88,2.06-1.97,1.74-3.15-.24-.9-1.22-1.47-2.14-1.93-5-2.49-19.33-8.46-23.84-2.31-.98,1.34-.93,3.03-.81,4.6.45,6.07,1.34,12.12,2.66,18.09.17.77.36,1.57.93,2.18Z" fill="#ff3800"/>
  <path d="m392.79,603.95c-3.88,4.8-7.75,8.38-10.56,10.74-2.7,2.77-7,6.6-13.24,9.87-4.77,2.5-6.17,2.32-10.98,4.63-6.23,2.97-16.94,8.09-17.32,15.07-.38,6.92,9.62,12.18,11.16,12.97,3.66,2.19,8.8,5.65,14,10.69,4.31,4.16,6.06,6.89,8.6,9.74,4.04,4.54,10.85,10.23,22.88,14.9,3.41,1.56,8.75,4.09,15.08,7.56,12.82,7.03,12.52,8.48,15.9,9.17,13.92,2.83,19.8-21.47,48.03-31.74,10.67-3.88,15.8-2.58,41.24-10.52,11.1-3.46,16.14-5.71,18.68-10.29,5.4-9.76-3.39-22.07-5.01-24.29-17.8-24.5-51.22-11.86-87.06-37.22-17.37-12.29-24.35-25.75-32.43-23.31-7.29,2.2-5.23,15.05-18.96,32.04Zm26.99-11.83c12.12-3.58,18.31,10.25,52.37,25.2,12.13,5.32,24.77,9.68,36.24,21.15,3.85,3.85,7.29,8.63,6.55,13.72-.9,6.17-7.79,10.59-14.77,12.01-6.98,1.42-14.24.6-21.4.64-20.81.1-40.64,7.35-60.05,14.03-5.52,1.9-11.19,3.79-17.1,3.97-5.82.18-10.52-2.62-15.54-5.89-11.62-7.58-32.03-25.52-26.15-35.26,1.95-3.23,7.22-5.14,17.74-8.95,7.56-2.74,9.19-2.38,12.96-4.35,4.27-2.23,9.72-6.61,13.57-16.18,4.51-14.81,11.26-18.8,15.59-20.07Z" fill="#700a00"/>
  <path d="m390.62,628.38c-3.77,1.97-5.4,1.62-12.96,4.35-10.53,3.81-15.79,5.72-17.74,8.95-5.89,9.74,14.53,27.68,26.15,35.26,5.01,3.27,9.71,6.06,15.54,5.89,5.92-.18,11.58-2.07,17.1-3.97,19.41-6.68,39.24-13.93,60.05-14.03,7.16-.03,14.42.78,21.4-.64,6.98-1.42,13.88-5.84,14.77-12.01.74-5.09-2.7-9.87-6.55-13.72-11.47-11.46-24.11-15.82-36.24-21.15-34.06-14.94-40.25-28.77-52.37-25.2-4.32,1.28-11.08,5.26-15.59,20.07-3.85,9.58-9.29,13.96-13.57,16.18Zm28.35,5.17c4.57-1.53,8.5-2.44,9.93-2.77,13.86-3.22,24.74-1.42,29.13-.49,1.86.39,11.11,2.34,16.99,5.8,2.83,1.66,4.88,3.67,4.95,6.02.1,3.51-4.23,7.31-8.62,8.43-1.4.36-2.6.39-3.74.24-3.7-.49-6.63-2.93-12.86-2.57-3.52.21-6.86,1.67-13.53,4.59-9.16,4.01-8.99,5.31-14.69,7.25-5,1.7-12.71,4.31-19.41,1.21-2.55-1.18-4.94-3.18-6.52-5.56-1.35-2.01-2.12-4.28-1.95-6.55.58-7.58,11.62-12.71,20.32-15.61Z" fill="#ff9600"/>
  <path d="m400.6,655.7c1.59,2.37,3.97,4.37,6.52,5.56,6.7,3.1,14.41.48,19.41-1.21,5.69-1.93,5.53-3.24,14.69-7.25,6.68-2.92,10.02-4.39,13.53-4.59,6.23-.36,9.16,2.08,12.86,2.57,1.13.15,2.34.12,3.74-.24,4.39-1.12,8.72-4.92,8.62-8.43-.07-2.35-2.12-4.36-4.95-6.02-5.88-3.46-15.14-5.41-16.99-5.8-4.38-.92-15.27-2.72-29.13.49-1.43.33-5.36,1.24-9.93,2.77-8.7,2.9-19.74,8.03-20.32,15.61-.17,2.27.6,4.54,1.95,6.55Z" fill="#700a00"/>
</svg>